<svg width="22" height="24" viewBox="0 0 22 24" fill="none" xmlns="http://www.w3.org/2000/svg">
<path fill-rule="evenodd" clip-rule="evenodd" d="M0.6875 6C0.6875 2.72081 3.34581 0.0625 6.625 0.0625H19.125C20.3331 0.0625 21.3125 1.04188 21.3125 2.25V21C21.3125 22.2081 20.3331 23.1875 19.125 23.1875H5.375C2.78616 23.1875 0.6875 21.0888 0.6875 18.5V6ZM19.4375 2.25V13.8125H5.375C4.31974 13.8125 3.34593 14.1612 2.5625 14.7497V6C2.5625 3.75634 4.38134 1.9375 6.625 1.9375H10.6349C10.3058 4.41443 10.3353 6.92786 10.7243 9.40002L10.8023 9.89571C10.8581 10.2507 11.1121 10.5426 11.456 10.647C11.7998 10.7515 12.1732 10.6501 12.417 10.3861L14.125 8.53716L15.833 10.3861C16.0768 10.6501 16.4502 10.7515 16.7941 10.647C17.138 10.5426 17.3919 10.2507 17.4477 9.89571L17.5257 9.40002C17.9147 6.92786 17.9443 4.41443 17.6151 1.9375H19.125C19.2976 1.9375 19.4375 2.07741 19.4375 2.25ZM15.7224 1.9375H12.5277C12.2562 3.83023 12.211 5.74774 12.3923 7.64959L13.2068 6.76789C13.7017 6.23212 14.5483 6.23212 15.0432 6.76789L15.8577 7.64959C16.039 5.74774 15.9938 3.83023 15.7224 1.9375ZM5.375 15.6875H19.4375V21C19.4375 21.1726 19.2976 21.3125 19.125 21.3125H5.375C3.8217 21.3125 2.5625 20.0533 2.5625 18.5C2.5625 16.9467 3.8217 15.6875 5.375 15.6875Z" fill="#434343"/>
</svg>
