<svg width="24" height="24" viewBox="0 0 24 24" fill="none" xmlns="http://www.w3.org/2000/svg">
<path d="M8.335 1.03502C6.63063 0.844535 4.86933 0.844535 3.16496 1.03502C2.06849 1.15757 1.18186 2.02101 1.05255 3.12656C0.848693 4.86958 0.848693 6.63042 1.05255 8.37345C1.18186 9.47899 2.06849 10.3424 3.16496 10.465C4.86933 10.6555 6.63063 10.6555 8.335 10.465C9.43147 10.3424 10.3181 9.47899 10.4474 8.37345C10.6513 6.63042 10.6513 4.86958 10.4474 3.12656C10.3181 2.02101 9.43147 1.15757 8.335 1.03502Z" fill="#337A6F"/>
<path d="M8.335 13.535C6.63063 13.3445 4.86933 13.3445 3.16496 13.535C2.06849 13.6576 1.18186 14.521 1.05255 15.6266C0.848693 17.3696 0.848693 19.1304 1.05255 20.8734C1.18186 21.979 2.06849 22.8424 3.16496 22.965C4.86933 23.1555 6.63063 23.1555 8.335 22.965C9.43147 22.8424 10.3181 21.979 10.4474 20.8734C10.6513 19.1304 10.6513 17.3696 10.4474 15.6266C10.3181 14.521 9.43147 13.6576 8.335 13.535Z" fill="#337A6F"/>
<path d="M20.835 1.03502C19.1306 0.844535 17.3693 0.844535 15.665 1.03502C14.5685 1.15757 13.6819 2.02101 13.5526 3.12656C13.3487 4.86958 13.3487 6.63042 13.5526 8.37345C13.6819 9.47899 14.5685 10.3424 15.665 10.465C17.3693 10.6555 19.1306 10.6555 20.835 10.465C21.9315 10.3424 22.8181 9.47899 22.9474 8.37345C23.1513 6.63042 23.1513 4.86958 22.9474 3.12656C22.8181 2.02101 21.9315 1.15757 20.835 1.03502Z" fill="#337A6F"/>
<path d="M20.835 13.535C19.1306 13.3445 17.3693 13.3445 15.665 13.535C14.5685 13.6576 13.6819 14.521 13.5526 15.6266C13.3487 17.3696 13.3487 19.1304 13.5526 20.8734C13.6819 21.979 14.5685 22.8424 15.665 22.965C17.3693 23.1555 19.1306 23.1555 20.835 22.965C21.9315 22.8424 22.8181 21.979 22.9474 20.8734C23.1513 19.1304 23.1513 17.3696 22.9474 15.6266C22.8181 14.521 21.9315 13.6576 20.835 13.535Z" fill="#337A6F"/>
</svg>
