<svg width="20" height="23" viewBox="0 0 20 23" fill="none" xmlns="http://www.w3.org/2000/svg">
<path fill-rule="evenodd" clip-rule="evenodd" d="M10.0248 0.375C10.1771 0.375 10.294 0.510058 10.2738 0.661043C9.92881 3.24514 9.97153 5.86786 10.4019 8.44225L10.4202 8.55153C10.4414 8.67866 10.5386 8.7797 10.6648 8.80595C10.791 8.8322 10.9203 8.77827 10.9905 8.67015L13.0202 5.54358C13.0694 5.46766 13.1806 5.46766 13.2299 5.54358L15.2595 8.67015C15.3297 8.77827 15.4591 8.8322 15.5853 8.80595C15.7115 8.7797 15.8086 8.67866 15.8298 8.55153L15.8481 8.44226C16.2785 5.86787 16.3212 3.24514 15.9762 0.661043C15.956 0.510058 16.0729 0.375 16.2252 0.375L18.125 0.375C19.1605 0.375 20 1.21447 20 2.25V21C20 21.6904 19.4404 22.25 18.75 22.25H4.375C2.17096 22.25 0.347574 20.6202 0.0443055 18.5H0V6C0 2.8934 2.5184 0.375 5.625 0.375L10.0248 0.375ZM4.375 15.375H18.125V20.375H4.375C2.99429 20.375 1.875 19.2557 1.875 17.875C1.875 16.4943 2.99429 15.375 4.375 15.375Z" fill="#337A6F"/>
</svg>
