<svg width="31" height="34" viewBox="0 0 31 34" fill="none" xmlns="http://www.w3.org/2000/svg">
<path fill-rule="evenodd" clip-rule="evenodd" d="M18.1655 4.08487C16.5695 2.55338 14.0496 2.55338 12.4535 4.08487L3.97171 12.2236C3.76389 12.4231 3.62411 12.6828 3.57216 12.9661C2.55625 18.5062 2.48126 24.1778 3.35034 29.7428L3.55663 31.0637H9.01347V19.6763C9.01347 18.9169 9.62908 18.3013 10.3885 18.3013H20.2306C20.99 18.3013 21.6056 18.9169 21.6056 19.6763V31.0637H27.0624L27.2687 29.7428C28.1378 24.1778 28.0628 18.5062 27.0469 12.9661C26.9949 12.6828 26.8551 12.4231 26.6473 12.2236L18.1655 4.08487ZM10.5495 2.10061C13.2096 -0.451873 17.4095 -0.451873 20.0695 2.10061L28.5513 10.2394C29.1757 10.8385 29.5957 11.6189 29.7518 12.4701C30.8234 18.3141 30.9025 24.2969 29.9858 30.1671L29.6544 32.2892C29.5173 33.1668 28.7615 33.8137 27.8732 33.8137H20.2306C19.4712 33.8137 18.8556 33.1981 18.8556 32.4387V21.0513H11.7635V32.4387C11.7635 33.1981 11.1479 33.8137 10.3885 33.8137H2.7458C1.85758 33.8137 1.10172 33.1668 0.964673 32.2892L0.633276 30.1671C-0.283479 24.2969 -0.204376 18.3141 0.867262 12.4701C1.02334 11.6189 1.44333 10.8385 2.0677 10.2394L10.5495 2.10061Z" fill="#606060"/>
</svg>
