<svg width="34" height="34" viewBox="0 0 34 34" fill="none" xmlns="http://www.w3.org/2000/svg">
<path fill-rule="evenodd" clip-rule="evenodd" d="M11.6313 3.19552C9.30076 2.93504 6.88826 2.93504 4.55769 3.19552C3.99139 3.25881 3.5448 3.70722 3.4811 4.25183C3.20279 6.63139 3.20279 9.03528 3.4811 11.4148C3.5448 11.9594 3.99139 12.4079 4.55769 12.4711C6.88826 12.7316 9.30075 12.7316 11.6313 12.4711C12.1976 12.4079 12.6442 11.9594 12.7079 11.4148C12.9862 9.03528 12.9862 6.63139 12.7079 4.25183C12.6442 3.70722 12.1976 3.25881 11.6313 3.19552ZM4.25224 0.462533C6.78581 0.179369 9.4032 0.179369 11.9368 0.462533C13.7533 0.665558 15.2245 2.09553 15.4393 3.93237C15.7424 6.52418 15.7424 9.14249 15.4393 11.7343C15.2245 13.5711 13.7533 15.0011 11.9368 15.2041C9.4032 15.4873 6.78581 15.4873 4.25224 15.2041C2.4357 15.0011 0.964555 13.5711 0.749721 11.7343C0.446586 9.14249 0.446586 6.52418 0.749721 3.93237C0.964555 2.09553 2.4357 0.665558 4.25224 0.462533Z" fill="#606060"/>
<path fill-rule="evenodd" clip-rule="evenodd" d="M11.6313 21.5289C9.30076 21.2684 6.88826 21.2684 4.55769 21.5289C3.99139 21.5921 3.5448 22.0406 3.4811 22.5852C3.20279 24.9647 3.20279 27.3686 3.4811 29.7482C3.5448 30.2928 3.99139 30.7412 4.55769 30.8045C6.88826 31.065 9.30075 31.065 11.6313 30.8045C12.1976 30.7412 12.6442 30.2928 12.7079 29.7482C12.9862 27.3686 12.9862 24.9647 12.7079 22.5852C12.6442 22.0406 12.1976 21.5921 11.6313 21.5289ZM4.25224 18.7959C6.78581 18.5127 9.4032 18.5127 11.9368 18.7959C13.7533 18.9989 15.2245 20.4289 15.4393 22.2657C15.7424 24.8575 15.7424 27.4758 15.4393 30.0676C15.2245 31.9045 13.7533 33.3344 11.9368 33.5375C9.4032 33.8206 6.78581 33.8206 4.25224 33.5375C2.4357 33.3344 0.964555 31.9045 0.749721 30.0676C0.446586 27.4758 0.446586 24.8575 0.749721 22.2657C0.964555 20.4289 2.4357 18.9989 4.25224 18.7959Z" fill="#606060"/>
<path fill-rule="evenodd" clip-rule="evenodd" d="M29.9647 3.19552C27.6341 2.93504 25.2216 2.93504 22.891 3.19552C22.3247 3.25881 21.8781 3.70722 21.8144 4.25183C21.5361 6.63139 21.5361 9.03528 21.8144 11.4148C21.8781 11.9594 22.3247 12.4079 22.891 12.4711C25.2216 12.7316 27.6341 12.7316 29.9647 12.4711C30.531 12.4079 30.9775 11.9594 31.0412 11.4148C31.3196 9.03528 31.3196 6.63139 31.0412 4.25183C30.9775 3.70722 30.531 3.25881 29.9647 3.19552ZM22.5856 0.462533C25.1191 0.179369 27.7365 0.179369 30.2701 0.462533C32.0866 0.665558 33.5578 2.09553 33.7726 3.93237C34.0758 6.52418 34.0758 9.14249 33.7726 11.7343C33.5578 13.5711 32.0866 15.0011 30.2701 15.2041C27.7365 15.4873 25.1191 15.4873 22.5856 15.2041C20.769 15.0011 19.2979 13.5711 19.0831 11.7343C18.7799 9.14249 18.7799 6.52418 19.0831 3.93237C19.2979 2.09553 20.769 0.665558 22.5856 0.462533Z" fill="#606060"/>
<path fill-rule="evenodd" clip-rule="evenodd" d="M29.9647 21.5289C27.6341 21.2684 25.2216 21.2684 22.891 21.5289C22.3247 21.5921 21.8781 22.0406 21.8144 22.5852C21.5361 24.9647 21.5361 27.3686 21.8144 29.7482C21.8781 30.2928 22.3247 30.7412 22.891 30.8045C25.2216 31.065 27.6341 31.065 29.9647 30.8045C30.531 30.7412 30.9775 30.2928 31.0412 29.7482C31.3196 27.3686 31.3196 24.9647 31.0412 22.5852C30.9775 22.0406 30.531 21.5921 29.9647 21.5289ZM22.5856 18.7959C25.1191 18.5127 27.7365 18.5127 30.2701 18.7959C32.0866 18.9989 33.5578 20.4289 33.7726 22.2657C34.0758 24.8575 34.0758 27.4758 33.7726 30.0676C33.5578 31.9045 32.0866 33.3344 30.2701 33.5375C27.7365 33.8206 25.1191 33.8206 22.5856 33.5375C20.769 33.3344 19.2979 31.9045 19.0831 30.0676C18.7799 27.4758 18.7799 24.8575 19.0831 22.2657C19.2979 20.4289 20.769 18.9989 22.5856 18.7959Z" fill="#606060"/>
</svg>
