<svg width="268" height="232" viewBox="0 0 268 232" fill="none" xmlns="http://www.w3.org/2000/svg">
<path d="M81.7222 161.754L219.821 161.754C222.769 161.754 225.159 159.561 225.159 156.856L225.159 7.66C225.159 4.9548 222.769 2.76183 219.821 2.76183L81.7222 2.76183C78.774 2.76183 76.384 4.9548 76.384 7.66L76.384 156.856C76.384 159.561 78.774 161.754 81.7222 161.754Z" fill="white"/>
<path d="M76.0558 156.857V7.66006C76.0575 6.2816 76.6551 4.96007 77.7174 3.98538C78.7797 3.01069 80.22 2.46245 81.7222 2.46094H219.821C221.324 2.46245 222.764 3.01069 223.826 3.98538C224.888 4.96007 225.486 6.2816 225.488 7.66006V156.857C225.486 158.235 224.889 159.557 223.826 160.531C222.764 161.506 221.324 162.054 219.821 162.056H81.7222C80.2199 162.054 78.7797 161.506 77.7174 160.531C76.6551 159.557 76.0575 158.235 76.0558 156.857ZM81.7222 3.06372C80.394 3.06508 79.1207 3.54979 78.1815 4.41152C77.2423 5.27326 76.7139 6.44164 76.7124 7.66036V156.857C76.7139 158.075 77.2423 159.244 78.1815 160.106C79.1207 160.967 80.394 161.452 81.7222 161.454H219.821C221.15 161.452 222.423 160.967 223.362 160.106C224.301 159.244 224.83 158.075 224.831 156.857V7.66006C224.83 6.44134 224.301 5.27296 223.362 4.41122C222.423 3.54949 221.15 3.06477 219.821 3.06342L81.7222 3.06372Z" fill="#292A2E"/>
<path d="M109.98 231.878C109.933 231.878 109.887 231.869 109.844 231.851C109.801 231.833 109.763 231.807 109.732 231.774C109.701 231.742 109.678 231.703 109.665 231.662C109.652 231.62 109.648 231.577 109.655 231.534L120.634 162.012C120.64 161.973 120.654 161.934 120.676 161.9C120.697 161.865 120.726 161.835 120.761 161.811C120.796 161.786 120.835 161.769 120.878 161.759C120.92 161.749 120.964 161.747 121.007 161.752C121.05 161.758 121.092 161.772 121.129 161.792C121.166 161.813 121.199 161.84 121.225 161.872C121.25 161.905 121.269 161.941 121.279 161.98C121.289 162.019 121.291 162.059 121.284 162.099L110.303 231.62C110.292 231.692 110.253 231.757 110.194 231.804C110.135 231.852 110.059 231.878 109.98 231.878Z" fill="#292A2E"/>
<path d="M191.564 231.878C191.485 231.878 191.409 231.852 191.35 231.805C191.29 231.758 191.251 231.692 191.24 231.621L180.261 162.098C180.25 162.02 180.273 161.941 180.325 161.878C180.377 161.815 180.454 161.773 180.539 161.762C180.624 161.751 180.711 161.771 180.78 161.817C180.85 161.864 180.896 161.934 180.91 162.012L191.891 231.534C191.898 231.577 191.894 231.621 191.881 231.662C191.868 231.704 191.845 231.742 191.814 231.775C191.783 231.807 191.745 231.834 191.702 231.852C191.66 231.869 191.613 231.879 191.566 231.879L191.564 231.878Z" fill="#292A2E"/>
<g opacity="0.1">
<path d="M91.4047 79.3962L210.139 79.3962C212.226 79.3962 213.918 77.8436 213.918 75.9284V17.7192C213.918 15.804 212.226 14.2514 210.139 14.2514L91.4047 14.2514C89.3174 14.2514 87.6253 15.804 87.6253 17.7192L87.6253 75.9284C87.6253 77.8436 89.3174 79.3962 91.4047 79.3962Z" fill="#337A6F"/>
</g>
<g opacity="0.1">
<path d="M87.4917 146.708V90.6347C87.4929 89.6725 87.91 88.75 88.6516 88.0697C89.3931 87.3893 90.3984 87.0067 91.4471 87.0056H209.768C210.817 87.0068 211.822 87.3895 212.563 88.0699C213.305 88.7502 213.722 89.6726 213.723 90.6347V146.708C213.722 147.67 213.305 148.592 212.563 149.273C211.822 149.953 210.816 150.336 209.767 150.337H91.4471C90.3984 150.336 89.393 149.953 88.6514 149.273C87.9099 148.592 87.4928 147.67 87.4917 146.708Z" fill="#337A6F"/>
</g>
<path d="M198.594 142.061H200.943C201.296 142.061 201.583 141.798 201.583 141.474V100.312C201.583 99.9875 201.296 99.7247 200.943 99.7247H198.594C198.241 99.7247 197.955 99.9875 197.955 100.312V141.474C197.955 141.798 198.241 142.061 198.594 142.061Z" fill="white"/>
<path opacity="0.3" d="M202.223 142.061H204.571C204.924 142.061 205.211 141.798 205.211 141.474V113.609C205.211 113.284 204.924 113.021 204.571 113.021H202.223C201.869 113.021 201.583 113.284 201.583 113.609V141.474C201.583 141.798 201.869 142.061 202.223 142.061Z" fill="#337A6F"/>
<path d="M169.56 142.061H171.908C172.261 142.061 172.548 141.798 172.548 141.474V137.291C172.548 136.967 172.261 136.704 171.908 136.704H169.56C169.206 136.704 168.92 136.967 168.92 137.291V141.474C168.92 141.798 169.206 142.061 169.56 142.061Z" fill="white"/>
<path opacity="0.3" d="M173.188 142.061H175.536C175.889 142.061 176.176 141.798 176.176 141.474V111.218C176.176 110.894 175.889 110.631 175.536 110.631H173.188C172.834 110.631 172.548 110.894 172.548 111.218V141.474C172.548 141.798 172.834 142.061 173.188 142.061Z" fill="#337A6F"/>
<path d="M184.077 142.061H186.425C186.779 142.061 187.065 141.798 187.065 141.474V117.307C187.065 116.983 186.779 116.72 186.425 116.72H184.077C183.724 116.72 183.437 116.983 183.437 117.307V141.474C183.437 141.798 183.724 142.061 184.077 142.061Z" fill="white"/>
<path opacity="0.3" d="M187.705 142.061H190.054C190.407 142.061 190.694 141.798 190.694 141.474V126.063C190.694 125.739 190.407 125.476 190.054 125.476H187.705C187.352 125.476 187.066 125.739 187.066 126.063V141.474C187.066 141.798 187.352 142.061 187.705 142.061Z" fill="#337A6F"/>
<path d="M126.007 142.061H128.355C128.709 142.061 128.995 141.798 128.995 141.474V108.5C128.995 108.175 128.709 107.912 128.355 107.912H126.007C125.654 107.912 125.367 108.175 125.367 108.5V141.474C125.367 141.798 125.654 142.061 126.007 142.061Z" fill="white"/>
<path opacity="0.3" d="M129.635 142.061H131.984C132.337 142.061 132.624 141.798 132.624 141.474V121.072C132.624 120.748 132.337 120.485 131.984 120.485H129.635C129.282 120.485 128.996 120.748 128.996 121.072V141.474C128.996 141.798 129.282 142.061 129.635 142.061Z" fill="#337A6F"/>
<path d="M155.042 142.061H157.391C157.744 142.061 158.031 141.798 158.031 141.474V113.826C158.031 113.502 157.744 113.239 157.391 113.239H155.042C154.689 113.239 154.402 113.502 154.402 113.826V141.474C154.402 141.798 154.689 142.061 155.042 142.061Z" fill="white"/>
<path opacity="0.3" d="M158.67 142.061H161.019C161.372 142.061 161.658 141.798 161.658 141.474V117.089C161.658 116.765 161.372 116.502 161.019 116.502H158.67C158.317 116.502 158.03 116.765 158.03 117.089V141.474C158.03 141.798 158.317 142.061 158.67 142.061Z" fill="#337A6F"/>
<path d="M140.525 142.061H142.873C143.227 142.061 143.513 141.798 143.513 141.474V100.312C143.513 99.9875 143.227 99.7247 142.873 99.7247H140.525C140.172 99.7247 139.885 99.9875 139.885 100.312V141.474C139.885 141.798 140.172 142.061 140.525 142.061Z" fill="white"/>
<path opacity="0.3" d="M144.153 142.061H146.501C146.855 142.061 147.141 141.798 147.141 141.474V102.351C147.141 102.027 146.855 101.764 146.501 101.764H144.153C143.799 101.764 143.513 102.027 143.513 102.351V141.474C143.513 141.798 143.799 142.061 144.153 142.061Z" fill="#337A6F"/>
<path d="M111.49 142.061H113.838C114.192 142.061 114.478 141.798 114.478 141.474V100.312C114.478 99.9875 114.192 99.7247 113.838 99.7247H111.49C111.137 99.7247 110.85 99.9875 110.85 100.312V141.474C110.85 141.798 111.137 142.061 111.49 142.061Z" fill="white"/>
<path opacity="0.3" d="M115.118 142.061H117.466C117.82 142.061 118.106 141.798 118.106 141.474V113.609C118.106 113.284 117.82 113.021 117.466 113.021H115.118C114.765 113.021 114.478 113.284 114.478 113.609V141.474C114.478 141.798 114.765 142.061 115.118 142.061Z" fill="#337A6F"/>
<path d="M96.9726 142.061H99.321C99.6743 142.061 99.9608 141.798 99.9608 141.474V117.307C99.9608 116.983 99.6743 116.72 99.321 116.72H96.9726C96.6192 116.72 96.3328 116.983 96.3328 117.307V141.474C96.3328 141.798 96.6192 142.061 96.9726 142.061Z" fill="white"/>
<path opacity="0.3" d="M100.601 142.061H102.949C103.302 142.061 103.589 141.798 103.589 141.474V126.063C103.589 125.739 103.302 125.476 102.949 125.476H100.601C100.247 125.476 99.9608 125.739 99.9608 126.063V141.474C99.9608 141.798 100.247 142.061 100.601 142.061Z" fill="#337A6F"/>
<path opacity="0.2" d="M205.243 35.1578V71.1947C205.243 71.3479 205.177 71.4949 205.059 71.6033C204.941 71.7117 204.781 71.7727 204.614 71.7728H96.9296C96.7626 71.7727 96.6024 71.7117 96.4843 71.6033C96.3663 71.4949 96.2999 71.3479 96.2999 71.1947V52.0634C96.2999 51.962 96.3289 51.8623 96.3842 51.7744C96.4395 51.6865 96.519 51.6135 96.6148 51.5628L115.68 41.4622C115.778 41.4107 115.888 41.384 116 41.3848C116.112 41.3856 116.222 41.4139 116.319 41.4667L124.901 46.1733C125.009 46.2322 125.133 46.2605 125.258 46.2545C125.382 46.2485 125.503 46.2085 125.603 46.1395L134.615 39.9322C134.707 39.8688 134.816 39.8296 134.93 39.819C135.044 39.8084 135.16 39.8267 135.263 39.8719L146.385 44.7255C146.504 44.7774 146.637 44.7939 146.767 44.7726C146.896 44.7513 147.015 44.6934 147.107 44.6068L159.455 32.9738C159.561 32.8731 159.704 32.8115 159.857 32.8004C160.009 32.7893 160.161 32.8295 160.283 32.9136L168.301 38.4223C168.417 38.5023 168.56 38.5429 168.705 38.5374C168.85 38.5319 168.988 38.4806 169.097 38.3922L174.343 34.1146C174.449 34.0282 174.583 33.9771 174.725 33.9695C174.866 33.9619 175.006 33.9983 175.122 34.0727L182.567 38.8414C182.674 38.9098 182.802 38.9461 182.932 38.9452C183.063 38.9444 183.19 38.9064 183.296 38.8366L196.169 30.3352C196.268 30.2698 196.386 30.2321 196.507 30.2267C196.629 30.2214 196.75 30.2486 196.856 30.3051L204.932 34.6577C205.027 34.7088 205.106 34.7818 205.16 34.8696C205.215 34.9573 205.244 35.0567 205.243 35.1578Z" fill="#337A6F"/>
<path opacity="0.61" d="M96.6621 51.5667C96.7174 51.5668 96.7716 51.5534 96.8193 51.5278L115.944 41.3959L125.049 46.389C125.103 46.4183 125.165 46.4324 125.227 46.4294C125.29 46.4264 125.35 46.4064 125.4 46.3721L134.902 39.8267L146.603 44.933C146.663 44.9588 146.729 44.9669 146.794 44.9561C146.859 44.9453 146.918 44.9162 146.964 44.8728L159.818 32.7611L168.469 38.7046C168.527 38.7445 168.598 38.7649 168.671 38.7621C168.743 38.7594 168.812 38.7337 168.867 38.6895L174.683 33.9456L182.699 39.0811C182.752 39.1153 182.816 39.1335 182.881 39.1331C182.946 39.1326 183.01 39.1136 183.063 39.0787L196.465 30.2295L204.722 34.6788C204.758 34.698 204.797 34.7107 204.838 34.7159C204.879 34.7212 204.921 34.719 204.961 34.7095C205.001 34.6999 205.039 34.6833 205.072 34.6604C205.105 34.6375 205.132 34.6089 205.153 34.5762C205.174 34.5435 205.188 34.5073 205.194 34.4697C205.2 34.4321 205.197 34.3939 205.187 34.3571C205.176 34.3204 205.158 34.2859 205.133 34.2556C205.108 34.2253 205.077 34.1998 205.042 34.1805L196.608 29.6354C196.555 29.6071 196.494 29.5934 196.433 29.596C196.372 29.5986 196.313 29.6175 196.264 29.6502L182.876 38.4898L174.839 33.3425C174.781 33.3052 174.711 33.287 174.641 33.2907C174.57 33.2945 174.503 33.3201 174.45 33.3633L168.639 38.1018L159.972 32.1475C159.911 32.1054 159.835 32.0852 159.759 32.0908C159.682 32.0963 159.611 32.1272 159.558 32.1776L146.668 44.323L134.999 39.2303C134.947 39.2076 134.889 39.1984 134.832 39.2037C134.775 39.2091 134.72 39.2286 134.674 39.2604L125.188 45.7943L116.106 40.8136C116.058 40.7872 116.003 40.7731 115.947 40.7728C115.891 40.7724 115.836 40.7858 115.787 40.8115L96.5022 51.0281C96.4422 51.0599 96.3953 51.1091 96.3688 51.1679C96.3423 51.2267 96.3376 51.2919 96.3556 51.3534C96.3736 51.4149 96.4132 51.4692 96.4683 51.5079C96.5233 51.5466 96.5908 51.5676 96.6601 51.5676L96.6621 51.5667Z" fill="#337A6F"/>
<path d="M26.6451 218.482C26.6451 218.482 28.1274 225.531 35.3214 225.925C42.5154 226.32 40.9553 231.577 40.9553 231.577H13.4639V218.974L26.6451 218.482Z" fill="#337A6F"/>
<path d="M11.5994 89.8735C11.5994 89.8735 13.6552 87.7539 13.6371 92.5614C13.5692 110.494 12.2504 222.982 12.2504 222.982L30.3154 222.842L41.2586 89.1448L11.5994 89.8735Z" fill="#262626"/>
<path d="M57.4923 218.482C57.4923 218.482 58.9745 225.531 66.1686 225.925C73.3626 226.32 71.8025 231.577 71.8025 231.577H44.311V218.974L57.4923 218.482Z" fill="#337A6F"/>
<path d="M60.9864 91.2658C60.9864 91.2658 63.2432 152.555 63.0088 155.551L60.8866 222.517L43.1204 222.818L40.2553 153.128C40.2553 153.128 38.3775 133.904 33.3154 116.053C30.7256 106.891 29.167 97.5099 28.6641 88.0564L60.9864 91.2658Z" fill="#262626"/>
<path d="M37.5485 134.72L39.0297 113.932C39.0297 113.932 40.5514 122.574 40.5514 130.023C40.5514 133.664 39.7343 148.08 39.7343 148.08L37.5485 134.72Z" fill="#0A0A0A"/>
<path d="M11.4031 89.8714L11.344 89.8744C11.344 89.8744 11.3867 88.8291 11.4031 89.8714Z" fill="#333333"/>
<path d="M11.4772 89.8714L11.4181 89.8744C11.4181 89.8744 11.4608 88.8291 11.4772 89.8714Z" fill="#333333"/>
<path d="M110.468 40.1255C110.359 39.9278 110.186 39.7659 109.973 39.6623C109.759 39.5587 109.516 39.5185 109.277 39.5472C109.279 39.5339 109.278 39.5204 109.273 39.5078C109.268 39.4952 109.26 39.4838 109.249 39.4748C109.238 39.4657 109.225 39.4591 109.211 39.4557C109.197 39.4522 109.182 39.452 109.168 39.455L109.976 38.9239C110.218 38.7721 110.391 38.545 110.465 38.2848C110.539 38.0245 110.507 37.7486 110.376 37.5081C110.238 37.2743 110.011 37.0958 109.738 37.0072C109.465 36.9186 109.166 36.9263 108.898 37.0288C108.9 37.0185 108.892 37.0083 108.891 36.9987L109.223 36.7803C109.45 36.6364 109.616 36.4249 109.692 36.1817C109.769 35.9385 109.752 35.6784 109.644 35.4455C109.572 35.3007 109.467 35.1722 109.335 35.0693C109.204 34.9664 109.048 34.8916 108.881 34.8503C108.714 34.8091 108.539 34.8024 108.369 34.8307C108.198 34.859 108.037 34.9216 107.896 35.0141L107.13 35.5181C107.128 35.5138 107.13 35.509 107.128 35.5051C107.125 35.5012 107.116 35.4997 107.112 35.4955C107.288 35.314 107.391 35.083 107.405 34.8404C107.419 34.5979 107.343 34.3582 107.189 34.1607C106.827 33.6269 105.993 33.7359 105.497 34.0616L100.989 36.9191L101.795 35.6741C101.957 35.4346 102.014 35.1475 101.955 34.8708C101.895 34.5941 101.723 34.3484 101.474 34.1836C101.342 34.1025 101.193 34.047 101.037 34.0204C100.881 33.9938 100.721 33.9966 100.566 34.0288C100.411 34.0609 100.265 34.1216 100.137 34.2073C100.008 34.293 99.9003 34.4017 99.8193 34.527L95.4201 41.3239C94.9039 42.1212 94.7469 43.0718 94.9824 43.9737C95.2179 44.8756 95.8274 45.6576 96.6814 46.1537C97.6717 46.7291 98.8268 47.0201 99.9985 46.9892C101.17 46.9584 102.305 46.6071 103.258 45.9805L110.066 41.5028C110.292 41.3484 110.455 41.1283 110.528 40.8783C110.601 40.6284 110.58 40.3631 110.468 40.1255Z" fill="#A4664E"/>
<g opacity="0.25">
<path d="M102.67 38.3414C102.686 38.3622 102.711 38.3763 102.739 38.3805C102.766 38.3848 102.795 38.379 102.818 38.3643L107.102 35.6419C107.113 35.6345 107.123 35.6251 107.131 35.6142C107.139 35.6033 107.144 35.5911 107.146 35.5783C107.149 35.5655 107.149 35.5524 107.146 35.5397C107.143 35.527 107.137 35.515 107.129 35.5043C107.121 35.4936 107.111 35.4845 107.099 35.4774C107.087 35.4704 107.073 35.4656 107.059 35.4633C107.046 35.4609 107.031 35.4612 107.017 35.4639C107.004 35.4667 106.99 35.4719 106.979 35.4793L102.695 38.2016C102.672 38.2166 102.656 38.2395 102.651 38.2653C102.645 38.2911 102.652 38.3177 102.668 38.3393L102.67 38.3414Z" fill="#0C0C0C"/>
</g>
<g opacity="0.25">
<path d="M103.926 40.1079C103.943 40.1289 103.967 40.143 103.995 40.1474C104.023 40.1517 104.051 40.1459 104.074 40.1311L108.855 37.0928C108.879 37.0778 108.895 37.0549 108.9 37.0291C108.905 37.0033 108.898 36.9767 108.882 36.9551C108.865 36.9343 108.84 36.9201 108.812 36.9155C108.785 36.9108 108.756 36.9161 108.732 36.9301L103.952 39.9685C103.928 39.9834 103.912 40.0063 103.907 40.0321C103.902 40.0579 103.908 40.0845 103.924 40.1061L103.926 40.1079Z" fill="#0C0C0C"/>
</g>
<g opacity="0.25">
<path d="M105.275 42.0286C105.291 42.0495 105.316 42.0635 105.344 42.0678C105.372 42.0721 105.4 42.0662 105.423 42.0515L109.237 39.628C109.26 39.6131 109.276 39.5902 109.281 39.5644C109.286 39.5386 109.28 39.5119 109.264 39.4904C109.248 39.4688 109.223 39.454 109.194 39.4493C109.166 39.4447 109.137 39.4504 109.114 39.4654L105.3 41.8888C105.277 41.9038 105.261 41.9267 105.256 41.9525C105.251 41.9783 105.257 42.0049 105.273 42.0265L105.275 42.0286Z" fill="#0C0C0C"/>
</g>
<path d="M92.8243 39.7751L79.9027 59.9679L64.1362 40.9922L51.0426 51.8239L73.4034 78.3967L73.5498 78.5858C74.4449 79.7106 75.6374 80.6077 77.0148 81.1928C78.3922 81.7778 79.9092 82.0314 81.423 81.9298C82.9368 81.8281 84.3974 81.3745 85.6674 80.6118C86.9373 79.849 87.9747 78.8021 88.6818 77.5698L107.056 47.0375L92.8243 39.7751Z" fill="#337A6F"/>
<path d="M78.6361 62.3962C78.6101 62.3961 78.5844 62.3905 78.5612 62.3797C78.542 62.3707 78.5249 62.3583 78.5109 62.3432C78.4969 62.3282 78.4863 62.3107 78.4797 62.2919C78.473 62.2731 78.4705 62.2532 78.4722 62.2335C78.4739 62.2138 78.4799 62.1945 78.4897 62.1769L79.7566 59.8995C79.7664 59.8819 79.7799 59.8662 79.7963 59.8534C79.8127 59.8406 79.8317 59.8308 79.8522 59.8247C79.8727 59.8186 79.8944 59.8163 79.9159 59.8179C79.9374 59.8194 79.9583 59.8249 79.9775 59.8339C79.9967 59.8429 80.0138 59.8553 80.0278 59.8703C80.0418 59.8854 80.0524 59.9028 80.0591 59.9216C80.0657 59.9405 80.0683 59.9603 80.0665 59.98C80.0648 59.9998 80.0589 60.019 80.0491 60.0366L78.7822 62.314C78.7685 62.3387 78.7475 62.3595 78.7218 62.374C78.696 62.3885 78.6663 62.3962 78.6361 62.3962Z" fill="#0C0C0C"/>
<path d="M63.2265 59.8529L62.832 66.2307L63.1598 66.2478L63.5543 59.8699L63.2265 59.8529Z" fill="#0C0C0C"/>
<path d="M21.5909 13.6954C21.5909 13.6954 20.9855 20.7945 19.2111 23.3535C14.1027 30.721 12.5443 39.0533 17.5115 43.468C22.4786 47.8827 54.5108 48.2833 57.0624 38.2779C59.2117 29.8543 54.8391 28.8997 53.8601 21.9205C53.4173 18.7632 52.173 12.1389 52.173 12.1389" fill="#0A0A0A"/>
<path d="M48.908 36.6784C48.8528 36.6717 48.2392 46.0144 36.4109 45.1999C28.2225 44.6369 25.3029 36.6651 25.1151 36.6651C25.9979 36.4931 27.4848 36.2434 27.8768 36.0506C29.166 35.415 30.7615 34.7534 31.1772 32.4559C31.4168 31.1304 31.0104 24.3567 31.1355 23.0171L43.7047 25.5912C43.5291 28.4211 42.2999 34.9812 46.6082 36.1422C47.3252 36.3341 48.0974 36.5109 48.908 36.6784Z" fill="#A4664E"/>
<path opacity="0.52" d="M43.8811 33.4611C43.6843 32.8789 43.5574 32.2786 43.5029 31.6711C43.3646 30.2847 43.3921 28.8886 43.585 27.5077C41.0302 27.1913 38.6234 26.2237 36.6382 24.7148C36.4047 25.5059 35.1211 28.9623 35.4766 29.7136C36.1483 31.1343 39.3053 33.4611 43.8811 33.4611Z" fill="#0C0C0C"/>
<path d="M42.215 30.5207C37.2544 30.9081 30.8657 29.0211 29.6142 22.952L28.4845 17.4757C27.2327 11.4066 29.692 5.88336 35.9198 4.8019C42.1473 3.72045 47.8171 7.83209 49.0689 13.9012L49.5689 16.3256C50.0492 18.6545 51.0662 29.8296 42.215 30.5207Z" fill="#A4664E"/>
<path d="M47.7938 16.5902C48.2249 16.5902 48.5745 16.2695 48.5745 15.8738C48.5745 15.4782 48.2249 15.1575 47.7938 15.1575C47.3626 15.1575 47.0131 15.4782 47.0131 15.8738C47.0131 16.2695 47.3626 16.5902 47.7938 16.5902Z" fill="#0C0C0C"/>
<path d="M39.7961 17.5704C40.2272 17.5704 40.5768 17.2497 40.5768 16.854C40.5768 16.4584 40.2272 16.1377 39.7961 16.1377C39.3649 16.1377 39.0154 16.4584 39.0154 16.854C39.0154 17.2497 39.3649 17.5704 39.7961 17.5704Z" fill="#0C0C0C"/>
<path d="M44.1851 22.1054H44.1973C44.4495 22.0598 44.6989 22.0015 44.9441 21.9307C45.3102 21.8225 45.7902 21.6439 45.7275 21.3402C45.6562 20.9944 43.8545 17.4428 43.649 17.0388C43.6311 17.0035 43.5986 16.9762 43.5587 16.9629C43.5189 16.9496 43.4749 16.9514 43.4364 16.9679C43.398 16.9843 43.3682 17.0141 43.3537 17.0507C43.3392 17.0873 43.3412 17.1276 43.3591 17.1629C44.1277 18.6755 45.3654 21.1622 45.413 21.3951C45.3719 21.5029 44.7639 21.708 44.1378 21.8168C44.0967 21.8234 44.0601 21.8445 44.0357 21.8755C44.0113 21.9066 44.0011 21.9451 44.0072 21.983C44.0134 22.0209 44.0355 22.055 44.0687 22.0782C44.1019 22.1013 44.1437 22.1116 44.1851 22.1069V22.1054Z" fill="#0C0C0C"/>
<path d="M43.2629 24.7259C44.2787 24.6048 45.2493 24.2664 46.0965 23.7381C46.1321 23.7169 46.157 23.6836 46.1658 23.6455C46.1746 23.6074 46.1666 23.5677 46.1434 23.535C46.1203 23.5024 46.084 23.4795 46.0425 23.4715C46.001 23.4634 45.9577 23.4708 45.9222 23.492C44.0886 24.5882 42.2669 24.7653 40.6539 24.0041C40.6213 23.9879 40.5878 23.9733 40.5535 23.9604C40.5137 23.9475 40.47 23.9496 40.4319 23.9662C40.3937 23.9828 40.3643 24.0125 40.35 24.0489C40.3356 24.0853 40.3376 24.1254 40.3553 24.1605C40.3731 24.1957 40.4053 24.2229 40.4448 24.2363C40.4576 24.2412 40.4776 24.2514 40.5079 24.2665C41.3559 24.6678 42.3152 24.8278 43.2629 24.7259Z" fill="#0C0C0C"/>
<path d="M23.5027 19.3843L29.0837 18.4451C33.3116 16.8753 34.5903 10.1591 34.5903 10.1591C34.5903 10.1591 39.7275 14.7522 52.173 12.1404C52.173 12.1404 49.678 -3.78532 31.2912 0.843852C25.3625 2.3371 21.1074 7.81909 21.6392 15.1456C22.0089 20.2808 23.5027 19.3843 23.5027 19.3843Z" fill="#0A0A0A"/>
<path d="M30.3821 24.7338C28.4898 25.0624 26.5722 23.471 26.2127 21.7343C25.8532 19.9977 27.1914 18.7737 29.084 18.4451L30.2987 19.4392L32.0092 24.4512L30.3821 24.7338Z" fill="#A4664E"/>
<path d="M44.7894 14.1348C45.3415 13.8079 45.9792 13.6231 46.6358 13.5998C46.959 13.5867 47.2826 13.6181 47.5957 13.6929C47.9058 13.766 48.2046 13.8746 48.4851 14.0161C48.5246 14.034 48.5549 14.0655 48.5693 14.1037C48.5836 14.1419 48.581 14.1838 48.5618 14.2203C48.5427 14.2567 48.5086 14.2847 48.4671 14.2982C48.4255 14.3117 48.3799 14.3096 48.34 14.2924L48.3282 14.2872C48.0689 14.1704 47.7947 14.0839 47.512 14.0297C47.2324 13.9748 46.9454 13.959 46.6607 13.983C46.0961 14.0263 45.554 14.206 45.0895 14.5038L45.0744 14.5138C45.0477 14.5316 45.0175 14.5444 44.9854 14.5515C44.9533 14.5585 44.92 14.5597 44.8874 14.555C44.8548 14.5503 44.8236 14.5397 44.7954 14.5239C44.7673 14.5081 44.7428 14.4874 44.7234 14.4629C44.704 14.4384 44.6901 14.4106 44.6824 14.3812C44.6747 14.3518 44.6733 14.3212 44.6785 14.2913C44.6837 14.2614 44.6952 14.2327 44.7124 14.2069C44.7296 14.1811 44.7522 14.1586 44.7789 14.1408L44.7894 14.1348Z" fill="#0C0C0C"/>
<path d="M39.8106 15.2104C39.2602 15.087 38.6841 15.0992 38.1405 15.2456C37.8657 15.3178 37.6042 15.4277 37.3651 15.5716C37.1227 15.7162 36.9011 15.8882 36.7056 16.0837L36.6967 16.0918C36.6661 16.12 36.6247 16.1361 36.5814 16.1368C36.538 16.1376 36.4961 16.1228 36.4644 16.0957C36.4327 16.0685 36.4137 16.0312 36.4115 15.9914C36.4092 15.9517 36.4239 15.9127 36.4524 15.8827C36.6583 15.6577 36.8942 15.4574 37.1547 15.2866C37.4169 15.1127 37.7062 14.9761 38.0128 14.8814C38.6344 14.6854 39.3019 14.6463 39.9455 14.7682C40.0108 14.781 40.0679 14.8172 40.1042 14.8686C40.1404 14.9201 40.1529 14.9827 40.1389 15.0426C40.1249 15.1025 40.0855 15.1549 40.0294 15.1881C39.9733 15.2214 39.9051 15.2329 39.8398 15.22L39.8296 15.2179L39.8106 15.2104Z" fill="#0C0C0C"/>
<path d="M43.4789 26.1037C43.6629 26.0844 43.8448 26.0508 44.0226 26.0034C44.0431 25.9983 44.0622 25.9895 44.079 25.9776C44.0957 25.9656 44.1097 25.9507 44.1201 25.9338C44.1305 25.9168 44.1371 25.8982 44.1396 25.8788C44.142 25.8595 44.1403 25.8399 44.1344 25.8212C44.1286 25.8026 44.1187 25.7851 44.1055 25.7699C44.0922 25.7548 44.0758 25.7422 44.0571 25.7329C44.0385 25.7236 44.0181 25.7178 43.997 25.7158C43.9759 25.7138 43.9546 25.7157 43.9343 25.7214C42.8637 26.004 42.255 25.6295 42.2298 25.6133C42.1949 25.5909 42.1518 25.5821 42.11 25.5889C42.0681 25.5957 42.0309 25.6174 42.0065 25.6494C41.9821 25.6814 41.9726 25.7209 41.98 25.7593C41.9874 25.7977 42.0111 25.8319 42.0459 25.8543C42.4779 26.0866 42.9842 26.1747 43.4789 26.1037Z" fill="#0C0C0C"/>
<path d="M29.0975 18.3803L29.042 18.2384C36.1152 15.9083 34.3854 9.53913 34.3673 9.47497L34.5259 9.43701C34.5446 9.50208 36.3138 16.0029 29.0975 18.3803Z" fill="#0C0C0C"/>
<path opacity="0.1" d="M39.1657 22.5526C39.9823 22.472 40.5921 21.961 40.5276 21.4113C40.4632 20.8616 39.7489 20.4814 38.9323 20.562C38.1156 20.6426 37.5059 21.1536 37.5703 21.7033C37.6348 22.253 38.349 22.6332 39.1657 22.5526Z" fill="#0C0C0C"/>
<path opacity="0.1" d="M47.8097 20.4498C47.8754 20.9987 48.5898 21.3782 49.4066 21.2987C49.5477 21.2847 49.6869 21.2573 49.8219 21.2171C49.8679 20.564 49.878 19.9353 49.8646 19.353C49.6388 19.2988 49.404 19.2837 49.1722 19.3084C48.3554 19.3879 47.7461 19.8988 47.8097 20.4498Z" fill="#0C0C0C"/>
<path d="M63.6037 57.2464C63.231 61.2626 61.4188 86.3189 61.0606 91.2659H13.6634C13.3844 86.8042 10.1624 67.2943 9.10498 58.5695C8.09546 50.2438 6.11483 46.0755 7.56657 43.6141C9.93886 39.5913 16.4215 37.2669 20.8417 36.7178C23.541 36.3825 27.6004 36.1421 27.6004 36.1421C27.6004 36.1421 27.9441 42.5224 36.1404 42.8775C47.2977 43.3595 46.5528 36.1421 46.6079 36.1421C48.4155 36.1421 58.7412 37.1919 61.2675 38.5659C68.1513 42.3064 64.3945 48.7355 63.6037 57.2464Z" fill="#337A6F"/>
<path d="M94.3693 60.052L89.8007 80.4279C89.7078 80.8416 89.4632 81.2137 89.1076 81.4819C88.752 81.7502 88.3069 81.8985 87.8466 81.9022L56.387 82.148C56.0869 82.1503 55.79 82.091 55.5181 81.9745C55.2462 81.8579 55.0062 81.687 54.8156 81.4743C54.625 81.2616 54.4886 81.0124 54.4165 80.7451C54.3444 80.4778 54.3384 80.1991 54.3988 79.9294L58.9674 59.5534C59.0604 59.1397 59.305 58.7677 59.6606 58.4995C60.0161 58.2312 60.4612 58.0828 60.9215 58.0791L92.3811 57.8333C92.6812 57.831 92.9781 57.8903 93.25 58.0069C93.5219 58.1234 93.7619 58.2943 93.9525 58.507C94.1431 58.7197 94.2795 58.9689 94.3516 59.2362C94.4237 59.5035 94.4297 59.7822 94.3693 60.052Z" fill="#292A2E"/>
<path d="M65.0341 74.5249C65.0509 74.7932 64.9615 75.0581 64.7823 75.2707C64.6032 75.4834 64.3463 75.6294 64.059 75.682L63.0905 75.8778C63.1078 75.883 63.1235 75.8921 63.1361 75.9042C63.1487 75.9163 63.1578 75.931 63.1628 75.9471C63.1651 75.966 63.1605 75.9851 63.1496 76.0013C63.3825 76.0613 63.5892 76.1864 63.741 76.3591C63.8928 76.5319 63.9821 76.7438 63.9967 76.9653C63.998 77.2234 63.9045 77.4745 63.7311 77.6778C63.5578 77.8812 63.3147 78.025 63.0413 78.0859L54.8634 79.7518C54.4453 79.838 54.0181 79.8814 53.5896 79.8813C52.6351 79.8811 51.6949 79.668 50.8502 79.2602C50.0055 78.8524 49.2815 78.2623 48.7406 77.5407C48.1671 76.7771 47.9409 75.8384 48.1101 74.9242C48.2793 74.01 48.8306 73.1924 49.6467 72.6455L56.6034 67.9793C56.7565 67.8764 56.9344 67.8093 57.1221 67.7834L56.4819 70.6362L56.6526 70.6001L56.6887 70.594L62.0236 69.5969C62.6178 69.4764 63.432 69.6752 63.537 70.2958C63.5933 70.5334 63.5604 70.7814 63.4436 70.9997C63.3268 71.2179 63.1329 71.3934 62.8936 71.4978C62.8969 71.5008 62.9034 71.5038 62.9034 71.5098C62.9034 71.5158 62.9001 71.5188 62.9001 71.5249L63.8227 71.3381C63.9914 71.3037 64.1664 71.3042 64.335 71.3394C64.5036 71.3746 64.6615 71.4436 64.7975 71.5416C64.9335 71.6396 65.0441 71.764 65.1213 71.9059C65.1986 72.0478 65.2405 72.2037 65.2442 72.3623C65.2442 72.6155 65.1487 72.8609 64.974 73.057C64.7992 73.253 64.556 73.3875 64.2856 73.4377L63.8883 73.5191C63.885 73.5311 63.8883 73.5432 63.8817 73.5522C64.1711 73.5542 64.4494 73.6549 64.6624 73.8346C64.8754 74.0144 65.0078 74.2605 65.0341 74.5249Z" fill="#A4664E"/>
<g opacity="0.25">
<path d="M57.5893 72.5135C57.5956 72.5387 57.6124 72.5605 57.6361 72.5745C57.6598 72.5884 57.6884 72.5934 57.716 72.5882L62.8204 71.6279C62.8348 71.6258 62.8486 71.621 62.8609 71.6139C62.8732 71.6067 62.8838 71.5974 62.8921 71.5864C62.9004 71.5754 62.9062 71.5629 62.9091 71.5498C62.912 71.5367 62.912 71.5232 62.9091 71.5101C62.9062 71.497 62.9004 71.4846 62.8921 71.4736C62.8838 71.4626 62.8731 71.4533 62.8608 71.4461C62.8485 71.439 62.8347 71.4343 62.8203 71.4321C62.8059 71.43 62.7912 71.4306 62.777 71.4339L57.6727 72.3945C57.6446 72.3998 57.62 72.4151 57.6043 72.437C57.5885 72.4589 57.5829 72.4857 57.5886 72.5114L57.5893 72.5135Z" fill="#0C0C0C"/>
</g>
<g opacity="0.25">
<path d="M57.9887 74.591C57.995 74.6161 58.0117 74.6381 58.0354 74.652C58.0591 74.666 58.0878 74.6709 58.1154 74.6657L63.812 73.5939C63.84 73.5885 63.8646 73.5732 63.8803 73.5513C63.896 73.5294 63.9017 73.5027 63.8961 73.477C63.8894 73.4517 63.8726 73.4297 63.8489 73.4154C63.8253 73.4011 63.7966 73.3956 63.7687 73.3999L58.0721 74.472C58.044 74.4773 58.0195 74.4926 58.0037 74.5145C57.9879 74.5364 57.9823 74.5631 57.988 74.5889L57.9887 74.591Z" fill="#0C0C0C"/>
</g>
<g opacity="0.25">
<path d="M58.4074 76.8434C58.4137 76.8685 58.4305 76.8904 58.4542 76.9044C58.4779 76.9183 58.5065 76.9232 58.5341 76.9181L63.0781 76.0632C63.0925 76.0611 63.1063 76.0563 63.1186 76.0492C63.1309 76.042 63.1415 76.0327 63.1498 76.0217C63.1581 76.0107 63.1639 75.9982 63.1668 75.9851C63.1697 75.972 63.1697 75.9585 63.1668 75.9454C63.1639 75.9323 63.1581 75.9199 63.1498 75.9089C63.1415 75.8979 63.1308 75.8886 63.1185 75.8814C63.1062 75.8743 63.0924 75.8696 63.078 75.8674C63.0636 75.8653 63.0489 75.8659 63.0348 75.8692L58.4908 76.7244C58.4769 76.727 58.4637 76.7321 58.452 76.7393C58.4403 76.7466 58.4302 76.7559 58.4224 76.7667C58.4146 76.7775 58.4092 76.7897 58.4065 76.8024C58.4038 76.8152 58.4039 76.8283 58.4067 76.841L58.4074 76.8434Z" fill="#0C0C0C"/>
</g>
<path d="M54.3568 82.7211L9.98875 90.0777C8.60423 90.2161 7.20362 90.0581 5.89682 89.6163C4.59002 89.1744 3.41259 88.4607 2.45691 87.5312C1.50124 86.6016 0.793325 85.4815 0.388729 84.2587C-0.0158675 83.0359 -0.106141 81.7437 0.124993 80.4835L6.33609 46.6069C6.73269 44.4437 8.04954 42.5137 9.99694 41.2415C11.9443 39.9693 14.3628 39.459 16.7202 39.8229C19.0776 40.1868 21.1809 41.3951 22.5675 43.182C23.954 44.9689 24.5101 47.188 24.1135 49.3512L19.8784 72.6717L52.406 68.9243L54.3568 82.7211Z" fill="#337A6F"/>
<path d="M9.98838 90.2284C9.94742 90.2283 9.90797 90.2142 9.87778 90.1888C9.84759 90.1634 9.82885 90.1286 9.82523 90.0911C9.82161 90.0537 9.83338 90.0163 9.85822 89.9865C9.88306 89.9566 9.91918 89.9363 9.95949 89.9296L54.1739 82.598L52.2651 69.0915L19.8984 72.8212C19.8731 72.8244 19.8472 72.8219 19.8231 72.8141C19.7989 72.8063 19.7772 72.7934 19.7596 72.7763C19.7418 72.7594 19.7286 72.7389 19.721 72.7165C19.7134 72.694 19.7117 72.6703 19.7159 72.6471L22.4079 57.7426C22.4114 57.7231 22.4191 57.7044 22.4305 57.6876C22.4419 57.6707 22.4568 57.6562 22.4743 57.6446C22.4918 57.6331 22.5117 57.6249 22.5327 57.6204C22.5537 57.6159 22.5754 57.6152 22.5967 57.6185C22.618 57.6217 22.6384 57.6287 22.6568 57.6392C22.6751 57.6497 22.691 57.6634 22.7036 57.6795C22.7162 57.6956 22.7251 57.7138 22.73 57.7331C22.7349 57.7524 22.7355 57.7724 22.732 57.792L20.0757 72.4971L52.3856 68.7737C52.4286 68.7688 52.4721 68.7797 52.5064 68.804C52.5407 68.8283 52.5632 68.8641 52.5688 68.9036L54.5196 82.7004C54.525 82.7388 54.5142 82.7776 54.4893 82.8088C54.4645 82.8401 54.4274 82.8613 54.3859 82.8682L10.0179 90.2263C10.0081 90.2276 9.99827 90.2283 9.98838 90.2284Z" fill="#0C0C0C"/>
<path d="M19.8524 72.5234L16.9984 72.9426L17.0504 73.2404L19.9044 72.8211L19.8524 72.5234Z" fill="#0C0C0C"/>
<path d="M252.722 232H3.07673C3.01578 232 2.95733 231.978 2.91423 231.938C2.87114 231.899 2.84692 231.845 2.84692 231.789C2.84692 231.733 2.87114 231.68 2.91423 231.64C2.95733 231.6 3.01578 231.578 3.07673 231.578H252.722C252.752 231.578 252.782 231.584 252.81 231.594C252.838 231.605 252.863 231.62 252.884 231.64C252.906 231.66 252.923 231.683 252.934 231.708C252.946 231.734 252.952 231.761 252.952 231.789C252.952 231.817 252.946 231.844 252.934 231.87C252.923 231.895 252.906 231.919 252.884 231.938C252.863 231.958 252.838 231.973 252.81 231.984C252.782 231.995 252.752 232 252.722 232Z" fill="#292A2E"/>
<path d="M240.862 199.525C240.826 199.526 240.791 199.519 240.758 199.507C240.726 199.494 240.696 199.476 240.671 199.453C240.291 199.104 239.671 192.703 238.002 173.644C237.318 165.846 236.673 158.48 236.202 154.003C236.169 153.684 236.034 153.646 235.989 153.634C235.345 153.456 233.384 154.874 232.29 156.116C232.245 156.167 232.18 156.2 232.109 156.207C232.037 156.214 231.966 156.194 231.91 156.153C231.855 156.112 231.819 156.052 231.812 155.986C231.804 155.921 231.825 155.856 231.87 155.805C232.592 154.983 234.953 152.831 236.144 153.16C236.324 153.216 236.478 153.324 236.586 153.467C236.693 153.611 236.747 153.782 236.74 153.956C237.211 158.436 237.856 165.804 238.54 173.604C239.554 185.186 240.703 198.306 241.081 199.133C241.11 199.17 241.127 199.214 241.13 199.259C241.134 199.304 241.124 199.35 241.101 199.39C241.078 199.43 241.044 199.464 241.002 199.488C240.96 199.512 240.911 199.524 240.862 199.525V199.525Z" fill="#494949"/>
<path d="M235.509 162.218C239.987 158.924 241.471 153.797 238.824 150.767C236.177 147.736 230.4 147.95 225.922 151.244C221.444 154.537 219.96 159.664 222.607 162.694C225.254 165.725 231.03 165.511 235.509 162.218Z" fill="#0CBC8B"/>
<path opacity="0.2" d="M235.509 162.218C239.987 158.924 241.471 153.797 238.824 150.767C236.177 147.736 230.4 147.95 225.922 151.244C221.444 154.537 219.96 159.664 222.607 162.694C225.254 165.725 231.03 165.511 235.509 162.218Z" fill="white"/>
<path d="M223.862 163.466C223.837 163.466 223.811 163.459 223.79 163.446C223.768 163.434 223.751 163.416 223.74 163.395C223.729 163.373 223.725 163.35 223.728 163.326C223.732 163.303 223.742 163.281 223.759 163.263L236.521 149.141C236.544 149.116 236.577 149.1 236.613 149.097C236.648 149.094 236.684 149.104 236.711 149.125C236.739 149.146 236.756 149.176 236.759 149.209C236.763 149.241 236.752 149.274 236.729 149.299L223.966 163.421C223.953 163.435 223.937 163.446 223.919 163.454C223.902 163.462 223.882 163.466 223.862 163.466Z" fill="white"/>
<path d="M243.645 196.498C243.615 196.498 243.585 196.493 243.557 196.484C243.523 196.474 243.492 196.457 243.466 196.435C243.439 196.414 243.418 196.388 243.402 196.358C243.387 196.329 243.378 196.297 243.376 196.265C243.374 196.232 243.379 196.2 243.39 196.169L248.184 183.518C248.325 183.147 248.565 182.813 248.883 182.549C249.201 182.284 249.586 182.097 250.003 182.005C250.42 181.913 250.856 181.918 251.27 182.02C251.684 182.122 252.064 182.318 252.374 182.59L254.909 184.812C254.961 184.857 254.991 184.92 254.992 184.985C254.994 185.051 254.967 185.115 254.918 185.162C254.868 185.21 254.8 185.237 254.729 185.239C254.657 185.24 254.588 185.216 254.536 185.17L252.001 182.949C251.757 182.734 251.457 182.579 251.13 182.498C250.803 182.418 250.459 182.414 250.129 182.486C249.8 182.559 249.496 182.707 249.245 182.916C248.994 183.124 248.804 183.388 248.693 183.681L243.9 196.333C243.881 196.382 243.847 196.423 243.801 196.453C243.756 196.482 243.701 196.498 243.645 196.498Z" fill="#494949"/>
<path d="M261.991 191.817C265.31 189.406 265.112 184.105 261.55 179.976C257.988 175.846 252.41 174.453 249.091 176.863C245.773 179.274 245.97 184.575 249.532 188.705C253.094 192.834 258.672 194.227 261.991 191.817Z" fill="#0CBC8B"/>
<path d="M238.684 198.719C238.623 198.719 238.564 198.7 238.516 198.666C238.469 198.631 238.435 198.583 238.421 198.529L230.378 167.663C230.323 167.453 230.206 167.26 230.04 167.107C229.873 166.954 229.664 166.845 229.435 166.794C229.206 166.743 228.966 166.75 228.741 166.816C228.516 166.882 228.316 167.003 228.161 167.167L225.681 169.797C225.635 169.846 225.568 169.877 225.497 169.882C225.425 169.886 225.355 169.865 225.301 169.822C225.247 169.779 225.213 169.718 225.208 169.653C225.203 169.587 225.226 169.522 225.273 169.473L227.753 166.843C227.973 166.611 228.258 166.438 228.577 166.345C228.896 166.251 229.237 166.24 229.563 166.313C229.888 166.386 230.186 166.54 230.422 166.758C230.658 166.976 230.825 167.249 230.903 167.548L238.946 198.414C238.954 198.445 238.956 198.478 238.95 198.51C238.945 198.543 238.932 198.573 238.914 198.601C238.895 198.629 238.871 198.653 238.842 198.672C238.813 198.691 238.781 198.705 238.746 198.712C238.726 198.717 238.705 198.719 238.684 198.719Z" fill="#494949"/>
<path d="M235.717 176.655C236.695 171.465 234.106 166.722 229.936 166.06C225.765 165.398 221.591 169.069 220.613 174.258C219.635 179.447 222.223 184.191 226.394 184.852C230.565 185.514 234.739 181.844 235.717 176.655Z" fill="#0CBC8B"/>
<path d="M240.862 199.526C240.851 199.526 240.84 199.525 240.829 199.524C240.758 199.516 240.694 199.482 240.649 199.431C240.605 199.379 240.586 199.313 240.594 199.248L245.732 160.975C245.788 160.558 245.974 160.165 246.268 159.843C246.561 159.52 246.95 159.283 247.387 159.158C247.825 159.034 248.292 159.028 248.733 159.142C249.173 159.255 249.569 159.483 249.872 159.798L255.744 165.901C255.769 165.925 255.787 165.953 255.799 165.984C255.812 166.015 255.817 166.048 255.815 166.081C255.813 166.114 255.804 166.146 255.789 166.176C255.773 166.206 255.751 166.232 255.724 166.254C255.697 166.276 255.666 166.292 255.632 166.303C255.598 166.313 255.562 166.318 255.526 166.315C255.49 166.313 255.455 166.304 255.423 166.289C255.391 166.274 255.363 166.253 255.34 166.228L249.468 160.126C249.233 159.883 248.927 159.708 248.587 159.621C248.246 159.533 247.886 159.538 247.548 159.634C247.21 159.73 246.91 159.913 246.683 160.162C246.456 160.41 246.312 160.714 246.268 161.036L241.131 199.308C241.123 199.368 241.091 199.424 241.041 199.464C240.992 199.504 240.928 199.526 240.862 199.526Z" fill="#494949"/>
<path d="M261.766 169.292C263.814 165.893 261.404 161.072 256.382 158.523C251.359 155.974 245.627 156.662 243.579 160.061C241.53 163.459 243.94 168.281 248.963 170.83C253.985 173.379 259.717 172.69 261.766 169.292Z" fill="#0CBC8B"/>
<path opacity="0.2" d="M261.991 191.817C265.31 189.406 265.112 184.105 261.55 179.976C257.988 175.846 252.41 174.453 249.091 176.863C245.773 179.274 245.97 184.575 249.532 188.705C253.094 192.834 258.672 194.227 261.991 191.817Z" fill="white"/>
<path opacity="0.5" d="M235.717 176.655C236.695 171.465 234.106 166.722 229.936 166.06C225.765 165.398 221.591 169.069 220.613 174.258C219.635 179.447 222.223 184.191 226.394 184.852C230.565 185.514 234.739 181.844 235.717 176.655Z" fill="white"/>
<path opacity="0.5" d="M261.766 169.292C263.814 165.893 261.404 161.072 256.382 158.523C251.359 155.974 245.627 156.662 243.579 160.061C241.53 163.459 243.94 168.281 248.963 170.83C253.985 173.379 259.717 172.69 261.766 169.292Z" fill="white"/>
<path d="M247.433 232H234.291L232.113 193.418H249.61L247.433 232Z" fill="#292A2E"/>
<path opacity="0.3" d="M247.433 232H234.291L232.113 193.418H249.61L247.433 232Z" fill="white"/>
<path d="M261.991 191.938C261.97 191.938 261.95 191.934 261.932 191.926C261.913 191.918 261.897 191.906 261.884 191.891L248.985 176.937C248.962 176.911 248.952 176.879 248.956 176.846C248.961 176.813 248.979 176.784 249.007 176.763C249.035 176.743 249.071 176.734 249.106 176.737C249.142 176.741 249.174 176.758 249.196 176.784L262.096 191.737C262.112 191.755 262.122 191.777 262.125 191.8C262.127 191.823 262.123 191.847 262.112 191.868C262.101 191.889 262.084 191.906 262.062 191.919C262.041 191.931 262.016 191.938 261.99 191.938L261.991 191.938Z" fill="white"/>
<path d="M260.908 170.49C260.879 170.49 260.851 170.481 260.828 170.466L244.32 159.406C244.305 159.397 244.292 159.385 244.283 159.371C244.273 159.357 244.266 159.341 244.263 159.325C244.26 159.308 244.26 159.291 244.265 159.275C244.269 159.259 244.276 159.244 244.287 159.23C244.298 159.217 244.311 159.206 244.327 159.197C244.342 159.189 244.36 159.183 244.378 159.181C244.396 159.179 244.414 159.18 244.431 159.184C244.449 159.188 244.465 159.196 244.479 159.206L260.986 170.266C261.009 170.281 261.027 170.303 261.035 170.328C261.044 170.353 261.044 170.379 261.035 170.404C261.026 170.429 261.009 170.451 260.986 170.466C260.963 170.481 260.935 170.49 260.907 170.49H260.908Z" fill="white"/>
<path d="M225.723 184.691C225.712 184.691 225.7 184.69 225.688 184.687C225.654 184.679 225.625 184.658 225.607 184.63C225.589 184.602 225.584 184.568 225.593 184.537L230.848 166.471C230.858 166.44 230.88 166.414 230.911 166.398C230.942 166.382 230.978 166.378 231.012 166.386C231.046 166.395 231.076 166.415 231.094 166.443C231.112 166.471 231.117 166.504 231.109 166.535L225.853 184.599C225.846 184.625 225.829 184.649 225.806 184.665C225.782 184.682 225.753 184.691 225.723 184.691Z" fill="white"/>
</svg>
