<svg width="235" height="232" viewBox="0 0 235 232" fill="none" xmlns="http://www.w3.org/2000/svg">
<g clip-path="url(#clip0_475_1010)">
<path d="M169.899 0H79.6631C72.1983 0 66.1469 5.21894 66.1469 11.6568V194.6C66.1469 201.038 72.1983 206.256 79.6631 206.256H169.899C177.364 206.256 183.415 201.038 183.415 194.6V11.6568C183.415 5.21894 177.364 0 169.899 0Z" fill="#292A2E"/>
<path d="M169.856 3.63989H79.7055C74.5796 3.63989 70.4243 7.22358 70.4243 11.6443V194.34C70.4243 198.761 74.5796 202.344 79.7055 202.344H169.856C174.982 202.344 179.138 198.761 179.138 194.34V11.6443C179.138 7.22358 174.982 3.63989 169.856 3.63989Z" fill="white"/>
<path d="M102.516 2.13501H147.045V6.10881C147.045 7.24833 146.52 8.3412 145.586 9.14707C144.652 9.95293 143.385 10.4058 142.063 10.4061H107.498C106.177 10.4061 104.91 9.95333 103.975 9.14744C103.041 8.34154 102.516 7.24852 102.516 6.10881V2.13501Z" fill="#292A2E"/>
<g opacity="0.15">
<path d="M169.377 64.9872H80.184C78.9512 64.986 77.7693 64.5631 76.8976 63.8113C76.0259 63.0595 75.5356 62.0402 75.5342 60.977V20.3981C75.5356 19.3349 76.0259 18.3156 76.8976 17.5638C77.7693 16.812 78.9512 16.3891 80.184 16.3879H169.377C170.61 16.3891 171.792 16.812 172.664 17.5638C173.536 18.3156 174.026 19.3349 174.027 20.3981V60.977C174.026 62.0402 173.536 63.0595 172.664 63.8113C171.792 64.5631 170.61 64.986 169.377 64.9872ZM80.184 16.9187C79.1145 16.9199 78.0892 17.2868 77.333 17.9391C76.5768 18.5914 76.1514 19.4757 76.1502 20.3981V60.977C76.1513 61.8994 76.5766 62.7838 77.3329 63.4361C78.0891 64.0883 79.1144 64.4553 80.184 64.4564H169.377C170.447 64.4554 171.473 64.0885 172.229 63.4362C172.985 62.7839 173.411 61.8995 173.412 60.977V20.3981C173.411 19.4756 172.985 18.5912 172.229 17.9389C171.473 17.2866 170.447 16.9197 169.377 16.9187H80.184Z" fill="#292A2E"/>
</g>
<g opacity="0.43">
<path d="M126.881 27.7846C128.477 27.7846 129.77 26.6689 129.77 25.2926C129.77 23.9163 128.477 22.8005 126.881 22.8005C125.285 22.8005 123.991 23.9163 123.991 25.2926C123.991 26.6689 125.285 27.7846 126.881 27.7846Z" fill="#337A6F"/>
<path d="M136.112 27.7846C137.707 27.7846 139.001 26.6689 139.001 25.2926C139.001 23.9163 137.707 22.8005 136.112 22.8005C134.516 22.8005 133.222 23.9163 133.222 25.2926C133.222 26.6689 134.516 27.7846 136.112 27.7846Z" fill="#337A6F"/>
<path d="M145.342 27.7846C146.938 27.7846 148.232 26.6689 148.232 25.2926C148.232 23.9163 146.938 22.8005 145.342 22.8005C143.746 22.8005 142.453 23.9163 142.453 25.2926C142.453 26.6689 143.746 27.7846 145.342 27.7846Z" fill="#337A6F"/>
<path d="M154.573 27.7846C156.169 27.7846 157.462 26.6689 157.462 25.2926C157.462 23.9163 156.169 22.8005 154.573 22.8005C152.977 22.8005 151.683 23.9163 151.683 25.2926C151.683 26.6689 152.977 27.7846 154.573 27.7846Z" fill="#337A6F"/>
<path d="M163.804 27.7846C165.399 27.7846 166.693 26.6689 166.693 25.2926C166.693 23.9163 165.399 22.8005 163.804 22.8005C162.208 22.8005 160.914 23.9163 160.914 25.2926C160.914 26.6689 162.208 27.7846 163.804 27.7846Z" fill="#337A6F"/>
</g>
<g opacity="0.15">
<path d="M166.693 33.002H124.781V33.5327H166.693V33.002Z" fill="#292A2E"/>
</g>
<g opacity="0.15">
<path d="M166.693 38.3093H124.781V38.8401H166.693V38.3093Z" fill="#292A2E"/>
</g>
<g opacity="0.15">
<path d="M147.046 43.6165H124.781V44.1472H147.046V43.6165Z" fill="#292A2E"/>
</g>
<g opacity="0.15">
<path d="M167.001 58.0932H152.687V54.1616H167.001V58.0932ZM153.302 57.5625H166.386V54.6923H153.302V57.5625Z" fill="#292A2E"/>
</g>
<path d="M146.953 54.4268H133.254V57.8276H146.953V54.4268Z" fill="#0CBC8B"/>
<g opacity="0.15">
<path d="M169.377 122.128H80.184C78.9513 122.127 77.7694 121.704 76.8977 120.952C76.026 120.201 75.5356 119.182 75.5342 118.118V77.5389C75.5357 76.4758 76.0261 75.4567 76.8978 74.705C77.7695 73.9533 78.9513 73.5305 80.184 73.5293H169.377C170.61 73.5305 171.792 73.9533 172.664 74.705C173.535 75.4567 174.026 76.4758 174.027 77.5389V118.118C174.026 119.182 173.535 120.201 172.664 120.952C171.792 121.704 170.61 122.127 169.377 122.128ZM80.184 74.06C79.1146 74.0612 78.0894 74.4281 77.3332 75.0803C76.577 75.7324 76.1516 76.6166 76.1502 77.5389V118.118C76.1514 119.041 76.5768 119.925 77.333 120.577C78.0892 121.229 79.1145 121.596 80.184 121.598H169.377C170.447 121.597 171.472 121.23 172.229 120.577C172.985 119.925 173.411 119.041 173.412 118.118V77.5389C173.411 76.6164 172.985 75.732 172.229 75.0798C171.473 74.4275 170.447 74.0605 169.377 74.0595L80.184 74.06Z" fill="#292A2E"/>
</g>
<g opacity="0.43">
<path d="M126.881 84.9259C128.477 84.9259 129.77 83.8102 129.77 82.4339C129.77 81.0576 128.477 79.9419 126.881 79.9419C125.285 79.9419 123.991 81.0576 123.991 82.4339C123.991 83.8102 125.285 84.9259 126.881 84.9259Z" fill="#337A6F"/>
<path d="M136.112 84.9259C137.707 84.9259 139.001 83.8102 139.001 82.4339C139.001 81.0576 137.707 79.9419 136.112 79.9419C134.516 79.9419 133.222 81.0576 133.222 82.4339C133.222 83.8102 134.516 84.9259 136.112 84.9259Z" fill="#337A6F"/>
<path d="M145.342 84.9259C146.938 84.9259 148.232 83.8102 148.232 82.4339C148.232 81.0576 146.938 79.9419 145.342 79.9419C143.746 79.9419 142.453 81.0576 142.453 82.4339C142.453 83.8102 143.746 84.9259 145.342 84.9259Z" fill="#337A6F"/>
<path d="M154.573 84.9259C156.169 84.9259 157.462 83.8102 157.462 82.4339C157.462 81.0576 156.169 79.9419 154.573 79.9419C152.977 79.9419 151.683 81.0576 151.683 82.4339C151.683 83.8102 152.977 84.9259 154.573 84.9259Z" fill="#337A6F"/>
<path d="M163.804 84.9259C165.399 84.9259 166.693 83.8102 166.693 82.4339C166.693 81.0576 165.399 79.9419 163.804 79.9419C162.208 79.9419 160.914 81.0576 160.914 82.4339C160.914 83.8102 162.208 84.9259 163.804 84.9259Z" fill="#337A6F"/>
</g>
<g opacity="0.15">
<path d="M166.693 90.1431H124.781V90.6738H166.693V90.1431Z" fill="#292A2E"/>
</g>
<g opacity="0.15">
<path d="M166.693 95.4504H124.781V95.9812H166.693V95.4504Z" fill="#292A2E"/>
</g>
<g opacity="0.15">
<path d="M147.046 100.758H124.781V101.288H147.046V100.758Z" fill="#292A2E"/>
</g>
<g opacity="0.15">
<path d="M167.001 115.234H152.687V111.303H167.001V115.234ZM153.302 114.704H166.386V111.833H153.302V114.704Z" fill="#292A2E"/>
</g>
<path d="M146.953 111.568H133.254V114.969H146.953V111.568Z" fill="#0CBC8B"/>
<path opacity="0.48" d="M113.58 89.2223C112.582 88.1571 110.382 87.4775 107.813 86.9388C106.768 86.7204 106.061 86.6382 106.061 86.6382C105.234 88.4456 102.678 89.7538 100.425 89.7541H100.269C98.0158 89.7541 95.5918 88.4456 94.7644 86.6382C94.7644 86.6382 94.0568 86.7202 93.0106 86.9388C90.4411 87.4775 88.2414 88.1571 87.2436 89.2223C85.7094 90.8588 83.5624 97.0189 83.5624 97.0189L89.7873 99.2559C89.8353 99.3675 89.8824 99.4794 89.9288 99.5916C89.962 99.6717 89.9948 99.7518 90.0273 99.8317C90.0242 99.8238 90.0208 99.8161 90.0177 99.8081C90.0254 99.8267 90.0331 99.8458 90.0402 99.8646C91.1059 102.578 91.8449 105.379 92.2457 108.224C92.2725 108.216 108.549 108.216 108.575 108.224C108.976 105.379 109.715 102.578 110.781 99.8646C110.789 99.8458 110.796 99.8269 110.804 99.8081C110.833 99.7359 110.863 99.6637 110.893 99.5916C110.939 99.4796 110.986 99.3677 111.034 99.2559L117.259 97.0189C117.259 97.0189 115.114 90.8601 113.58 89.2223Z" fill="white"/>
<g opacity="0.15">
<path d="M169.377 178.473H80.184C78.9512 178.472 77.7693 178.049 76.8976 177.297C76.0259 176.545 75.5356 175.526 75.5342 174.463V133.884C75.5356 132.821 76.026 131.801 76.8977 131.05C77.7694 130.298 78.9513 129.875 80.184 129.874H169.377C170.61 129.875 171.792 130.298 172.664 131.05C173.535 131.801 174.026 132.821 174.027 133.884V174.463C174.026 175.526 173.536 176.545 172.664 177.297C171.792 178.049 170.61 178.472 169.377 178.473ZM80.184 130.405C79.1144 130.406 78.089 130.772 77.3327 131.425C76.5763 132.077 76.1509 132.961 76.1496 133.884V174.463C76.1507 175.385 76.5761 176.27 77.3325 176.922C78.0888 177.574 79.1143 177.941 80.184 177.942H169.377C170.447 177.941 171.473 177.574 172.229 176.922C172.985 176.27 173.411 175.385 173.412 174.463V133.884C173.411 132.961 172.985 132.077 172.229 131.425C171.472 130.772 170.447 130.406 169.377 130.405H80.184Z" fill="#292A2E"/>
</g>
<g opacity="0.43">
<path d="M126.881 141.27C128.477 141.27 129.77 140.154 129.77 138.778C129.77 137.402 128.477 136.286 126.881 136.286C125.285 136.286 123.991 137.402 123.991 138.778C123.991 140.154 125.285 141.27 126.881 141.27Z" fill="#337A6F"/>
<path d="M136.112 141.27C137.707 141.27 139.001 140.154 139.001 138.778C139.001 137.402 137.707 136.286 136.112 136.286C134.516 136.286 133.222 137.402 133.222 138.778C133.222 140.154 134.516 141.27 136.112 141.27Z" fill="#337A6F"/>
<path d="M145.342 141.27C146.938 141.27 148.232 140.154 148.232 138.778C148.232 137.402 146.938 136.286 145.342 136.286C143.746 136.286 142.453 137.402 142.453 138.778C142.453 140.154 143.746 141.27 145.342 141.27Z" fill="#337A6F"/>
<path d="M154.573 141.27C156.169 141.27 157.462 140.154 157.462 138.778C157.462 137.402 156.169 136.286 154.573 136.286C152.977 136.286 151.683 137.402 151.683 138.778C151.683 140.154 152.977 141.27 154.573 141.27Z" fill="#337A6F"/>
<path d="M163.804 141.27C165.399 141.27 166.693 140.154 166.693 138.778C166.693 137.402 165.399 136.286 163.804 136.286C162.208 136.286 160.914 137.402 160.914 138.778C160.914 140.154 162.208 141.27 163.804 141.27Z" fill="#337A6F"/>
</g>
<g opacity="0.15">
<path d="M166.693 146.488H124.781V147.018H166.693V146.488Z" fill="#292A2E"/>
</g>
<g opacity="0.15">
<path d="M166.693 151.795H124.781V152.326H166.693V151.795Z" fill="#292A2E"/>
</g>
<g opacity="0.15">
<path d="M147.046 157.102H124.781V157.633H147.046V157.102Z" fill="#292A2E"/>
</g>
<g opacity="0.15">
<path d="M167.001 171.579H152.687V167.647H167.001V171.579ZM153.302 171.048H166.386V168.178H153.302V171.048Z" fill="#292A2E"/>
</g>
<path d="M146.953 167.912H133.254V171.313H146.953V167.912Z" fill="#0CBC8B"/>
<path opacity="0.48" d="M108.99 168.175C109.155 168.175 109.318 168.142 109.466 168.079C109.614 168.017 109.744 167.926 109.845 167.814C109.946 167.702 110.017 167.571 110.051 167.432C110.086 167.293 110.083 167.149 110.043 167.011C108.938 163.048 108.854 155.588 109.807 152.382L110.863 148.834L110.861 148.817C110.879 148.695 110.866 148.572 110.821 148.456C110.776 148.339 110.701 148.234 110.602 148.146C106.612 144.614 107.138 140.987 107.138 140.987H105.418C105.529 141.842 105.464 142.707 105.226 143.542C104.795 145.008 103.649 146.635 100.743 147.026C99.8201 147.145 98.8814 147.145 97.958 147.026C95.0525 146.635 93.9063 145.008 93.4755 143.542C93.2371 142.707 93.1722 141.842 93.2838 140.987H91.5648C91.5648 140.987 92.0897 144.614 88.0993 148.145C88.0002 148.233 87.9255 148.339 87.8807 148.455C87.8358 148.572 87.8221 148.695 87.8405 148.817L87.826 148.833L88.8814 152.381C89.8353 155.588 89.751 163.049 88.646 167.011C88.6063 167.149 88.6034 167.293 88.6377 167.432C88.672 167.571 88.7425 167.702 88.8438 167.814C88.9452 167.926 89.0748 168.017 89.2229 168.079C89.3709 168.142 89.5335 168.174 89.6983 168.175L108.99 168.175Z" fill="white"/>
<path d="M208.622 220.26C208.622 220.26 207.233 226.469 200.491 226.817C193.748 227.164 195.21 231.795 195.21 231.795H220.976V220.693L208.622 220.26Z" fill="#337A6F"/>
<path d="M216.57 106.969C216.57 106.969 216.489 105.102 216.506 109.337C216.57 125.134 216.888 143.177 217.664 153.736C218.912 170.71 222.113 224.224 222.113 224.224L205.182 224.101L188.772 106.327L216.57 106.969Z" fill="#262626"/>
<path d="M197.45 125.596C197.45 125.596 196.748 137.06 196.619 139.751C196.319 145.975 196.214 152.419 196.214 159.725L193.545 140.572C193.545 140.572 195.497 134.57 197.45 125.596Z" fill="#0A0A0A"/>
<path d="M178.481 220.26C178.481 220.26 177.092 226.469 170.349 226.817C163.607 227.164 165.069 231.795 165.069 231.795H190.834V220.693L178.481 220.26Z" fill="#337A6F"/>
<path d="M170.283 108.196C170.283 108.196 168.783 162.185 169.003 164.824L175.3 223.814L191.95 224.079L190.328 162.69C190.328 162.69 191.472 145.755 196.217 130.031C198.644 121.96 200.105 113.696 200.576 105.368L170.283 108.196Z" fill="#262626"/>
<path d="M216.754 106.968L216.809 106.97C216.809 106.97 216.769 106.049 216.754 106.968Z" fill="#333333"/>
<path d="M167.9 78.2289C168.249 81.7667 169.947 103.839 170.283 108.197H216.552C216.814 104.266 217.987 87.0804 218.978 79.3947C219.924 72.0606 221.781 68.3885 220.42 66.2205C218.197 62.6769 212.121 60.6291 207.978 60.1453C205.449 59.85 201.644 59.6382 201.644 59.6382C201.644 59.6382 201.321 65.2578 193.639 65.5712C183.182 65.9958 183.88 59.6379 183.828 59.6379C182.134 59.6379 172.27 60.325 170.089 61.773C166.276 64.3051 167.158 70.7306 167.9 78.2289Z" fill="#337A6F"/>
<path d="M167.26 73.7949C167.221 73.7949 167.183 73.782 167.154 73.7588C167.126 73.7355 167.109 73.7037 167.106 73.6699L166.733 68.0519C166.731 68.0168 166.745 67.9823 166.772 67.956C166.799 67.9297 166.837 67.9138 166.878 67.9118C166.918 67.9101 166.958 67.9222 166.989 67.9455C167.019 67.9688 167.037 68.0015 167.04 68.0365L167.413 73.6545C167.416 73.6896 167.402 73.7241 167.375 73.7504C167.348 73.7766 167.31 73.7925 167.269 73.7946L167.26 73.7949Z" fill="#0C0C0C"/>
<path d="M226.554 107.964C227.915 107.964 229.255 107.68 230.462 107.137C231.668 106.594 232.705 105.808 233.483 104.845C234.261 103.882 234.758 102.771 234.931 101.607C235.104 100.443 234.949 99.2601 234.478 98.1589C234.001 97.0409 222.794 71.4486 220.661 66.7065L204.865 72.2261C206.064 74.8924 210.41 84.9985 213.902 93.1395L208.101 92.5958L206.275 107.081L225.64 107.922C225.943 107.95 226.248 107.964 226.554 107.964Z" fill="#337A6F"/>
<path d="M178.316 59.1524C178.368 59.1466 179.787 63.7528 190.863 63.036C198.531 62.5406 200.402 58.0392 200.576 58.0392C199.75 57.8877 198.407 57.7304 198.04 57.5616C196.832 57.0022 195.953 56.321 195.51 54.8594C195.164 53.7162 194.987 49.3157 194.987 47.1079L183.188 49.3945C183.353 51.885 184.504 57.6587 180.469 58.6806C179.798 58.8494 179.076 59.0049 178.316 59.1524Z" fill="#A4664E"/>
<path d="M183.597 54.2909C188.248 54.6072 194.223 52.9136 195.358 47.5616L196.382 42.732C197.517 37.3799 195.178 32.5269 189.335 31.6053C183.492 30.6837 178.204 34.3335 177.069 39.6856L176.616 41.8236C176.18 43.8775 175.298 53.7262 183.597 54.2909Z" fill="#A4664E"/>
<path d="M179.284 49.3768C180.119 45.7586 180.502 43.3449 180.457 40.7982C179.281 39.0203 179.59 36.977 179.858 36.0949C179.048 36.5387 178.096 36.7493 177.138 36.6965C177.138 36.6965 179.083 29.9648 185.694 28.1534C186.909 27.7453 190.013 27.23 194.134 27.7175C197.638 28.1319 206.278 30.3923 207.513 38.7809V38.7857C207.553 39.0638 208.383 46.793 210.036 50.5014C212.259 55.4868 215.38 57.0357 215.301 62.7877C215.2 70.1863 199.428 71.171 189.917 70.6175C180.406 70.0639 175.094 67.3665 175.025 62.0346C174.949 56.0605 177.613 56.6154 179.284 49.3768Z" fill="#0A0A0A"/>
<path d="M217.539 79.5421L216.402 108.192L216.71 108.201L217.847 79.5512L217.539 79.5421Z" fill="#0C0C0C"/>
<path d="M117.168 46.7938L122.141 51.8585L121.833 50.9889C121.74 50.7066 121.775 50.4043 121.931 50.1432C122.086 49.8822 122.351 49.6818 122.671 49.5825C122.838 49.5363 123.015 49.5199 123.19 49.5344C123.365 49.549 123.535 49.5941 123.689 49.6671C123.843 49.7401 123.978 49.8394 124.086 49.9589C124.194 50.0785 124.273 50.2158 124.318 50.3624L126.591 57.7443C126.878 58.6761 126.731 59.6678 126.182 60.5078C125.633 61.3478 124.726 61.9695 123.653 62.2403C122.407 62.5549 121.081 62.5414 119.844 62.2017C118.607 61.8619 117.516 61.2114 116.711 60.3334L113.072 56.3506C112.878 56.1468 112.772 55.8916 112.771 55.6281C112.771 55.3646 112.876 55.109 113.069 54.9046C113.247 54.7231 113.488 54.5955 113.757 54.5406C114.025 54.4858 114.307 54.5065 114.561 54.5997C114.565 54.5871 114.572 54.5752 114.581 54.5648C114.59 54.5545 114.602 54.5459 114.615 54.5396C114.628 54.5333 114.643 54.5293 114.658 54.528C114.673 54.5267 114.689 54.5281 114.703 54.5321L114.029 53.797C113.822 53.5815 113.713 53.3089 113.722 53.0294C113.73 52.7499 113.855 52.4825 114.075 52.2765C114.299 52.0785 114.6 51.9595 114.921 51.9428C115.241 51.926 115.557 52.0126 115.807 52.1857C115.809 52.1739 115.813 52.1625 115.82 52.152L115.543 51.8506C115.362 51.6441 115.264 51.393 115.261 51.1343C115.259 50.8757 115.353 50.6233 115.53 50.4144C115.746 50.1896 116.056 50.0466 116.393 50.0163C116.73 49.9859 117.067 50.0705 117.332 50.252L117.35 50.2369L115.261 48.109C115.154 47.9999 115.074 47.873 115.025 47.7363C114.977 47.5995 114.961 47.4557 114.979 47.3135C114.997 47.1714 115.049 47.0339 115.131 46.9095C115.212 46.7851 115.323 46.6764 115.455 46.59C115.717 46.4305 116.04 46.3628 116.358 46.4006C116.676 46.4385 116.966 46.579 117.168 46.7938Z" fill="#A4664E"/>
<path opacity="0.2" d="M117.281 50.3704C117.286 50.3818 117.294 50.3923 117.303 50.4014L119.36 52.4482C119.382 52.4652 119.411 52.4746 119.441 52.4747C119.47 52.4749 119.499 52.4657 119.522 52.4489C119.544 52.4322 119.559 52.4089 119.563 52.3835C119.567 52.3581 119.561 52.3322 119.545 52.3107L117.487 50.2642C117.469 50.2457 117.443 50.2334 117.415 50.2296C117.387 50.2257 117.358 50.2305 117.333 50.2432C117.309 50.2559 117.29 50.2755 117.281 50.2988C117.272 50.322 117.272 50.3474 117.282 50.3704H117.281Z" fill="#0C0C0C"/>
<path opacity="0.2" d="M115.81 52.2336C115.815 52.2447 115.822 52.255 115.831 52.2641L117.434 53.8828C117.456 53.899 117.484 53.9079 117.513 53.9078C117.542 53.9077 117.571 53.8987 117.593 53.8823C117.615 53.866 117.63 53.8433 117.634 53.8185C117.639 53.7936 117.633 53.7682 117.618 53.7467L116.016 52.128C115.996 52.1105 115.971 52.0992 115.943 52.096C115.916 52.0927 115.887 52.0976 115.863 52.11C115.839 52.1223 115.821 52.1413 115.811 52.1639C115.801 52.1864 115.801 52.2112 115.81 52.2341L115.81 52.2336Z" fill="#0C0C0C"/>
<path opacity="0.2" d="M114.56 54.669C114.565 54.681 114.573 54.692 114.583 54.7014L115.36 55.4511C115.37 55.4639 115.382 55.4748 115.397 55.483C115.412 55.4913 115.429 55.4966 115.447 55.4986C115.465 55.5006 115.483 55.4993 115.5 55.4948C115.517 55.4903 115.532 55.4827 115.545 55.4725C115.559 55.4623 115.569 55.4497 115.576 55.4356C115.583 55.4216 115.587 55.4064 115.586 55.391C115.586 55.3757 115.582 55.3606 115.574 55.3469C115.566 55.3331 115.555 55.3209 115.541 55.3112L114.764 54.5616C114.744 54.5448 114.719 54.5342 114.691 54.5315C114.664 54.5287 114.636 54.5339 114.613 54.5463C114.589 54.5587 114.571 54.5775 114.562 54.5998C114.552 54.622 114.551 54.6464 114.56 54.669Z" fill="#0C0C0C"/>
<path d="M141.712 94.4822C140.147 94.4822 138.608 94.1331 137.245 93.4689C135.883 92.8046 134.742 91.8478 133.935 90.6912L113.816 61.8652L129.369 53.7908L144.664 75.7046L170.089 61.7731L180.86 74.2284L146.625 93.2363C145.16 94.0495 143.454 94.482 141.712 94.4822Z" fill="#337A6F"/>
<path d="M168.157 81.4077C168.123 81.4077 168.089 81.3976 168.062 81.3793C168.035 81.3609 168.016 81.3352 168.008 81.3063C168 81.2774 168.003 81.2471 168.017 81.22C168.032 81.193 168.056 81.1709 168.087 81.1572L172.48 79.2023C172.516 79.1861 172.558 79.1831 172.597 79.1938C172.636 79.2045 172.668 79.2281 172.687 79.2594C172.706 79.2906 172.709 79.327 172.697 79.3606C172.685 79.3941 172.657 79.422 172.621 79.4382L168.228 81.3931C168.206 81.4028 168.182 81.4078 168.157 81.4077Z" fill="#0C0C0C"/>
<path d="M231.457 232H0.237853C0.205919 232.001 0.174082 231.996 0.144241 231.987C0.1144 231.977 0.0871675 231.962 0.0641698 231.943C0.0411721 231.923 0.0228805 231.901 0.0103872 231.875C-0.00210606 231.85 -0.00854492 231.823 -0.00854492 231.795C-0.00854492 231.767 -0.00210606 231.74 0.0103872 231.715C0.0228805 231.689 0.0411721 231.666 0.0641698 231.647C0.0871675 231.628 0.1144 231.613 0.144241 231.603C0.174082 231.594 0.205919 231.589 0.237853 231.59H231.457C231.489 231.589 231.521 231.594 231.551 231.603C231.581 231.613 231.608 231.628 231.631 231.647C231.654 231.666 231.672 231.689 231.685 231.715C231.697 231.74 231.704 231.767 231.704 231.795C231.704 231.823 231.697 231.85 231.685 231.875C231.672 231.901 231.654 231.923 231.631 231.943C231.608 231.962 231.581 231.977 231.551 231.987C231.521 231.996 231.489 232.001 231.457 232Z" fill="#3F3F3F"/>
<path d="M95.7053 29.3062C96.1014 29.1054 96.547 29 97 29C97.453 29 97.8986 29.1054 98.2947 29.3062L108.315 34.3884C108.522 34.4938 108.695 34.6481 108.816 34.8352C108.936 35.0223 109 35.2354 109 35.4525V45.4791C109 45.9134 108.873 46.3397 108.631 46.7139C108.39 47.0881 108.044 47.3966 107.628 47.6074L98.2947 52.3437C97.8986 52.5446 97.453 52.65 97 52.65C96.547 52.65 96.1014 52.5446 95.7053 52.3437L86.372 47.6074C85.9565 47.3967 85.6102 47.0884 85.369 46.7144C85.1277 46.3404 85.0004 45.9144 85 45.4803V35.4525C85 35.2354 85.0635 35.0223 85.184 34.8352C85.3045 34.6481 85.4776 34.4938 85.6853 34.3884L95.7067 29.3062H95.7053Z" stroke="#95BAB4" stroke-width="2" stroke-linecap="round" stroke-linejoin="round"/>
<path d="M97 40.8244V53M85 34.7366L97 40.8244L85 34.7366ZM97 40.8244L109 34.7366L97 40.8244Z" stroke="#95BAB4" stroke-width="2" stroke-linejoin="round"/>
<path d="M89.0002 41.2237L93.0002 43.2595M91.0002 37.7804L103 31.6926L91.0002 37.7804Z" stroke="#95BAB4" stroke-width="2" stroke-linecap="round" stroke-linejoin="round"/>
<path d="M95.7053 140.306C96.1014 140.105 96.547 140 97 140C97.453 140 97.8986 140.105 98.2947 140.306L108.315 145.388C108.522 145.494 108.695 145.648 108.816 145.835C108.936 146.022 109 146.235 109 146.453V156.479C109 156.913 108.873 157.34 108.631 157.714C108.39 158.088 108.044 158.397 107.628 158.607L98.2947 163.344C97.8986 163.545 97.453 163.65 97 163.65C96.547 163.65 96.1014 163.545 95.7053 163.344L86.372 158.607C85.9565 158.397 85.6102 158.088 85.369 157.714C85.1277 157.34 85.0004 156.914 85 156.48V146.453C85 146.235 85.0635 146.022 85.184 145.835C85.3045 145.648 85.4776 145.494 85.6853 145.388L95.7067 140.306H95.7053Z" stroke="#95BAB4" stroke-width="2" stroke-linecap="round" stroke-linejoin="round"/>
<path d="M97 151.824V164M85 145.737L97 151.824L85 145.737ZM97 151.824L109 145.737L97 151.824Z" stroke="#95BAB4" stroke-width="2" stroke-linejoin="round"/>
<path d="M89.0002 152.224L93.0002 154.259M91.0002 148.78L103 142.693L91.0002 148.78Z" stroke="#95BAB4" stroke-width="2" stroke-linecap="round" stroke-linejoin="round"/>
<path d="M95.7053 86.3062C96.1014 86.1054 96.547 86 97 86C97.453 86 97.8986 86.1054 98.2947 86.3062L108.315 91.3884C108.522 91.4938 108.695 91.6481 108.816 91.8352C108.936 92.0223 109 92.2354 109 92.4525V102.479C109 102.913 108.873 103.34 108.631 103.714C108.39 104.088 108.044 104.397 107.628 104.607L98.2947 109.344C97.8986 109.545 97.453 109.65 97 109.65C96.547 109.65 96.1014 109.545 95.7053 109.344L86.372 104.607C85.9565 104.397 85.6102 104.088 85.369 103.714C85.1277 103.34 85.0004 102.914 85 102.48V92.4525C85 92.2354 85.0635 92.0223 85.184 91.8352C85.3045 91.6481 85.4776 91.4938 85.6853 91.3884L95.7067 86.3062H95.7053Z" stroke="#95BAB4" stroke-width="2" stroke-linecap="round" stroke-linejoin="round"/>
<path d="M97 97.8244V110M85 91.7366L97 97.8244L85 91.7366ZM97 97.8244L109 91.7366L97 97.8244Z" stroke="#95BAB4" stroke-width="2" stroke-linejoin="round"/>
<path d="M89.0002 98.2237L93.0002 100.259M91.0002 94.7804L103 88.6926L91.0002 94.7804Z" stroke="#95BAB4" stroke-width="2" stroke-linecap="round" stroke-linejoin="round"/>
</g>
<defs>
<clipPath id="clip0_475_1010">
<rect width="235" height="232" fill="white"/>
</clipPath>
</defs>
</svg>
