<svg width="348" height="232" viewBox="0 0 348 232" fill="none" xmlns="http://www.w3.org/2000/svg">
<path d="M167.536 133.159C160.323 133.159 153.291 135.215 147.426 139.038C141.561 142.861 137.158 148.259 134.834 154.475C133.766 157.338 129.299 157.363 128.155 154.524C122.368 140.142 119.205 114.436 160.332 112.878C179.388 112.157 178.646 133.159 167.536 133.159Z" fill="#8FB5AF"/>
<path d="M176.168 133.159C183.381 133.159 190.414 135.215 196.278 139.038C202.143 142.861 206.546 148.259 208.87 154.475C209.938 157.338 214.405 157.363 215.549 154.524C221.336 140.142 224.499 114.436 183.372 112.878C164.316 112.157 165.059 133.159 176.168 133.159Z" fill="#8FB5AF"/>
<path d="M50.7322 56.8926C50.7322 56.8926 53.2821 55.5112 52.3463 49.0468L57.7068 47.8914C57.7068 47.8914 57.4139 53.7379 60.2496 55.4628L50.7322 56.8926Z" fill="#A4664E"/>
<g opacity="0.15">
<path d="M59.0766 54.2959L54.4128 51.3674L57.9408 51.1758C58.1026 52.2712 58.4878 53.3294 59.0766 54.2959Z" fill="black"/>
</g>
<path d="M49.1408 46.6677C49.6216 48.62 50.9038 50.4329 52.8458 50.9825C55.1513 51.6362 56.8325 51.6121 59.4445 51.4949C63.0084 51.3353 62.7077 47.9568 62.6233 44.5428C62.5385 41.115 62.0408 37.4563 60.5677 36.3264C57.6269 34.0716 49.4565 35.9493 48.6675 39.9768C48.2604 42.06 48.6828 44.8095 49.1408 46.6677Z" fill="#A4664E"/>
<path d="M64.1919 38.1479C64.1919 38.1479 65.6355 37.7859 65.1643 36.4786C64.852 35.612 63.6257 35.8613 63.6257 35.8613C63.6257 35.8613 64.7862 35.6144 64.7357 34.683C64.7042 34.0966 64.1556 33.1257 62.693 33.7602C60.9772 34.5049 58.9745 34.5089 57.4427 34.3444C56.5739 34.2117 55.6954 34.1387 54.8145 34.1263H54.8101C53.7999 34.1557 52.8003 34.3233 51.8449 34.6234C49.1693 35.4848 45.1792 37.8859 46.3248 42.872C47.6033 48.4364 50.6105 50.4517 51.9188 51.0813C51.9963 51.1192 52.0822 51.1406 52.1701 51.1438C52.258 51.1471 52.3456 51.1321 52.4262 51.1C52.5068 51.068 52.5783 51.0196 52.6354 50.9587C52.6924 50.8978 52.7335 50.8258 52.7556 50.7483C53.0607 49.6811 53.5387 47.0084 53.0692 41.5628C61.3966 40.8156 63.7925 40.595 63.7925 40.595C63.7925 40.595 65.7613 40.5737 65.6911 39.2679C65.6209 37.9621 64.1919 38.1479 64.1919 38.1479Z" fill="#0F1011"/>
<path d="M57.5066 44.7713C57.778 44.7713 57.9979 44.5711 57.9979 44.3241C57.9979 44.0772 57.778 43.877 57.5066 43.877C57.2353 43.877 57.0154 44.0772 57.0154 44.3241C57.0154 44.5711 57.2353 44.7713 57.5066 44.7713Z" fill="#0F1011"/>
<path d="M61.3616 44.3092C61.6329 44.3092 61.8529 44.109 61.8529 43.862C61.8529 43.615 61.6329 43.4148 61.3616 43.4148C61.0903 43.4148 60.8704 43.615 60.8704 43.862C60.8704 44.109 61.0903 44.3092 61.3616 44.3092Z" fill="#0F1011"/>
<path d="M60.8485 42.9157C60.7886 42.9149 60.7314 42.8929 60.689 42.8544C60.6466 42.8159 60.6222 42.7639 60.6211 42.7094C60.62 42.6549 60.6422 42.6022 60.6831 42.5623C60.7239 42.5224 60.7802 42.4985 60.84 42.4957L62.1405 42.4522C62.1711 42.4497 62.202 42.4532 62.2311 42.4623C62.2602 42.4714 62.2869 42.4859 62.3094 42.505C62.3319 42.524 62.3499 42.5471 62.362 42.5728C62.3741 42.5986 62.3802 42.6263 62.3799 42.6543C62.3822 42.71 62.3601 42.7643 62.3184 42.8051C62.2768 42.846 62.219 42.8701 62.1578 42.8722L60.8573 42.9154L60.8485 42.9157Z" fill="#0F1011"/>
<path d="M56.3925 43.5629C56.3368 43.563 56.283 43.5449 56.2409 43.5117C56.1987 43.4786 56.1712 43.4328 56.1632 43.3826C56.1553 43.3325 56.1676 43.2814 56.1977 43.2388C56.2279 43.1962 56.274 43.165 56.3274 43.1508L57.594 42.8129C57.6235 42.8039 57.6546 42.8004 57.6856 42.8027C57.7166 42.8049 57.7467 42.8128 57.7743 42.8258C57.8018 42.8389 57.8262 42.8569 57.8459 42.8788C57.8656 42.9006 57.8803 42.9259 57.889 42.953C57.8977 42.9802 57.9004 43.0086 57.8968 43.0367C57.8931 43.0648 57.8833 43.0919 57.8679 43.1165C57.8525 43.141 57.8318 43.1625 57.807 43.1796C57.7823 43.1967 57.754 43.2091 57.7239 43.216L56.4573 43.5554C56.4362 43.5608 56.4144 43.5633 56.3925 43.5629Z" fill="#0F1011"/>
<path d="M55.0129 45.5318C55.0529 45.7805 55.0382 46.0339 54.9697 46.2774C54.9011 46.5208 54.7801 46.7495 54.6135 46.95C54.447 47.1505 54.2384 47.3188 53.9997 47.4452C53.7611 47.5716 53.4972 47.6536 53.2235 47.6863C52.9497 47.7191 52.6715 47.7019 52.4051 47.6359C52.1387 47.5699 51.8894 47.4563 51.6716 47.3018C51.4539 47.1472 51.2721 46.9548 51.1367 46.7357C51.0014 46.5166 50.9153 46.2752 50.8834 46.0256C50.8429 45.7781 50.8576 45.5258 50.9264 45.2837C50.9953 45.0415 51.117 44.8144 51.2843 44.6159C51.4516 44.4175 51.661 44.2517 51.9001 44.1284C52.1393 44.0052 52.4032 43.927 52.6763 43.8985C54.1562 43.7896 54.8627 44.4939 55.0129 45.5318Z" fill="#A4664E"/>
<g opacity="0.15">
<path d="M59.8102 46.7044C59.7703 46.7043 59.7318 46.6915 59.7013 46.6682C59.6708 46.6448 59.6503 46.6124 59.6434 46.5767C59.6365 46.541 59.6437 46.5042 59.6637 46.4728C59.6836 46.4414 59.7151 46.4174 59.7525 46.405L60.7358 46.0813L59.9614 44.6974C59.9499 44.6793 59.9426 44.6592 59.9399 44.6384C59.9372 44.6176 59.9392 44.5965 59.9458 44.5765C59.9523 44.5564 59.9633 44.5377 59.978 44.5216C59.9927 44.5055 60.0109 44.4924 60.0314 44.4829C60.0519 44.4734 60.0743 44.4678 60.0972 44.4664C60.1202 44.465 60.1432 44.4679 60.1649 44.4749C60.1866 44.4819 60.2065 44.4929 60.2234 44.5071C60.2402 44.5213 60.2538 44.5385 60.2631 44.5576L61.125 46.097C61.136 46.1165 61.1424 46.138 61.1437 46.1599C61.1449 46.1819 61.141 46.2038 61.1321 46.2243C61.1233 46.2447 61.1098 46.2632 61.0925 46.2785C61.0752 46.2938 61.0544 46.3056 61.0317 46.313L59.8685 46.6964C59.8497 46.702 59.83 46.7048 59.8102 46.7044Z" fill="black"/>
</g>
<path d="M57.9236 47.8317C57.9236 47.8317 59.7442 47.9243 60.9918 47.4639C60.9918 47.4639 61.0407 48.5502 59.6133 48.7212C58.186 48.8922 57.9236 47.8317 57.9236 47.8317Z" fill="white"/>
<path d="M71.6936 27.4248L75.2962 25.8114C75.2962 25.8114 75.2369 21.0836 70.6358 19.0134C69.1101 18.3273 68.2317 19.8843 68.548 20.3364C69.5936 21.8295 70.7857 23.1819 70.9375 24.6976C70.3307 24.2791 69.4638 23.7519 69.2532 23.9936C68.6992 24.6281 71.6936 27.4248 71.6936 27.4248Z" fill="#A4664E"/>
<path d="M11.9404 124.317C11.7329 124.269 11.1026 124.126 5.15967 122.07L7.68887 116.012C10.2082 116.884 13.2399 117.91 13.7451 118.049C13.7112 118.04 13.6857 118.034 13.6644 118.029L11.9404 124.317Z" fill="#A4664E"/>
<path d="M0.0556428 129.15C0.00229325 129.317 -0.0125665 129.493 0.0119917 129.666C0.0365498 129.838 0.0999983 130.005 0.198374 130.154C0.29675 130.304 0.42794 130.433 0.58375 130.535C0.739561 130.636 0.916644 130.707 1.10394 130.743C1.36358 130.793 1.63353 130.775 1.88205 130.69C2.13056 130.605 2.34733 130.458 2.50687 130.265L7.51408 123.744C7.61046 123.618 7.67569 123.474 7.7053 123.322C7.73491 123.171 7.7282 123.015 7.68563 122.866C7.25004 121.668 7.24813 120.374 7.6802 119.175C8.05915 118.251 8.71552 117.444 9.57439 116.844C9.65661 116.793 9.72122 116.722 9.7607 116.639C9.80018 116.556 9.81289 116.464 9.79736 116.375C9.78183 116.285 9.7387 116.202 9.67299 116.134C9.60728 116.066 9.5217 116.016 9.42624 115.991L5.53954 114.947C5.42489 114.917 5.3047 114.907 5.18586 114.918C5.06702 114.93 4.95186 114.963 4.847 115.015C4.74214 115.067 4.64964 115.138 4.5748 115.223C4.49996 115.307 4.44426 115.405 4.41089 115.509L0.0556428 129.15Z" fill="#C1D8ED"/>
<path d="M41.0518 144.682L39.8401 138.294C42.4958 137.876 45.679 137.354 46.1912 137.239C46.1573 137.246 46.1319 137.254 46.1112 137.259L48.1431 143.472C47.9396 143.528 47.3151 143.696 41.0518 144.682Z" fill="#A4664E"/>
<path d="M40.6188 153.141C40.6666 153.31 40.752 153.468 40.8699 153.605C40.9878 153.742 41.1355 153.856 41.3038 153.939C41.4722 154.022 41.6575 154.073 41.8483 154.088C42.0391 154.103 42.2312 154.082 42.4126 154.026C42.6641 153.949 42.8862 153.808 43.0525 153.62C43.2189 153.431 43.3228 153.204 43.3518 152.964L44.0136 145.032C44.0258 144.879 44.0015 144.725 43.9422 144.58C43.8829 144.436 43.7901 144.306 43.6701 144.197C42.6255 143.368 41.9006 142.255 41.602 141.023C41.4119 140.053 41.5252 139.054 41.9288 138.14C41.9711 138.058 41.9869 137.967 41.9744 137.877C41.9619 137.787 41.9215 137.702 41.8581 137.633C41.7947 137.563 41.7109 137.511 41.6163 137.483C41.5217 137.455 41.4203 137.452 41.324 137.474L37.3953 138.377C37.2794 138.404 37.1704 138.451 37.0746 138.516C36.9788 138.582 36.8981 138.663 36.8371 138.757C36.776 138.85 36.7359 138.954 36.7189 139.062C36.7019 139.169 36.7085 139.279 36.7382 139.384L40.6188 153.141Z" fill="#C1D8ED"/>
<path d="M79.587 132.938L79.5531 132.677C78.6618 125.933 73.6977 93.0567 73.1115 89.5813H47.4418C47.4418 89.5813 37.4538 119.297 37.0673 120.12L12.5293 115.358L9.44946 126.427L39.6609 134.516C41.2644 134.944 42.9823 134.846 44.5148 134.24C46.0472 133.633 47.2968 132.555 48.0456 131.195C48.0456 131.195 59.0137 105.69 59.2337 105.221L66.005 129.583L43.099 135.517L46.5328 146.5L75.0826 139.103C76.5164 138.731 77.7574 137.906 78.583 136.776C79.4086 135.646 79.7646 134.285 79.587 132.938Z" fill="#262626"/>
<path d="M24.1983 33.03L20.3577 34.0957C20.3577 34.0957 17.1117 29.9623 18.913 25.5876C19.5101 24.1371 21.3202 24.7262 21.43 25.2527C21.7891 26.9934 21.6724 29.3698 22.7007 30.5697C22.8292 29.8864 23.0655 28.9621 23.4008 29.0074C24.2823 29.1262 24.1983 33.03 24.1983 33.03Z" fill="#A4664E"/>
<path d="M84.6232 41.5346L76.4118 23.937L69.608 26.5683L76.9203 42.2383L65.5627 54.2276C64.5959 54.0637 63.6086 54.0251 62.63 54.1128C62.4198 54.1282 62.0808 54.1622 61.64 54.2054C61.3956 54.2304 61.1128 54.2603 60.8101 54.2927L60.392 52.2743L49.2313 53.6434L49.5395 55.5806C47.1483 55.9053 45.1636 56.6855 43.7891 57.7301L27.8752 49.9072L25.2873 31.6106L17.9553 32.4701L20.7852 52.4777C20.8601 53.0072 21.0724 53.5129 21.4045 53.953C21.7366 54.393 22.1789 54.7548 22.695 55.0084L41.4142 64.2106C42.198 68.6368 46.0539 73.5812 46.678 78.0309C47.5799 84.4626 44.7896 87.7155 45.4846 90.9869C46.5831 96.1316 74.0992 91.6905 75.096 88.5796C76.1233 85.37 72.9126 83.8423 71.648 73.8862C71.0455 69.1488 71.7962 63.2869 70.64 59.1717L84.0208 45.0476C84.4716 44.5718 84.767 43.9904 84.8735 43.3695C84.98 42.7486 84.8933 42.1129 84.6232 41.5346Z" fill="#337A6F"/>
<path d="M342.625 120.289L313.841 125.064C312.989 125.206 312.109 125.123 311.306 124.827C310.503 124.531 309.809 124.033 309.305 123.391L309.088 123.113L296.361 106.852L307.719 100.884L315.65 116.706L341.574 113.88L342.625 120.289Z" fill="#A4664E"/>
<path d="M347.961 127.445C348.006 127.614 348.012 127.79 347.978 127.962C347.945 128.133 347.874 128.297 347.768 128.442C347.662 128.588 347.525 128.712 347.364 128.806C347.203 128.901 347.023 128.965 346.834 128.993C346.572 129.033 346.303 129.003 346.059 128.908C345.815 128.813 345.606 128.657 345.457 128.457L340.778 121.738C340.688 121.607 340.63 121.461 340.608 121.308C340.586 121.156 340.6 121.001 340.65 120.853C341.145 119.674 341.211 118.382 340.839 117.166C340.506 116.228 339.891 115.395 339.063 114.761C338.983 114.707 338.922 114.633 338.887 114.548C338.851 114.464 338.843 114.372 338.863 114.283C338.883 114.194 338.93 114.112 338.999 114.047C339.068 113.982 339.156 113.936 339.253 113.915L343.187 113.032C343.303 113.006 343.424 113.001 343.542 113.018C343.66 113.034 343.774 113.072 343.876 113.128C343.978 113.185 344.067 113.259 344.138 113.347C344.208 113.434 344.259 113.534 344.287 113.64L347.961 127.445Z" fill="#C1D8ED"/>
<path d="M280.113 127.74L290.544 164.354L283.713 166.181L270.744 130.28L280.113 127.74Z" fill="#A4664E"/>
<path d="M276.318 171.511C276.137 171.567 275.944 171.588 275.754 171.574C275.563 171.559 275.377 171.509 275.209 171.426C275.041 171.343 274.893 171.23 274.775 171.092C274.656 170.955 274.571 170.797 274.523 170.629C274.456 170.395 274.465 170.149 274.546 169.919C274.628 169.689 274.781 169.486 274.985 169.332L281.918 164.487C282.053 164.394 282.208 164.328 282.373 164.294C282.538 164.261 282.709 164.26 282.874 164.292C284.209 164.635 285.629 164.579 286.926 164.132C287.921 163.747 288.778 163.114 289.398 162.306C289.45 162.229 289.525 162.167 289.615 162.128C289.704 162.088 289.804 162.072 289.903 162.083C290.002 162.093 290.095 162.128 290.173 162.185C290.25 162.242 290.309 162.317 290.341 162.403L291.659 165.891C291.698 165.994 291.714 166.102 291.707 166.211C291.7 166.32 291.669 166.426 291.616 166.524C291.563 166.621 291.49 166.708 291.4 166.78C291.31 166.852 291.206 166.907 291.093 166.942L276.318 171.511Z" fill="#C1D8ED"/>
<path d="M277.338 80.5999C277.338 80.5999 268.381 106.865 265.932 114.363C260.393 131.323 270.744 143.986 270.744 143.986C270.744 143.986 284.746 145.804 291.709 137.359C304.586 121.74 321.066 132.611 321.773 115.301C312.398 113.691 301.884 82.7519 301.884 82.7519L277.338 80.5999Z" fill="#262626"/>
<path d="M280.552 17.5872L276.786 16.3193C276.786 16.3193 276.311 11.611 280.654 9.12136C282.094 8.29611 283.144 9.76268 282.881 10.242C282.009 11.8252 280.975 13.2819 280.996 14.8037C281.553 14.3306 282.355 13.7251 282.592 13.9457C283.214 14.5262 280.552 17.5872 280.552 17.5872Z" fill="#A4664E"/>
<path d="M326.243 26.9047L330.25 27.1297C330.25 27.1297 332.352 22.4232 329.486 18.5485C328.536 17.2646 326.923 18.2198 326.952 18.7549C327.047 20.5239 327.766 22.8108 327.072 24.195C326.773 23.5574 326.307 22.7087 325.993 22.8235C325.166 23.1256 326.243 26.9047 326.243 26.9047Z" fill="#A4664E"/>
<path d="M332.606 26.167L328.446 46.0361C328.347 46.5118 328.135 46.9623 327.827 47.357C327.519 47.7517 327.12 48.0811 326.659 48.3229L310.87 56.6033C311.074 61.535 305.693 67.1612 304.71 72.2997C303.49 78.6882 306.117 82.0522 305.259 85.2927C303.906 90.3881 276.638 84.8174 275.797 81.6664C274.929 78.4228 278.214 77.0247 279.971 67.1334C280.808 62.4239 280.35 56.5384 281.709 52.4739L269.043 37.8144C268.671 37.3827 268.42 36.8748 268.313 36.3348C268.205 35.7948 268.244 35.239 268.426 34.7158L275.475 14.532L282.52 16.5689L276.065 35.0553L287.029 47.7458C288.002 47.6211 288.99 47.6231 289.962 47.752C290.172 47.7767 290.511 47.823 290.948 47.8847C290.718 49.5729 302.093 51.369 302.662 49.6994C304.107 49.9141 305.504 50.3448 306.795 50.974L321.502 43.2616L325.344 24.9078L332.606 26.167Z" fill="#337A6F"/>
<path d="M302.663 49.6995C302.093 51.3691 298.353 53.7578 294.292 52.8597C291.247 52.19 290.718 49.5729 290.949 47.8848C293.312 48.2242 298.604 49.0544 302.652 49.6964C302.654 49.6961 302.656 49.6963 302.658 49.6968C302.66 49.6974 302.661 49.6983 302.663 49.6995Z" fill="#A4664E"/>
<path d="M192.177 213.112L149.592 209.127L159.047 65.2375H182.528L192.177 213.112Z" fill="#F3F5FD"/>
<path d="M278.5 215.838C277.431 215.839 276.364 215.92 275.309 216.081C273.703 210.775 270.827 205.857 266.888 201.68C262.95 197.504 258.045 194.171 252.526 191.922C247.007 189.673 241.009 188.563 234.964 188.671C228.918 188.778 222.973 190.102 217.555 192.546C216.048 188.414 213.219 184.786 209.432 182.127C205.644 179.469 201.069 177.902 196.296 177.627C191.523 177.352 186.768 178.382 182.642 180.584C178.517 182.787 175.208 186.061 173.141 189.987C172.043 185.838 169.442 182.146 165.757 179.506C162.072 176.867 157.518 175.434 152.83 175.439C152.318 175.439 151.812 175.454 151.311 175.488C146.985 175.777 142.866 177.282 139.522 179.796C136.179 182.311 133.777 185.709 132.65 189.521C128.243 188.052 123.526 187.519 118.858 187.963C114.191 188.407 109.696 189.816 105.718 192.083C101.74 194.349 98.3837 197.413 95.905 201.041C93.4264 204.668 91.8912 208.764 91.4167 213.014C88.1397 213.243 84.9888 214.262 82.2879 215.967C79.5869 217.672 77.4333 220 76.0482 222.714C73.7612 221.791 71.2925 221.3 68.7913 221.271C66.2901 221.241 63.8082 221.673 61.4956 222.541C59.183 223.409 57.0877 224.695 55.3363 226.321C53.5848 227.946 52.2136 229.878 51.3054 232H297.553C297.214 227.611 295.059 223.503 291.523 220.503C287.987 217.504 283.333 215.836 278.5 215.838Z" fill="#F3F5FD"/>
<path d="M189.588 139.412H151.396V150.902H189.588V139.412Z" fill="#C1D8ED"/>
<path d="M202.248 82.6087C202.248 102.194 196.26 129.442 191.924 143.602H149.65C145.314 129.442 139.327 102.194 139.327 82.6087C139.327 36.9852 170.789 0 170.789 0C170.789 0 202.248 36.9852 202.248 82.6087Z" fill="#B9CDCA"/>
<path d="M170.787 84.8929C180.56 84.8929 188.482 77.681 188.482 68.7847C188.482 59.8884 180.56 52.6765 170.787 52.6765C161.014 52.6765 153.091 59.8884 153.091 68.7847C153.091 77.681 161.014 84.8929 170.787 84.8929Z" fill="white"/>
<path d="M170.787 80.6768C178.002 80.6768 183.851 75.3525 183.851 68.7847C183.851 62.2169 178.002 56.8926 170.787 56.8926C163.572 56.8926 157.723 62.2169 157.723 68.7847C157.723 75.3525 163.572 80.6768 170.787 80.6768Z" fill="#DEE8F5"/>
<path d="M192.317 36.476H149.256C158.478 14.4713 170.788 0 170.788 0C170.788 0 183.099 14.4713 192.317 36.476Z" fill="#8FB5AF"/>
<path d="M301.531 50.9985C301.531 50.9985 299.14 49.3998 300.757 43.0478L295.544 41.4263C295.544 41.4263 295.216 47.2713 292.209 48.7387L301.531 50.9985Z" fill="#A4664E"/>
<g opacity="0.15">
<path d="M293.503 47.6821L298.455 45.1773L294.963 44.6768C294.686 45.7526 294.191 46.7719 293.503 47.6821Z" fill="black"/>
</g>
<path d="M304.2 40.9616C303.514 42.8627 302.046 44.5533 300.055 44.9304C297.874 45.3994 295.601 45.3755 293.433 44.8607C287.635 43.6379 290.757 31.6517 293.923 29.6645C297.089 27.6773 305.022 30.2654 305.38 34.3435C305.565 36.4526 304.853 39.1521 304.2 40.9616Z" fill="#A4664E"/>
<path d="M289.695 33.6373C289.695 33.6373 292.238 25.1607 302.309 28.6734C303.927 29.3054 305.283 30.3878 306.183 31.7652C306.72 31.0533 307.48 30.5043 308.364 30.1891C309.248 29.8738 310.215 29.8068 311.141 29.9965C312.067 30.1863 312.909 30.6242 313.559 31.2538C314.209 31.8834 314.637 32.6758 314.788 33.5289C314.939 34.3819 314.805 35.2565 314.405 36.0399C314.005 36.8233 313.356 37.4796 312.542 37.9241C311.728 38.3686 310.786 38.581 309.838 38.5339C308.891 38.4868 307.98 38.1824 307.224 37.6599C307.195 37.7833 307.165 37.9049 307.13 38.0302C305.629 43.2894 300.313 45.3106 300.313 45.3106C300.313 45.3106 299.147 44.2304 301.007 35.6603C298.72 35.5319 293.504 35.0934 289.695 33.6373Z" fill="#0F1011"/>
<path d="M296.122 38.3409C296.393 38.3409 296.613 38.1407 296.613 37.8937C296.613 37.6467 296.393 37.4465 296.122 37.4465C295.85 37.4465 295.63 37.6467 295.63 37.8937C295.63 38.1407 295.85 38.3409 296.122 38.3409Z" fill="#0F1011"/>
<path d="M292.334 37.5418C292.605 37.5418 292.825 37.3416 292.825 37.0947C292.825 36.8477 292.605 36.6475 292.334 36.6475C292.062 36.6475 291.843 36.8477 291.843 37.0947C291.843 37.3416 292.062 37.5418 292.334 37.5418Z" fill="#0F1011"/>
<path d="M292.967 36.1988C292.957 36.1994 292.947 36.1994 292.936 36.1988L291.648 36.0411C291.587 36.0336 291.532 36.0045 291.495 35.9602C291.458 35.9159 291.442 35.8599 291.45 35.8047C291.458 35.7494 291.49 35.6994 291.539 35.6656C291.587 35.6318 291.649 35.617 291.71 35.6244L293 35.7822C293.057 35.7897 293.109 35.8168 293.146 35.8579C293.183 35.8991 293.201 35.9513 293.197 36.0041C293.193 36.0569 293.168 36.1065 293.125 36.1429C293.083 36.1793 293.027 36.1998 292.969 36.2003L292.967 36.1988Z" fill="#0F1011"/>
<path d="M297.334 37.2349C297.304 37.2349 297.275 37.2297 297.248 37.2198L296.023 36.7717C295.967 36.7504 295.922 36.7099 295.899 36.659C295.875 36.608 295.875 36.5507 295.897 36.4994C295.92 36.4481 295.964 36.4069 296.02 36.3849C296.075 36.3628 296.138 36.3616 296.195 36.3816L297.42 36.8297C297.47 36.8479 297.511 36.8813 297.537 36.9241C297.562 36.967 297.571 37.0167 297.561 37.0646C297.55 37.1126 297.522 37.1558 297.481 37.1869C297.439 37.2179 297.387 37.2349 297.334 37.2349Z" fill="#0F1011"/>
<path d="M295.333 41.3482C295.333 41.3482 293.511 41.2806 292.318 40.7122C292.318 40.7122 292.155 41.7892 293.558 42.0852C294.96 42.3812 295.333 41.3482 295.333 41.3482Z" fill="white"/>
<path d="M298.475 39.3147C298.351 39.8046 298.445 40.3195 298.737 40.7461C299.029 41.1727 299.496 41.4762 300.034 41.5897C300.572 41.7033 301.138 41.6176 301.607 41.3515C302.075 41.0854 302.409 40.6607 302.533 40.1709C302.6 39.9281 302.612 39.6756 302.569 39.4284C302.526 39.1813 302.429 38.9445 302.284 38.7322C302.138 38.52 301.947 38.3365 301.722 38.1929C301.497 38.0492 301.243 37.9482 300.974 37.896C299.513 37.6559 298.735 38.2947 298.475 39.3147Z" fill="#A4664E"/>
<g opacity="0.15">
<path d="M293.568 40.0592C293.608 40.0646 293.649 40.0567 293.684 40.0369C293.718 40.0171 293.743 39.9868 293.755 39.9515C293.767 39.9161 293.764 39.8781 293.748 39.8443C293.732 39.8105 293.702 39.7831 293.666 39.7672L292.722 39.3589L293.639 38.0498C293.652 38.0327 293.661 38.0135 293.665 37.9933C293.669 37.9732 293.669 37.9524 293.665 37.9323C293.66 37.9121 293.651 37.8931 293.638 37.8761C293.625 37.8592 293.609 37.8448 293.59 37.8337C293.571 37.8226 293.55 37.8151 293.528 37.8116C293.505 37.8081 293.482 37.8087 293.46 37.8133C293.438 37.8179 293.418 37.8265 293.399 37.8386C293.381 37.8506 293.366 37.8659 293.354 37.8834L292.333 39.3401C292.32 39.3585 292.311 39.3793 292.308 39.4009C292.304 39.4225 292.306 39.4446 292.313 39.4656C292.319 39.4866 292.331 39.5061 292.346 39.5228C292.362 39.5394 292.381 39.5529 292.403 39.5623L293.52 40.0459C293.535 40.0526 293.551 40.0571 293.568 40.0592Z" fill="black"/>
</g>
</svg>
