<svg width="319" height="181" viewBox="0 0 319 181" fill="none" xmlns="http://www.w3.org/2000/svg">
<path d="M310.873 70.0853L307.491 78.8894L309.889 79.843L313.271 71.0389L310.873 70.0853Z" fill="#337A6F"/>
<path d="M99.6207 48.4964L97.7031 50.244L103.901 57.2855L105.818 55.5379L99.6207 48.4964Z" fill="#0CBC8B"/>
<path d="M128.034 80.0129L120.599 85.6799L122.143 87.7767L129.578 82.1097L128.034 80.0129Z" fill="#337A6F"/>
<path d="M214.028 14.9817L212.264 16.8894L219.029 23.3676L220.793 21.4599L214.028 14.9817Z" fill="#337A6F"/>
<path d="M164.835 17.0883L160.205 25.2837L162.436 26.5892L167.066 18.3939L164.835 17.0883Z" fill="#0CBC8B"/>
<path d="M232.068 87.1718L229.891 88.5697L234.848 96.5638L237.025 95.1659L232.068 87.1718Z" fill="#0CBC8B"/>
<path d="M131.121 126.099L128.818 127.27L132.97 135.726L135.273 134.555L131.121 126.099Z" fill="#0CBC8B"/>
<path d="M97.4293 103.849L94.7617 112.904L97.2272 113.656L99.8948 104.602L97.4293 103.849Z" fill="#337A6F"/>
<path d="M258.577 132.065L250.861 137.33L252.295 139.505L260.01 134.24L258.577 132.065Z" fill="#337A6F"/>
<path d="M259.732 -5.29946e-05L255.103 8.19507L257.334 9.50057L261.964 1.30545L259.732 -5.29946e-05Z" fill="#0CBC8B"/>
<path d="M2.3976 67.0452L0 67.9988L3.38182 76.8029L5.77942 75.8493L2.3976 67.0452Z" fill="#0CBC8B"/>
<path d="M251.284 56.1685L249.741 58.2653L257.176 63.9323L258.719 61.8355L251.284 56.1685Z" fill="#0CBC8B"/>
<path d="M42.4366 17.5453L35.6711 24.0234L37.4353 25.9311L44.2007 19.4529L42.4366 17.5453Z" fill="#337A6F"/>
<path d="M117.371 9.83081L115.14 11.1364L119.77 19.3317L122.001 18.0261L117.371 9.83081Z" fill="#337A6F"/>
<path d="M26.3435 112.727L21.386 120.722L23.563 122.12L28.5206 114.125L26.3435 112.727Z" fill="#0CBC8B"/>
<path d="M4.38503 134.626L2.95117 136.803L10.6707 142.068L12.1046 139.891L4.38503 134.626Z" fill="#337A6F"/>
<path d="M302.211 30.2327L299.979 31.5382L304.609 39.7333L306.84 38.4278L302.211 30.2327Z" fill="#337A6F"/>
<path d="M205.492 52.5664L199.294 59.6079L201.212 61.3555L207.41 54.314L205.492 52.5664Z" fill="#337A6F"/>
<path d="M151.084 131.936L146.933 140.392L149.236 141.563L153.387 133.107L151.084 131.936Z" fill="#0CBC8B"/>
<path d="M184.778 109.687L182.312 110.439L184.98 119.494L187.445 118.741L184.778 109.687Z" fill="#337A6F"/>
<path d="M185.608 114.854L176.834 108.067C176.641 107.918 176.42 107.812 176.184 107.754C175.949 107.697 175.704 107.69 175.466 107.734C175.227 107.779 175.001 107.873 174.8 108.011C174.6 108.149 174.43 108.328 174.301 108.537C174.075 108.93 174.001 109.394 174.092 109.839C174.183 110.285 174.434 110.68 174.795 110.948L176.676 112.403L168.696 110.591C167.813 110.373 166.591 110.682 166.417 111.707C166.325 112.097 166.365 112.507 166.531 112.871C166.697 113.235 166.98 113.53 167.332 113.71C167.328 113.718 167.325 113.726 167.323 113.735C167.322 113.741 167.322 113.748 167.323 113.755L165.96 113.42C165.707 113.358 165.444 113.354 165.19 113.409C164.936 113.463 164.697 113.575 164.491 113.735C164.284 113.896 164.116 114.101 163.997 114.336C163.879 114.571 163.813 114.831 163.806 115.095C163.802 115.511 163.939 115.916 164.193 116.242C164.448 116.568 164.804 116.795 165.204 116.885L165.783 117.028C165.787 117.047 165.794 117.065 165.803 117.081C165.39 117.078 164.988 117.224 164.67 117.494C164.353 117.764 164.14 118.14 164.07 118.555C164.006 119.011 164.114 119.475 164.371 119.854C164.629 120.233 165.018 120.5 165.46 120.6L166.901 120.954C166.877 120.964 166.856 120.979 166.839 120.999C166.822 121.018 166.81 121.042 166.804 121.067C166.798 121.097 166.801 121.129 166.813 121.157C166.443 121.258 166.117 121.48 165.883 121.788C165.649 122.096 165.521 122.474 165.519 122.863C165.525 123.272 165.667 123.667 165.92 123.984C166.174 124.301 166.526 124.521 166.918 124.609L179.073 127.598C180.774 128.015 182.558 127.907 184.198 127.286C185.837 126.666 187.257 125.561 188.276 124.114C189.155 122.866 189.52 121.319 189.295 119.801C189.07 118.283 188.272 116.915 187.071 115.986L185.608 114.854Z" fill="#A4664E"/>
<g opacity="0.2">
<path opacity="0.2" d="M175.223 115.544C175.213 115.585 175.187 115.621 175.151 115.644C175.115 115.666 175.072 115.673 175.031 115.664L167.444 113.929C167.423 113.924 167.404 113.915 167.386 113.903C167.369 113.89 167.354 113.874 167.343 113.856C167.332 113.838 167.324 113.818 167.32 113.797C167.317 113.775 167.317 113.754 167.322 113.733C167.327 113.712 167.335 113.692 167.348 113.674C167.36 113.657 167.375 113.642 167.393 113.63C167.411 113.619 167.431 113.611 167.452 113.607C167.473 113.604 167.494 113.604 167.514 113.609L175.102 115.344C175.122 115.349 175.142 115.358 175.159 115.37C175.177 115.383 175.191 115.399 175.203 115.417C175.214 115.435 175.222 115.456 175.225 115.477C175.229 115.498 175.228 115.52 175.223 115.541L175.223 115.544Z" fill="#0C0C0C"/>
</g>
<g opacity="0.2">
<path opacity="0.2" d="M174.564 118.97C174.553 119.012 174.527 119.048 174.491 119.071C174.455 119.093 174.412 119.1 174.37 119.09L165.903 117.155C165.882 117.151 165.863 117.142 165.845 117.129C165.828 117.117 165.813 117.101 165.802 117.083C165.791 117.064 165.783 117.044 165.779 117.023C165.776 117.002 165.776 116.98 165.781 116.959C165.792 116.917 165.818 116.881 165.854 116.858C165.89 116.835 165.933 116.827 165.974 116.835L174.442 118.77C174.463 118.775 174.482 118.784 174.5 118.796C174.517 118.809 174.532 118.824 174.543 118.843C174.554 118.861 174.562 118.881 174.565 118.903C174.569 118.924 174.568 118.946 174.564 118.967V118.97Z" fill="#0C0C0C"/>
</g>
<g opacity="0.2">
<path opacity="0.2" d="M173.871 122.685C173.861 122.727 173.835 122.763 173.799 122.785C173.763 122.808 173.72 122.815 173.679 122.805L166.925 121.262C166.883 121.252 166.847 121.226 166.824 121.19C166.801 121.153 166.794 121.109 166.803 121.066C166.812 121.024 166.838 120.987 166.874 120.964C166.91 120.941 166.954 120.933 166.995 120.942L173.75 122.486C173.77 122.491 173.79 122.499 173.807 122.512C173.825 122.524 173.84 122.54 173.851 122.558C173.862 122.577 173.87 122.597 173.873 122.618C173.877 122.639 173.876 122.661 173.872 122.682L173.871 122.685Z" fill="#0C0C0C"/>
</g>
<path d="M143.952 68.1734L148.851 58.1274C148.959 57.9066 149.11 57.7111 149.296 57.5533C149.482 57.3954 149.698 57.2787 149.931 57.2106C150.164 57.1425 150.408 57.1244 150.648 57.1575C150.888 57.1907 151.118 57.2743 151.325 57.4031C151.699 57.6527 151.969 58.0348 152.082 58.4753C152.194 58.9158 152.143 59.3833 151.936 59.7871L150.886 61.9413L157.244 56.7112C157.941 56.1169 159.169 55.8415 159.773 56.6811C160.026 56.9887 160.169 57.3745 160.179 57.7755C160.188 58.1765 160.064 58.569 159.827 58.889C159.834 58.8943 159.84 58.9003 159.846 58.907C159.85 58.9128 159.853 58.9188 159.856 58.925L160.931 58.0082C161.13 57.8386 161.364 57.7163 161.615 57.6504C161.867 57.5844 162.129 57.5764 162.384 57.6268C162.639 57.6773 162.88 57.785 163.089 57.9422C163.297 58.0993 163.469 58.3018 163.591 58.535C163.776 58.9062 163.831 59.3308 163.745 59.7378C163.659 60.1449 163.439 60.5096 163.121 60.7711L162.663 61.1611C162.668 61.1797 162.67 61.1991 162.668 61.2184C163.037 61.0279 163.461 60.9773 163.863 61.0755C164.265 61.1737 164.62 61.4143 164.864 61.7544C165.121 62.1346 165.226 62.5991 165.161 63.0552C165.095 63.5114 164.863 63.9255 164.51 64.2151L163.374 65.1833C163.4 65.181 163.425 65.185 163.449 65.1949C163.473 65.2048 163.494 65.2204 163.511 65.2403C163.529 65.2651 163.54 65.2947 163.543 65.3257C163.918 65.2489 164.307 65.2996 164.651 65.4701C164.995 65.6405 165.274 65.9212 165.446 66.2691C165.619 66.638 165.665 67.0557 165.576 67.4544C165.487 67.8531 165.268 68.2095 164.955 68.4658L155.369 76.6367C154.028 77.7798 152.382 78.4893 150.642 78.6743C148.902 78.8593 147.148 78.5113 145.604 77.675C144.272 76.9539 143.27 75.7331 142.809 74.2719C142.348 72.8106 142.465 71.2241 143.135 69.8492L143.952 68.1734Z" fill="#A4664E"/>
<g opacity="0.2">
<path opacity="0.2" d="M153.558 64.0975C153.585 64.1305 153.624 64.1512 153.666 64.1552C153.708 64.1592 153.75 64.1461 153.783 64.1187L159.824 59.1358C159.857 59.1085 159.878 59.0688 159.883 59.0256C159.887 58.9824 159.875 58.9392 159.848 58.9055C159.821 58.8717 159.782 58.8502 159.739 58.8457C159.697 58.8412 159.654 58.8541 159.621 58.8814L153.58 63.8643C153.547 63.8916 153.526 63.931 153.522 63.9739C153.517 64.0169 153.53 64.0599 153.556 64.0935L153.558 64.0975Z" fill="#0C0C0C"/>
</g>
<g opacity="0.2">
<path opacity="0.2" d="M155.644 66.8695C155.671 66.9025 155.71 66.9232 155.752 66.9271C155.794 66.931 155.836 66.9179 155.869 66.8905L162.611 61.3296C162.644 61.3023 162.665 61.2629 162.669 61.22C162.673 61.177 162.661 61.1341 162.634 61.1004C162.607 61.0682 162.568 61.0478 162.526 61.0433C162.485 61.0388 162.443 61.0506 162.409 61.0762L155.665 66.6361C155.632 66.6634 155.611 66.7028 155.607 66.7457C155.602 66.7886 155.615 66.8316 155.641 66.8653L155.644 66.8695Z" fill="#0C0C0C"/>
</g>
<g opacity="0.2">
<path opacity="0.2" d="M157.886 69.8845C157.914 69.9175 157.952 69.9383 157.995 69.9423C158.037 69.9463 158.079 69.9332 158.112 69.9058L163.489 65.4701C163.523 65.4427 163.544 65.4031 163.548 65.3599C163.553 65.3167 163.54 65.2734 163.513 65.2397C163.486 65.206 163.447 65.1845 163.405 65.18C163.362 65.1755 163.32 65.1883 163.287 65.2156L157.908 69.6514C157.875 69.6787 157.854 69.7181 157.849 69.761C157.845 69.804 157.857 69.8469 157.884 69.8806L157.886 69.8845Z" fill="#0C0C0C"/>
</g>
<path d="M34.0125 59.5598C34.0125 59.5598 33.3216 70.1082 30.9897 73.9343C24.2754 84.9518 22.3302 97.3459 29.0539 103.822C35.7775 110.297 78.6628 110.387 81.9118 95.4933C84.647 82.9541 78.7774 81.6058 77.349 71.263C76.7028 66.5827 74.925 56.7684 74.925 56.7684" fill="#0A0A0A"/>
<path d="M70.8127 93.3096C70.7387 93.2998 69.9172 107.17 54.0821 105.961C43.1196 105.125 39.2109 93.2893 38.96 93.2893C40.1419 93.0336 42.1321 92.6619 42.6569 92.3767C44.3833 91.4331 46.5183 90.4508 47.0756 87.0395C47.3974 85.0749 46.852 75.0154 47.0196 73.0253L63.8468 76.8484C63.6116 81.0497 61.966 90.789 67.7339 92.5126C68.6935 92.7985 69.7274 93.0607 70.8127 93.3096Z" fill="#A4664E"/>
<path opacity="0.5" d="M64.0825 88.533C63.8189 87.6687 63.6492 86.7775 63.5764 85.8756C63.3915 83.8173 63.4284 81.7446 63.6864 79.6945C60.2665 79.2248 57.0446 77.7882 54.3869 75.5482C54.0745 76.7224 52.3559 81.8533 52.8318 82.9692C53.7305 85.0789 57.9565 88.533 64.0825 88.533Z" fill="#0C0C0C"/>
<path d="M61.9068 84.2118C55.2724 84.8666 46.6885 82.1646 44.9104 73.1742L43.306 65.0623C41.5278 56.0722 44.7266 47.8339 53.045 46.1303C61.3637 44.4276 69.0227 50.441 70.8009 59.4314L71.5114 63.0227C72.1935 66.4723 73.7436 83.0461 61.9068 84.2118Z" fill="#A4664E"/>
<path opacity="0.1" d="M57.6895 72.4308C58.7813 72.2983 59.5889 71.5303 59.4934 70.7154C59.3978 69.9005 58.4353 69.3474 57.3435 69.48C56.2518 69.6125 55.4442 70.3806 55.5397 71.1954C55.6352 72.0103 56.5978 72.5634 57.6895 72.4308Z" fill="#0C0C0C"/>
<path opacity="0.1" d="M69.226 69.1731C69.3226 69.9867 70.2863 70.5391 71.3781 70.4081C71.5668 70.3851 71.7526 70.3422 71.9325 70.2801C71.9834 69.3099 71.9863 68.3767 71.9586 67.5126C71.6554 67.4354 71.3406 67.4167 71.0306 67.4573C69.9388 67.5883 69.1314 68.3561 69.226 69.1731Z" fill="#0C0C0C"/>
<path opacity="0.5" d="M64.4018 71.688C64.4072 71.6874 64.4126 71.6865 64.4179 71.6853C64.7551 71.6139 65.0881 71.5235 65.4154 71.4146C65.9039 71.2482 66.5417 70.9751 66.4541 70.5256C66.3531 70.0135 63.8799 64.7689 63.5993 64.1733C63.5878 64.1464 63.5711 64.1222 63.5502 64.102C63.5293 64.0818 63.5046 64.0662 63.4776 64.0559C63.4506 64.0457 63.4218 64.0411 63.393 64.0425C63.3642 64.0438 63.336 64.051 63.31 64.0637C63.2841 64.0764 63.2609 64.0943 63.2418 64.1163C63.2228 64.1383 63.2084 64.164 63.1993 64.1919C63.1903 64.2197 63.1868 64.2491 63.1892 64.2783C63.1916 64.3075 63.1997 64.336 63.2132 64.3619C64.2676 66.5954 65.966 70.2675 66.0342 70.6123C65.9808 70.7731 65.1706 71.0871 64.3342 71.2587C64.3065 71.2633 64.2799 71.2733 64.256 71.2883C64.2321 71.3034 64.2113 71.323 64.1949 71.3462C64.1784 71.3694 64.1666 71.3956 64.1601 71.4235C64.1537 71.4513 64.1526 71.4801 64.1571 71.5084C64.1616 71.5366 64.1715 71.5636 64.1862 71.588C64.201 71.6123 64.2203 71.6335 64.2431 71.6502C64.2659 71.6669 64.2917 71.6789 64.319 71.6855C64.3464 71.6921 64.3747 71.6932 64.4025 71.6886L64.4018 71.688Z" fill="#0C0C0C"/>
<path d="M36.6685 67.975L44.1261 66.4927C49.7595 64.0955 51.3578 54.1051 51.3578 54.1051C51.3578 54.1051 58.3102 60.8428 74.9263 56.7685C74.9263 56.7685 71.3169 33.1649 46.7818 40.3312C38.8708 42.6412 33.267 50.8468 34.1004 61.715C34.6844 69.3292 36.6685 67.975 36.6685 67.975Z" fill="#0A0A0A"/>
<path d="M45.9687 75.8075C43.4407 76.3252 40.8472 73.9929 40.3375 71.4199C39.8278 68.8469 41.5976 67.0093 44.1255 66.4913L45.7691 67.9484L48.1416 75.3619L45.9687 75.8075Z" fill="#A4664E"/>
<path d="M65.3912 59.9911C66.0237 59.536 66.7633 59.2595 67.5349 59.1896C67.9226 59.1517 68.3137 59.1738 68.6949 59.2551C69.0794 59.3348 69.4524 59.4633 69.8054 59.6375L69.8164 59.6427C69.8555 59.6603 69.8998 59.6616 69.9398 59.6464C69.9799 59.6311 70.0125 59.6006 70.0307 59.5612C70.0489 59.5218 70.0512 59.4767 70.0372 59.4356C70.0232 59.3945 69.9939 59.3606 69.9557 59.3412C69.5816 59.1402 69.1842 58.988 68.7728 58.888C68.3585 58.7855 67.9315 58.747 67.506 58.7737C66.6441 58.8222 65.8107 59.1049 65.0926 59.5923C65.0658 59.6108 65.0429 59.6344 65.0251 59.6619C65.0073 59.6894 64.9951 59.7202 64.989 59.7525C64.9829 59.7848 64.9832 59.818 64.9897 59.8502C64.9963 59.8825 65.0091 59.913 65.0273 59.9402C65.0455 59.9674 65.0687 59.9907 65.0958 60.0087C65.1229 60.0268 65.1531 60.0392 65.1849 60.0453C65.2167 60.0514 65.2493 60.051 65.281 60.0443C65.3126 60.0375 65.3427 60.0245 65.3693 60.0059L65.3751 60.0019L65.3912 59.9911Z" fill="#0C0C0C"/>
<path d="M58.579 60.9492C57.7321 60.7778 56.8556 60.8408 56.0408 61.1316C55.638 61.2728 55.2584 61.4746 54.9146 61.7305C54.572 61.9831 54.2622 62.2786 53.9923 62.61C53.9651 62.6429 53.9514 62.6854 53.9542 62.7283C53.957 62.7713 53.9761 62.8115 54.0073 62.8405C54.0386 62.8695 54.0797 62.8851 54.1221 62.8839C54.1644 62.8827 54.2046 62.865 54.2343 62.8343L54.243 62.8251C54.5034 62.5266 54.7996 62.2626 55.1247 62.0393C55.4464 61.816 55.7994 61.6434 56.1717 61.5275C56.9108 61.2912 57.6982 61.2585 58.4538 61.4325L58.4725 61.4374C58.5359 61.4531 58.6028 61.4424 58.6585 61.4079C58.7142 61.3733 58.7541 61.3176 58.7695 61.2531C58.7848 61.1886 58.7744 61.1205 58.7404 61.0638C58.7064 61.0071 58.6517 60.9665 58.5883 60.9509L58.579 60.9492Z" fill="#0C0C0C"/>
<path d="M44.1313 66.3675C49.1443 64.4683 50.8079 60.9458 51.3202 58.3243C51.6517 56.576 51.6207 54.7765 51.2291 53.0411L51.074 53.0847C51.4597 54.7974 51.4896 56.5733 51.1615 58.2984C50.6557 60.877 49.0159 64.3432 44.075 66.2145L44.1313 66.3675Z" fill="#0C0C0C"/>
<path d="M83.7092 94.9597L131.309 111.15L117.334 117.472L141.069 67.924L160.467 77.1229L138.445 127.483C137.331 130.029 135.354 132.083 132.875 133.269C130.396 134.455 127.58 134.693 124.943 133.941L124.469 133.804L76.1489 119.999L83.7092 94.9597Z" fill="#337A6F"/>
<path d="M53.7865 102.494C42.8164 101.967 42.3546 92.4927 42.3546 92.4927C42.3546 92.4927 36.9191 92.8502 33.3058 93.3476C27.3902 94.1619 23.4877 96.2032 20.3818 99.3633C17.4929 102.303 15.734 105.484 17.5952 125.791C18.9428 140.495 17.9945 172.837 17.9945 172.837H84.8445C84.8445 172.837 89.5126 126.112 90.066 119.494C91.1221 106.858 94.106 104.069 88.0604 97.5601C83.6761 92.8398 72.3575 92.4927 67.8017 92.4933C67.7274 92.4933 68.7262 103.21 53.7865 102.494Z" fill="#337A6F"/>
<path d="M66.6257 73.4602C64.4701 74.5755 62.0108 74.9282 59.6363 74.4625C59.5541 74.4468 59.4692 74.4553 59.3915 74.4868C59.3139 74.5184 59.2466 74.5718 59.1977 74.6408C59.1487 74.7099 59.1201 74.7916 59.115 74.8766C59.11 74.9615 59.1289 75.0462 59.1694 75.1206C59.8773 76.3898 61.5564 78.5587 64.437 77.6746C66.2968 77.1036 66.9999 75.1567 67.2606 73.952C67.2784 73.8687 67.2725 73.782 67.2435 73.7019C67.2146 73.6219 67.1638 73.552 67.0971 73.5003C67.0304 73.4487 66.9506 73.4175 66.8671 73.4104C66.7836 73.4033 66.6999 73.4206 66.6257 73.4602Z" fill="white"/>
<path d="M66.7604 63.7051C67.3356 63.7051 67.802 63.2306 67.802 62.6452C67.802 62.0599 67.3356 61.5853 66.7604 61.5853C66.1851 61.5853 65.7188 62.0599 65.7188 62.6452C65.7188 63.2306 66.1851 63.7051 66.7604 63.7051Z" fill="#0C0C0C"/>
<path d="M56.7518 65.4881C57.3271 65.4881 57.7934 65.0136 57.7934 64.4282C57.7934 63.8428 57.3271 63.3683 56.7518 63.3683C56.1765 63.3683 55.7102 63.8428 55.7102 64.4282C55.7102 65.0136 56.1765 65.4881 56.7518 65.4881Z" fill="#0C0C0C"/>
<path d="M89.9175 124.098C89.9107 124.098 89.9039 124.098 89.8972 124.098C89.8549 124.092 89.8165 124.07 89.7903 124.036C89.7641 124.002 89.7524 123.958 89.7575 123.915L90.7927 115.376C90.7949 115.355 90.8014 115.334 90.8117 115.315C90.822 115.296 90.8359 115.28 90.8526 115.266C90.8694 115.253 90.8886 115.243 90.9091 115.238C90.9296 115.232 90.951 115.231 90.972 115.234C90.9929 115.237 91.0132 115.244 91.0316 115.254C91.05 115.265 91.0662 115.279 91.0792 115.296C91.0922 115.313 91.1017 115.332 91.1074 115.353C91.113 115.374 91.1145 115.396 91.1119 115.417L90.0768 123.955C90.0716 123.995 90.0526 124.031 90.0233 124.057C89.9941 124.083 89.9564 124.097 89.9175 124.098Z" fill="#0C0C0C"/>
<path d="M259.13 58.2101C259.13 58.2101 255.143 53.6532 255.605 45.1192C255.963 38.5116 260.972 43.8553 260.972 43.8553C260.972 43.8553 261.276 39.1 264.501 40.2323C267.727 41.3645 268.632 46.6081 268.632 46.6081" fill="#0C0C0C"/>
<path d="M281.541 44.252C281.541 44.252 297.647 49.3858 287.253 70.8725L285.777 70.676L282.781 70.2782" fill="#0C0C0C"/>
<path d="M258.629 93.2751C258.703 93.2652 259.521 107.09 275.304 105.885C286.23 105.052 290.126 93.2557 290.376 93.2557C289.198 93.0007 287.214 92.6303 286.691 92.3461C284.971 91.4054 282.842 90.4267 282.287 87.0269C281.968 85.0672 282.51 75.0428 282.343 73.0598L265.571 76.8689C265.806 81.0561 267.446 90.7633 261.697 92.4813C260.741 92.7656 259.71 93.0269 258.629 93.2751Z" fill="#A4664E"/>
<path opacity="0.52" d="M265.336 88.5144C265.599 87.6528 265.768 86.7645 265.841 85.8655C266.025 83.814 265.989 81.7481 265.731 79.7048C269.14 79.2367 272.352 77.805 275.001 75.5725C275.312 76.7428 277.025 81.8567 276.55 82.969C275.654 85.0714 271.442 88.5144 265.336 88.5144Z" fill="#0C0C0C"/>
<path d="M267.348 83.8327C273.952 84.5567 282.536 81.9598 284.404 73.0195L286.089 64.9524C287.956 56.0134 284.857 47.7663 276.584 45.9769C268.312 44.1874 260.614 50.0977 258.747 59.038L258 62.6093C257.765 63.8401 257.613 65.0857 257.544 66.3375C257.339 69.6446 257.039 74.6757 258.538 78.4241C259.954 81.9631 263.128 83.3701 267.348 83.8327Z" fill="#A4664E"/>
<path d="M262.101 63.2364C262.676 63.2364 263.143 62.7619 263.143 62.1765C263.143 61.5911 262.676 61.1166 262.101 61.1166C261.526 61.1166 261.059 61.5911 261.059 62.1765C261.059 62.7619 261.526 63.2364 262.101 63.2364Z" fill="#0C0C0C"/>
<path d="M271.994 64.2963C272.569 64.2963 273.035 63.8218 273.035 63.2364C273.035 62.6511 272.569 62.1765 271.994 62.1765C271.418 62.1765 270.952 62.6511 270.952 63.2364C270.952 63.8218 271.418 64.2963 271.994 64.2963Z" fill="#0C0C0C"/>
<path d="M283.321 75.6321C285.835 76.176 288.445 73.88 288.979 71.3217C289.514 68.7635 287.77 66.9122 285.257 66.3683L283.603 67.8021L281.16 75.1645L283.321 75.6321Z" fill="#A4664E"/>
<path d="M281.623 71.0025C281.623 71.0025 283.257 58.147 279.63 56.5973C277.217 55.5652 270.4 57.9601 264.961 55.7162C262.582 54.7338 260.112 54.8812 259.64 56.0216C259.453 56.4732 259.237 49.396 264.116 45.0476C268.001 41.5853 278.319 42.4782 282.648 44.75C294.634 51.0397 285.669 67.0323 285.669 67.0323L284.245 71.289L281.623 71.0025Z" fill="#0C0C0C"/>
<g opacity="0.52">
<path opacity="0.52" d="M264.811 71.9223L264.794 71.9196C263.984 71.7464 262.643 71.363 262.77 70.7471C262.876 70.236 265.389 65.0107 265.676 64.4168C265.7 64.3657 265.744 64.3266 265.797 64.3082C265.85 64.2898 265.907 64.2935 265.958 64.3185C266.008 64.3436 266.046 64.3879 266.064 64.4418C266.083 64.4956 266.079 64.5546 266.054 64.6057C264.939 66.9194 263.255 70.4878 263.183 70.8352C263.233 70.9989 264.042 71.3201 264.881 71.4992C264.933 71.5112 264.98 71.5433 265.01 71.5889C265.04 71.6346 265.052 71.6902 265.043 71.7444C265.034 71.7986 265.005 71.8473 264.962 71.8803C264.919 71.9134 264.865 71.9284 264.811 71.9223Z" fill="#0C0C0C"/>
</g>
<path d="M264.624 58.8609C263.827 58.4519 262.937 58.269 262.047 58.3314C261.61 58.3594 261.179 58.454 260.77 58.612C260.364 58.7664 259.98 58.9724 259.625 59.225C259.566 59.2634 259.524 59.324 259.508 59.3937C259.492 59.4634 259.504 59.5367 259.541 59.5976C259.578 59.6585 259.636 59.7023 259.705 59.7194C259.773 59.7364 259.845 59.7255 259.906 59.6889L259.924 59.6781C260.249 59.4729 260.599 59.3101 260.964 59.1935C261.324 59.0765 261.699 59.0156 262.077 59.0131C262.824 59.002 263.56 59.1919 264.212 59.5635L264.236 59.5783C264.282 59.6059 264.332 59.6241 264.385 59.6318C264.437 59.6395 264.491 59.6365 264.542 59.6231C264.594 59.6097 264.642 59.586 264.684 59.5535C264.727 59.521 264.762 59.4802 264.789 59.4336C264.816 59.387 264.834 59.3355 264.841 59.282C264.848 59.2284 264.845 59.174 264.831 59.1218C264.818 59.0695 264.794 59.0205 264.762 58.9776C264.73 58.9347 264.689 58.8987 264.643 58.8717L264.624 58.8609Z" fill="#0C0C0C"/>
<path d="M270.58 60.4989C271.303 60.31 272.063 60.319 272.782 60.5248C273.146 60.6262 273.493 60.7831 273.812 60.9901C274.135 61.1983 274.431 61.4471 274.694 61.7304L274.708 61.7451C274.758 61.7941 274.824 61.8216 274.893 61.8221C274.963 61.8225 275.029 61.7958 275.079 61.7474C275.129 61.6991 275.159 61.6329 275.163 61.5627C275.166 61.4925 275.143 61.4237 275.097 61.3706C274.819 61.0338 274.499 60.7342 274.146 60.4789C273.79 60.2193 273.398 60.0153 272.982 59.8738C272.138 59.5805 271.232 59.5239 270.359 59.7101C270.307 59.7216 270.258 59.7433 270.215 59.774C270.171 59.8047 270.134 59.8438 270.106 59.8891C270.048 59.9805 270.028 60.0915 270.051 60.1977C270.074 60.3038 270.137 60.3965 270.227 60.4552C270.317 60.5139 270.426 60.5339 270.53 60.5107L270.551 60.5055L270.58 60.4989Z" fill="#0C0C0C"/>
<path d="M263.536 73.9055C265.882 74.502 268.357 74.2859 270.569 73.2912C270.645 73.2573 270.73 73.2462 270.813 73.2592C270.895 73.2723 270.973 73.3091 271.035 73.3652C271.098 73.4213 271.144 73.4944 271.168 73.576C271.191 73.6577 271.192 73.7445 271.169 73.8263C270.757 75.2248 269.598 77.7228 266.596 77.5158C264.658 77.3829 263.545 75.6452 263.025 74.5306C262.989 74.4533 262.975 74.3672 262.986 74.2823C262.996 74.1975 263.03 74.1175 263.084 74.0517C263.138 73.986 263.209 73.9373 263.289 73.9114C263.369 73.8855 263.455 73.8835 263.536 73.9055Z" fill="white"/>
<path d="M272.846 46.8791C273.967 44.2014 273.426 41.4024 271.638 40.6273C269.85 39.8523 267.492 41.3948 266.371 44.0726C265.25 46.7503 265.791 49.5493 267.579 50.3243C269.367 51.0993 271.725 49.5568 272.846 46.8791Z" fill="#0C0C0C"/>
<path d="M275.55 102.494C286.519 101.967 286.981 92.4927 286.981 92.4927C286.981 92.4927 292.417 92.8502 296.03 93.3476C301.946 94.1619 305.848 96.2032 308.954 99.3633C311.843 102.303 313.602 105.484 311.741 125.791C310.393 140.495 311.342 172.837 311.342 172.837H244.492C244.492 172.837 239.824 126.113 239.27 119.494C238.214 106.858 235.23 104.069 241.275 97.5601C245.66 92.8398 256.978 92.4927 261.534 92.4933C261.608 92.4933 260.611 103.21 275.55 102.494Z" fill="#337A6F"/>
<path d="M239.112 100.486L221.828 137.772L187.744 111.69L174.206 130.009L219.339 164.545C219.743 164.851 220.165 165.131 220.602 165.384C221.892 166.119 223.311 166.588 224.779 166.765C226.247 166.943 227.735 166.824 229.157 166.416C230.58 166.008 231.91 165.318 233.071 164.387C234.232 163.456 235.202 162.302 235.924 160.989L236.12 160.635L262.489 112.741L239.112 100.486Z" fill="#337A6F"/>
<path d="M313.906 173.164H9.4751C9.38976 173.164 9.30791 173.13 9.24757 173.068C9.18722 173.007 9.15332 172.924 9.15332 172.837C9.15332 172.75 9.18722 172.667 9.24757 172.605C9.30791 172.544 9.38976 172.509 9.4751 172.509H313.906C313.992 172.509 314.074 172.544 314.134 172.605C314.194 172.667 314.228 172.75 314.228 172.837C314.228 172.924 314.194 173.007 314.134 173.068C314.074 173.13 313.992 173.164 313.906 173.164Z" fill="#292A2E"/>
<path d="M247.69 124.134H84.6702V180.836H247.69V124.134Z" fill="white"/>
<path d="M247.851 181H84.5093V123.97H247.851V181ZM84.8311 180.673H247.529V124.297H84.8311V180.673Z" fill="#0C0C0C"/>
<path d="M76.6205 141.463L86.6835 136.89C86.9047 136.789 87.1439 136.737 87.3861 136.735C87.6283 136.734 87.868 136.784 88.0901 136.883C88.3122 136.981 88.5117 137.125 88.676 137.306C88.8404 137.487 88.9658 137.701 89.0444 137.934C89.1765 138.369 89.1452 138.838 88.9566 139.251C88.7679 139.663 88.4354 139.99 88.0234 140.167L85.8656 141.15L94.0423 141.236C94.9517 141.229 96.0715 141.813 96.0116 142.851C96.0143 143.252 95.8832 143.642 95.6399 143.958C95.3965 144.273 95.0553 144.496 94.6717 144.589C94.674 144.597 94.6753 144.606 94.6756 144.615C94.6747 144.622 94.6733 144.628 94.6714 144.635L96.0737 144.625C96.3333 144.623 96.5899 144.68 96.8249 144.792C97.06 144.904 97.2675 145.068 97.4325 145.272C97.5975 145.476 97.7157 145.715 97.7786 145.971C97.8414 146.227 97.8474 146.494 97.7959 146.753C97.7065 147.159 97.4827 147.522 97.1619 147.78C96.8412 148.039 96.4429 148.177 96.0338 148.173L95.4373 148.177C95.4294 148.195 95.4185 148.211 95.4051 148.224C95.8088 148.317 96.1671 148.552 96.4159 148.888C96.6648 149.225 96.7879 149.64 96.7633 150.061C96.7234 150.52 96.5147 150.947 96.179 151.256C95.8432 151.566 95.4051 151.735 94.952 151.731L93.4699 151.741C93.4907 151.756 93.5078 151.776 93.5199 151.798C93.532 151.821 93.5387 151.846 93.5394 151.872C93.5381 151.903 93.528 151.933 93.5104 151.958C93.8476 152.142 94.1162 152.434 94.2747 152.788C94.4333 153.142 94.473 153.54 94.3879 153.919C94.2905 154.316 94.0645 154.667 93.7463 154.917C93.4282 155.166 93.0366 155.299 92.6349 155.294L80.1305 155.385C78.3813 155.398 76.6682 154.879 75.2109 153.894C73.7535 152.91 72.6182 151.505 71.9505 149.86C71.3747 148.441 71.3653 146.85 71.9241 145.424C72.4829 143.999 73.5659 142.851 74.943 142.225L76.6205 141.463Z" fill="#A4664E"/>
<g opacity="0.2">
<path opacity="0.2" d="M86.5776 144.543C86.5782 144.586 86.5954 144.627 86.6255 144.657C86.6557 144.688 86.6962 144.704 86.7385 144.704L94.5147 144.776C94.5573 144.776 94.5984 144.759 94.6289 144.729C94.6593 144.698 94.6766 144.657 94.677 144.613C94.6774 144.57 94.6608 144.528 94.6309 144.497C94.601 144.466 94.5602 144.448 94.5176 144.448L86.7414 144.377C86.6988 144.377 86.6578 144.394 86.6276 144.425C86.5975 144.455 86.5805 144.497 86.5805 144.54L86.5776 144.543Z" fill="#0C0C0C"/>
</g>
<g opacity="0.2">
<path opacity="0.2" d="M86.4523 148.033C86.4529 148.076 86.4701 148.117 86.5002 148.147C86.5303 148.178 86.5709 148.195 86.6132 148.195L95.2913 148.274C95.334 148.274 95.3749 148.257 95.4051 148.226C95.4352 148.195 95.4522 148.154 95.4522 148.11C95.4507 148.067 95.4333 148.027 95.4035 147.996C95.3736 147.966 95.3335 147.948 95.2913 147.947L86.6132 147.867C86.5919 147.867 86.5708 147.871 86.5511 147.879C86.5314 147.887 86.5135 147.899 86.4984 147.914C86.4833 147.93 86.4713 147.948 86.4631 147.968C86.4549 147.988 86.4507 148.009 86.4507 148.031L86.4523 148.033Z" fill="#0C0C0C"/>
</g>
<g opacity="0.2">
<path opacity="0.2" d="M86.2949 151.81C86.2955 151.853 86.3127 151.894 86.3428 151.924C86.3729 151.954 86.4135 151.971 86.4558 151.971L93.3783 152.035C93.421 152.035 93.462 152.018 93.4925 151.988C93.5229 151.957 93.5402 151.916 93.5406 151.873C93.541 151.829 93.5244 151.787 93.4945 151.756C93.4646 151.725 93.4239 151.708 93.3812 151.707L86.4587 151.644C86.416 151.644 86.3751 151.661 86.3449 151.692C86.3148 151.722 86.2978 151.764 86.2978 151.808L86.2949 151.81Z" fill="#0C0C0C"/>
</g>
<path d="M79.5007 159.695L23.7081 172.601C21.8546 172.807 19.9796 172.572 18.2302 171.916C16.4808 171.26 14.9046 170.2 13.6252 168.82C12.3458 167.441 11.3981 165.778 10.8563 163.962C10.3146 162.147 10.1936 160.229 10.5028 158.358L16.8876 106.099C17.4186 102.888 19.1816 100.022 21.7887 98.1335C24.3957 96.2448 27.6334 95.4872 30.7894 96.0275C33.9453 96.5679 36.7611 98.3618 38.6173 101.015C40.4734 103.668 41.2179 106.962 40.6869 110.174L37.6122 147.578L76.3753 138.652L79.5007 159.695Z" fill="#337A6F"/>
<path d="M29.7682 149.048C29.7278 149.048 29.689 149.032 29.6595 149.004C29.63 148.976 29.612 148.937 29.6091 148.896C29.6061 148.855 29.6184 148.815 29.6436 148.783C29.6687 148.75 29.7048 148.729 29.7447 148.723L37.5193 147.033C37.5402 147.03 37.5616 147.031 37.5821 147.036C37.6027 147.041 37.6221 147.05 37.6392 147.063C37.6562 147.076 37.6705 147.092 37.6813 147.111C37.6921 147.129 37.6992 147.15 37.702 147.171C37.7083 147.214 37.6976 147.258 37.6723 147.292C37.6469 147.327 37.609 147.351 37.5669 147.357L29.7923 149.046C29.7844 149.048 29.7763 149.048 29.7682 149.048Z" fill="#0C0C0C"/>
<path d="M25.3819 172.837C25.3392 172.84 25.2972 172.825 25.2651 172.796C25.2329 172.768 25.2133 172.727 25.2105 172.684C25.2078 172.64 25.2221 172.597 25.2503 172.565C25.2785 172.532 25.3183 172.512 25.361 172.509L79.1505 159.618L76.1026 138.891L37.571 147.355C37.546 147.358 37.5207 147.356 37.497 147.347C37.4733 147.339 37.4518 147.325 37.4342 147.307C37.4166 147.288 37.4036 147.266 37.3961 147.242C37.3886 147.217 37.3869 147.191 37.3911 147.166L39.5525 125.794C39.5557 125.773 39.5631 125.752 39.5742 125.734C39.5854 125.715 39.6 125.7 39.6173 125.687C39.6346 125.675 39.6541 125.666 39.6748 125.661C39.6955 125.656 39.717 125.656 39.7378 125.66C39.7799 125.667 39.8174 125.691 39.8422 125.726C39.8669 125.762 39.8768 125.806 39.8698 125.848L37.746 147.001L76.1776 138.53C76.1982 138.524 76.2199 138.523 76.2411 138.525C76.2624 138.528 76.2829 138.535 76.3014 138.546C76.3199 138.557 76.3361 138.572 76.3489 138.59C76.3618 138.607 76.3712 138.627 76.3764 138.648L79.5019 159.693C79.5117 159.735 79.5054 159.778 79.4842 159.815C79.463 159.852 79.4286 159.879 79.3883 159.89L25.4028 172.835C25.3959 172.836 25.3889 172.837 25.3819 172.837Z" fill="#0C0C0C"/>
<path d="M252.715 151.286L242.652 146.712C242.431 146.612 242.192 146.56 241.95 146.558C241.708 146.557 241.468 146.607 241.246 146.706C241.024 146.804 240.824 146.948 240.66 147.129C240.496 147.31 240.37 147.524 240.292 147.757C240.16 148.192 240.191 148.661 240.38 149.074C240.568 149.487 240.901 149.813 241.313 149.99L243.471 150.973L235.294 151.059C234.385 151.052 233.264 151.636 233.325 152.674C233.322 153.075 233.453 153.465 233.696 153.781C233.94 154.096 234.281 154.319 234.664 154.411C234.662 154.42 234.661 154.429 234.66 154.438C234.661 154.445 234.663 154.451 234.664 154.458L233.262 154.448C233.003 154.446 232.746 154.503 232.511 154.615C232.276 154.727 232.069 154.891 231.904 155.095C231.739 155.299 231.62 155.538 231.557 155.794C231.494 156.05 231.489 156.317 231.54 156.576C231.63 156.982 231.853 157.345 232.174 157.603C232.495 157.862 232.893 158 233.302 157.996L233.899 158C233.907 158.017 233.918 158.034 233.931 158.047C233.527 158.14 233.169 158.375 232.92 158.711C232.671 159.048 232.548 159.463 232.573 159.884C232.613 160.343 232.822 160.77 233.157 161.079C233.493 161.389 233.931 161.558 234.385 161.554L235.867 161.564C235.846 161.579 235.829 161.599 235.816 161.621C235.804 161.644 235.798 161.669 235.797 161.695C235.798 161.726 235.808 161.756 235.826 161.781C235.489 161.965 235.22 162.257 235.062 162.611C234.903 162.965 234.863 163.363 234.948 163.742C235.046 164.139 235.272 164.49 235.59 164.74C235.908 164.989 236.3 165.122 236.702 165.117L249.206 165.208C250.955 165.221 252.669 164.701 254.126 163.717C255.583 162.732 256.719 161.327 257.386 159.682C257.962 158.263 257.971 156.672 257.412 155.246C256.854 153.821 255.771 152.673 254.394 152.047L252.715 151.286Z" fill="#A4664E"/>
<g opacity="0.2">
<path opacity="0.2" d="M242.758 154.366C242.758 154.409 242.741 154.45 242.71 154.48C242.68 154.51 242.64 154.527 242.597 154.527L234.821 154.598C234.8 154.599 234.779 154.595 234.76 154.586C234.74 154.578 234.722 154.567 234.707 154.551C234.692 154.536 234.68 154.518 234.672 154.499C234.663 154.479 234.659 154.458 234.659 154.436C234.659 154.415 234.663 154.393 234.671 154.373C234.679 154.353 234.69 154.335 234.705 154.32C234.72 154.305 234.737 154.292 234.757 154.284C234.776 154.276 234.797 154.271 234.818 154.271L242.595 154.2C242.637 154.2 242.678 154.217 242.708 154.248C242.738 154.278 242.755 154.32 242.755 154.363L242.758 154.366Z" fill="#0C0C0C"/>
</g>
<g opacity="0.2">
<path opacity="0.2" d="M242.884 157.856C242.883 157.899 242.866 157.94 242.836 157.97C242.807 158 242.766 158.017 242.724 158.017L234.046 158.097C234.003 158.097 233.962 158.08 233.932 158.049C233.902 158.018 233.885 157.977 233.885 157.933C233.886 157.89 233.904 157.85 233.934 157.819C233.964 157.789 234.004 157.771 234.046 157.77L242.724 157.69C242.767 157.69 242.808 157.707 242.838 157.738C242.868 157.769 242.885 157.81 242.885 157.854L242.884 157.856Z" fill="#0C0C0C"/>
</g>
<g opacity="0.2">
<path opacity="0.2" d="M243.041 161.633C243.041 161.676 243.024 161.717 242.993 161.747C242.963 161.777 242.923 161.794 242.88 161.794L235.958 161.858C235.937 161.858 235.916 161.854 235.896 161.846C235.877 161.838 235.859 161.826 235.844 161.811C235.829 161.796 235.817 161.778 235.808 161.758C235.8 161.738 235.796 161.717 235.796 161.696C235.795 161.674 235.799 161.653 235.807 161.633C235.815 161.613 235.827 161.595 235.842 161.579C235.857 161.564 235.874 161.552 235.894 161.543C235.913 161.535 235.934 161.531 235.955 161.53L242.878 161.467C242.92 161.467 242.961 161.484 242.991 161.515C243.022 161.545 243.038 161.587 243.038 161.631L243.041 161.633Z" fill="#0C0C0C"/>
</g>
<path d="M253.053 169.519L305.628 172.601C307.481 172.807 309.356 172.572 311.105 171.916C312.855 171.26 314.431 170.201 315.71 168.821C316.99 167.441 317.938 165.778 318.479 163.962C319.021 162.147 319.142 160.229 318.833 158.358L312.449 106.097C312.186 104.507 311.618 102.985 310.777 101.619C309.936 100.252 308.839 99.0672 307.548 98.132C306.257 97.1968 304.798 96.5295 303.254 96.1681C301.709 95.8068 300.11 95.7585 298.548 96.026C296.985 96.2936 295.489 96.8717 294.146 97.7274C292.803 98.5831 291.639 99.6996 290.72 101.013C289.801 102.327 289.145 103.812 288.79 105.383C288.435 106.955 288.387 108.582 288.65 110.172L291.725 149.869L253.283 148.473L253.053 169.519Z" fill="#337A6F"/>
<path d="M299.567 149.703C299.608 149.703 299.647 149.687 299.676 149.659C299.706 149.631 299.724 149.592 299.727 149.551C299.73 149.51 299.718 149.47 299.692 149.438C299.667 149.405 299.631 149.384 299.591 149.378L291.817 149.325C291.796 149.322 291.774 149.323 291.754 149.328C291.733 149.333 291.714 149.342 291.697 149.355C291.68 149.368 291.665 149.384 291.654 149.403C291.644 149.421 291.636 149.442 291.634 149.463C291.627 149.506 291.638 149.55 291.663 149.585C291.689 149.619 291.727 149.643 291.769 149.649L299.544 149.701C299.551 149.702 299.559 149.703 299.567 149.703Z" fill="#0C0C0C"/>
<path d="M303.954 172.837C303.997 172.839 304.039 172.825 304.071 172.796C304.103 172.767 304.123 172.727 304.126 172.683C304.128 172.64 304.114 172.597 304.086 172.565C304.057 172.532 304.018 172.512 303.975 172.509L253.403 169.442L253.554 148.715L291.764 149.649C291.789 149.652 291.814 149.649 291.838 149.641C291.862 149.632 291.883 149.618 291.901 149.6C291.918 149.582 291.931 149.559 291.939 149.535C291.946 149.51 291.948 149.484 291.944 149.459L289.783 125.795C289.78 125.774 289.772 125.754 289.761 125.735C289.75 125.717 289.735 125.701 289.718 125.688C289.701 125.676 289.681 125.667 289.66 125.662C289.64 125.658 289.618 125.657 289.597 125.661C289.577 125.665 289.557 125.672 289.539 125.684C289.521 125.695 289.505 125.71 289.493 125.727C289.481 125.745 289.472 125.765 289.467 125.786C289.462 125.807 289.462 125.828 289.465 125.85L291.591 149.294L253.481 148.354C253.46 148.348 253.438 148.347 253.417 148.35C253.396 148.353 253.375 148.36 253.357 148.371C253.338 148.382 253.322 148.396 253.309 148.414C253.297 148.431 253.287 148.451 253.282 148.473L253.052 169.518C253.042 169.559 253.049 169.603 253.07 169.639C253.091 169.676 253.125 169.703 253.166 169.714L303.932 172.833C303.939 172.835 303.947 172.836 303.954 172.837Z" fill="#0C0C0C"/>
<path d="M123.319 161.234H119.046L116.649 151.773C116.56 151.437 116.409 150.741 116.195 149.685C115.981 148.63 115.858 147.922 115.826 147.56C115.777 148.004 115.656 148.716 115.462 149.698C115.268 150.679 115.119 151.379 115.015 151.798L112.63 161.234H108.369L103.853 143.225H107.545L109.809 153.055C110.205 154.87 110.491 156.443 110.668 157.773C110.717 157.305 110.828 156.58 111.001 155.599C111.175 154.618 111.339 153.856 111.492 153.314L114.07 143.225H117.617L120.196 153.314C120.309 153.766 120.45 154.456 120.619 155.383C120.789 156.311 120.918 157.108 121.006 157.774C121.086 157.133 121.215 156.335 121.392 155.378C121.569 154.421 121.729 153.647 121.874 153.056L124.127 143.225H127.819L123.319 161.234Z" fill="#0CBC8B"/>
<path d="M140.243 161.234H130.05V143.225H140.243V146.354H133.803V150.308H139.795V153.436H133.803V158.08H140.243V161.234Z" fill="#0CBC8B"/>
<path d="M143.935 161.234V143.225H147.688V158.082H154.867V161.235L143.935 161.234Z" fill="#0CBC8B"/>
<path d="M165.46 146.143C164.824 146.114 164.19 146.247 163.617 146.53C163.044 146.812 162.549 147.237 162.178 147.763C161.403 148.843 161.016 150.348 161.016 152.278C161.016 156.295 162.497 158.303 165.458 158.303C167.005 158.242 168.531 157.921 169.974 157.354V160.556C168.428 161.19 166.774 161.505 165.108 161.48C162.533 161.48 160.564 160.686 159.2 159.097C157.835 157.507 157.153 155.226 157.154 152.253C157.117 150.556 157.461 148.873 158.159 147.332C158.778 145.98 159.784 144.851 161.046 144.092C162.39 143.317 163.914 142.928 165.458 142.965C167.257 142.985 169.028 143.418 170.639 144.234L169.428 147.338C168.778 147.023 168.111 146.743 167.431 146.5C166.798 146.269 166.132 146.149 165.46 146.143Z" fill="#0CBC8B"/>
<path d="M189.804 152.204C189.804 155.185 189.078 157.477 187.625 159.078C186.172 160.68 184.09 161.481 181.378 161.48C178.667 161.48 176.585 160.68 175.132 159.078C173.679 157.477 172.953 155.177 172.953 152.18C172.953 149.182 173.681 146.893 175.138 145.312C176.595 143.732 178.683 142.941 181.403 142.941C184.122 142.941 186.203 143.737 187.643 145.331C189.084 146.924 189.805 149.216 189.804 152.204ZM176.887 152.204C176.887 154.216 177.263 155.732 178.014 156.75C178.764 157.768 179.886 158.277 181.379 158.277C184.373 158.277 185.87 156.253 185.87 152.204C185.87 148.147 184.381 146.119 181.403 146.119C179.91 146.119 178.784 146.63 178.024 147.653C177.265 148.675 176.886 150.192 176.887 152.204Z" fill="#0CBC8B"/>
<path d="M200.966 161.234L196.705 147.105H196.596C196.749 149.979 196.826 151.897 196.826 152.857V161.234H193.472V143.225H198.581L202.77 156.997H202.842L207.285 143.225H212.394V161.234H208.896V152.709C208.896 152.307 208.902 151.843 208.913 151.317C208.925 150.791 208.98 149.395 209.077 147.129H208.968L204.404 161.234H200.966Z" fill="#0CBC8B"/>
<path d="M227.042 161.234H216.848V143.225H227.041V146.354H220.602V150.308H226.594V153.436H220.602V158.08H227.042V161.234Z" fill="#0CBC8B"/>
</svg>
