<svg width="427" height="268" viewBox="0 0 427 268" fill="none" xmlns="http://www.w3.org/2000/svg">
<path d="M384.837 268H40.2114C25.6617 268 13.8654 256.165 13.8654 241.566V241.419H411.183V241.566C411.183 256.167 399.387 268 384.837 268Z" fill="#C8C7D6"/>
<path d="M395.72 199.83L352.183 163.602C349.418 161.301 349.034 157.183 351.33 154.406L370.42 131.311C372.714 128.537 376.818 128.151 379.585 130.455L423.122 166.682C425.888 168.984 426.272 173.101 423.978 175.878L404.887 198.973C402.589 201.748 398.488 202.133 395.72 199.83Z" fill="#CCC7FD"/>
<path d="M423.12 166.685L379.583 130.455C377.647 128.842 375.055 128.549 372.885 129.469C374.07 129.619 375.23 130.098 376.219 130.922L419.758 167.15C422.524 169.451 422.908 173.569 420.612 176.346L401.521 199.441C400.833 200.273 399.983 200.889 399.054 201.285C401.188 201.556 403.411 200.76 404.885 198.975L423.976 175.88C426.27 173.103 425.888 168.986 423.12 166.685Z" fill="#A4AACD"/>
<path d="M387.347 148.936L387.903 145.188C388.064 144.104 387.572 143.026 386.649 142.438L364.782 128.526C363.493 127.706 361.786 128.09 360.969 129.383L351.554 144.28L351.593 144.305L333.849 172.384C333.032 173.677 333.414 175.391 334.702 176.21L399.207 217.246C400.496 218.066 402.203 217.682 403.02 216.389L426.57 179.125C427.387 177.831 427.005 176.118 425.716 175.298L388.599 151.687C387.676 151.099 387.186 150.021 387.347 148.936Z" fill="url(#paint0_linear_820_974)"/>
<path d="M381.722 143.76L366.447 134.041C364.882 133.045 362.799 133.513 361.808 135.084L352.073 150.49L352.112 150.515L337.145 174.196C336.723 174.866 337.732 175.509 338.157 174.839L353.762 150.144L353.723 150.119L362.817 135.728C363.457 134.716 364.797 134.414 365.806 135.056L381.081 144.772C381.36 144.95 381.73 144.866 381.906 144.586C382.083 144.307 382.002 143.936 381.722 143.76Z" fill="url(#paint1_linear_820_974)"/>
<path d="M159.372 144.713C183.82 120.184 183.82 80.4151 159.372 55.8862C134.924 31.3573 95.287 31.3573 70.8393 55.8862C46.3917 80.4151 46.3917 120.184 70.8393 144.713C95.287 169.242 134.924 169.242 159.372 144.713Z" fill="#81A5E1"/>
<path d="M158.221 143.558C182.033 119.667 182.033 80.9322 158.221 57.0412C134.409 33.1502 95.8024 33.1502 71.9905 57.0412C48.1786 80.9322 48.1786 119.667 71.9905 143.558C95.8024 167.449 134.409 167.449 158.221 143.558Z" fill="#FFAB00"/>
<path d="M154.254 139.745C175.819 118.109 175.819 83.0291 154.254 61.3926C132.689 39.7562 97.7255 39.7562 76.1607 61.3926C54.5959 83.0291 54.5959 118.109 76.1607 139.745C97.7255 161.382 132.689 161.382 154.254 139.745Z" fill="#81A5E1"/>
<path d="M152.119 137.436C172.56 116.926 172.56 83.6735 152.119 63.1639C131.677 42.6543 98.5345 42.6543 78.0929 63.1639C57.6512 83.6735 57.6512 116.926 78.0929 137.436C98.5345 157.945 131.677 157.945 152.119 137.436Z" fill="#CCC7FD"/>
<path d="M73.731 113.299L65.3664 116.506C63.9917 117.033 63.3013 118.582 63.8263 119.962C64.3512 121.341 65.8975 122.034 67.2702 121.507L75.6348 118.3C77.0095 117.773 77.6999 116.224 77.1749 114.844C76.65 113.465 75.1037 112.772 73.731 113.299Z" fill="#81A5E1"/>
<path d="M129.603 138.357C128.229 138.884 127.538 140.433 128.063 141.813L131.26 150.205C131.785 151.584 133.331 152.277 134.704 151.75C136.078 151.224 136.769 149.674 136.244 148.295L133.047 139.903C132.524 138.523 130.978 137.831 129.603 138.357Z" fill="#81A5E1"/>
<path d="M162.943 79.092L154.579 82.2994C153.204 82.8261 152.513 84.3775 153.038 85.7547C153.563 87.134 155.11 87.8267 156.482 87.3L164.847 84.0926C166.222 83.5659 166.912 82.0166 166.387 80.6373C165.862 79.258 164.318 78.5653 162.943 79.092Z" fill="#81A5E1"/>
<path d="M95.5096 48.8487C94.1349 49.3754 93.4445 50.9247 93.9695 52.304L97.1662 60.6964C97.6912 62.0757 99.2374 62.7684 100.61 62.2417C101.985 61.715 102.675 60.1656 102.15 58.7863L98.9535 50.3939C98.4286 49.0147 96.8843 48.322 95.5096 48.8487Z" fill="#81A5E1"/>
<path d="M115.442 29.5881L116.451 19.6976C116.534 18.886 117.256 18.2958 118.064 18.3778L129.372 19.5398C130.181 19.6238 130.77 20.3473 130.688 21.1589L129.679 31.0494C129.595 31.861 128.872 32.4532 128.063 32.3692L116.759 31.2092C115.948 31.1252 115.358 30.3997 115.442 29.5881Z" fill="#FFAB00"/>
<path d="M129.738 18.7774L129.779 18.3798C129.857 17.6133 129.524 16.9514 129.035 16.9001L118.926 15.8611C118.438 15.8098 117.979 16.3919 117.901 17.1584L117.86 17.556L129.738 18.7774Z" fill="#FFAB00"/>
<path d="M127.034 37.3801L127.469 33.1091L117.186 32.0536L116.757 36.257C120.226 36.3533 123.663 36.7324 127.034 37.3801Z" fill="#FFAB00"/>
<path d="M68.4365 47.6129L61.1116 40.9194C60.5111 40.3702 59.5796 40.4132 59.0322 41.0178L51.3785 49.4491C50.831 50.0517 50.8739 50.9862 51.4765 51.5355L58.8014 58.2289C59.404 58.7781 60.3354 58.7351 60.8828 58.1305L68.5346 49.7012C69.0799 49.0966 69.0371 48.1621 68.4365 47.6129Z" fill="#FFAB00"/>
<path d="M50.5961 49.1233L50.302 48.8548C49.7341 48.3363 49.5421 47.619 49.873 47.2563L56.7159 39.7185C57.0468 39.3537 57.776 39.4807 58.3438 39.9992L58.638 40.2677L50.5961 49.1233Z" fill="#FFAB00"/>
<path d="M71.7129 53.3041L68.7736 50.6194L61.8143 58.2863L64.7353 60.9567C66.8412 58.233 69.1719 55.6732 71.7129 53.3041Z" fill="#FFAB00"/>
<path d="M82.6492 32.6582C81.9118 32.941 81.0804 32.568 80.7986 31.8282L78.2514 25.1429C77.9695 24.401 78.3392 23.569 79.0787 23.2862L92.6765 18.0724C93.4139 17.7896 94.2452 18.1626 94.5271 18.9024L97.0743 25.5877C97.3562 26.3296 96.9865 27.1616 96.247 27.4444L82.6492 32.6582Z" fill="#FFAB00"/>
<path d="M92.4457 17.4965L92.3354 17.2076C92.1209 16.6481 91.4958 16.3673 90.9382 16.5804L79.383 21.0113C78.8254 21.2244 78.5455 21.8536 78.758 22.4131L78.8683 22.7021L92.4457 17.4965Z" fill="#FFAB00"/>
<path d="M103.513 12.5041C99.697 2.48858 88.4727 -2.54482 78.4904 1.28146C68.508 5.10979 63.4913 16.3714 67.3049 26.3869C70.5486 34.9044 79.1522 39.8189 87.7925 38.745L86.4179 35.138C79.7446 35.5725 73.2816 31.654 70.7692 25.0569C67.6807 16.9452 71.7292 7.85807 79.812 4.75934C87.8967 1.66061 96.9538 5.72257 100.042 13.8322C102.555 20.4293 100.345 27.6719 95.0827 31.8138L96.4574 35.4208C103.613 30.4407 106.756 21.0215 103.513 12.5041Z" fill="#FFAB00"/>
<path d="M92.3129 40.4583C93.9 39.8496 95.4953 39.3106 97.0968 38.8352L93.4221 29.1885L85.9113 32.068L89.539 41.5937C90.4521 41.1961 91.3753 40.817 92.3129 40.4583Z" fill="#FFAB00"/>
<path d="M119.404 98.5862C120.309 100.964 119.123 103.626 116.755 104.534C114.386 105.442 111.732 104.251 110.827 101.876C109.922 99.4982 111.109 96.836 113.477 95.9281C115.844 95.0202 118.497 96.2109 119.404 98.5862Z" fill="#979FCE"/>
<path d="M121.192 62.7438L116.714 100.478C116.602 101.429 115.742 102.107 114.794 101.994C113.846 101.882 113.17 101.019 113.283 100.068C113.301 99.9163 112.96 101.574 121.192 62.7438Z" fill="#979FCE"/>
<path d="M116.867 99.5597C117.237 100.531 116.753 101.619 115.785 101.99C114.817 102.361 113.732 101.876 113.362 100.904C112.993 99.9327 113.477 98.8444 114.445 98.4735C115.413 98.1025 116.498 98.5882 116.867 99.5597Z" fill="#14D0B5"/>
<path d="M149.029 114.031C148.961 114.057 148.884 114.057 148.812 114.029L115.372 100.367C115.221 100.306 115.148 100.131 115.209 99.9798C115.27 99.8281 115.444 99.7544 115.595 99.8158L149.035 113.477C149.186 113.539 149.26 113.713 149.198 113.865C149.166 113.945 149.102 114.002 149.029 114.031Z" fill="#14D0B5"/>
<path d="M134.706 69.3778V148.998C161.06 138.331 174.192 108.294 164.003 81.5514C160.794 73.1282 155.645 66.0106 149.262 60.5119H143.542C138.662 60.5099 134.706 64.4796 134.706 69.3778Z" fill="#6090FE"/>
<path d="M134.706 69.3778V152.406C134.779 152.38 134.851 152.353 134.924 152.324C163.411 141.399 177.681 109.372 166.794 80.789C163.77 72.8495 159.123 66.0126 153.378 60.5099H143.542C138.662 60.5099 134.706 64.4796 134.706 69.3778Z" fill="#6090FE"/>
<path d="M134.706 69.3778V158.231C135.431 157.983 136.154 157.722 136.875 157.446C168.281 145.403 184.066 109.971 172.064 78.4608C169.496 71.7203 165.862 65.699 161.428 60.5119H143.542C138.662 60.5099 134.706 64.4796 134.706 69.3778Z" fill="#6090FE"/>
<path d="M134.706 69.3778V159.954C135.625 159.649 136.542 159.323 137.457 158.973C169.702 146.608 185.911 110.229 173.587 77.8767C171.126 71.4128 167.707 65.5904 163.556 60.5119H143.544C138.662 60.5099 134.706 64.4796 134.706 69.3778Z" fill="#E34830"/>
<path d="M117.16 241.419H149.558C150.659 241.419 151.553 240.523 151.553 239.417V97.9222C151.553 96.8175 150.661 95.9199 149.558 95.9199H117.16C116.059 95.9199 115.164 96.8155 115.164 97.9222V239.419C115.166 240.523 116.059 241.419 117.16 241.419Z" fill="#FF5136"/>
<path d="M154.497 241.42H190.885V95.9214H154.497V241.42Z" fill="#F2F1FD"/>
<path d="M195.032 241.42H231.419V95.9214H195.032V241.42Z" fill="#F2F1FD"/>
<path d="M83.4479 241.419H110.494C111.595 241.419 112.49 240.523 112.49 239.417V119.253C112.49 118.148 111.597 117.25 110.494 117.25H83.4479C82.3469 117.25 81.4522 118.146 81.4522 119.253V239.419C81.4522 240.523 82.3469 241.419 83.4479 241.419Z" fill="#5AC1C6"/>
<path d="M48.6658 241.419H75.7124C76.8134 241.419 77.708 240.523 77.708 239.417V172.195C77.708 171.091 76.8154 170.195 75.7124 170.195H48.6658C47.5648 170.195 46.6702 171.091 46.6702 172.195V239.419C46.6702 240.523 47.5628 241.419 48.6658 241.419Z" fill="#5380D5"/>
<path d="M14.0268 241.419H41.0733C42.1743 241.419 43.069 240.523 43.069 239.417V198.053C43.069 196.948 42.1764 196.051 41.0733 196.051H14.0268C12.9258 196.051 12.0311 196.946 12.0311 198.053V239.419C12.0332 240.523 12.9258 241.419 14.0268 241.419Z" fill="#FF391D"/>
<path d="M32.3574 233.154L31.7283 238.802L33.5789 240.63L36.0137 239.177C36.0137 239.177 35.6726 238.121 35.5419 237.218C35.4112 236.314 37.1372 232.043 37.1372 232.043L32.3574 233.154Z" fill="#E76A53"/>
<path d="M31.5322 237.699C31.5322 237.699 30.8663 238.634 30.6947 240.212C30.5211 241.79 30.9643 243.272 30.9643 243.272C30.9643 243.272 38.5813 243.702 41.5656 243.147C44.5479 242.591 44.8134 242.067 44.7399 241.22C44.6663 240.372 40.6178 240.626 39.4066 239.609C38.1953 238.591 36.5081 236.408 35.7911 236.763C35.0741 237.117 35.2151 238.48 34.2469 238.566C33.2766 238.648 31.9652 237.181 31.5322 237.699Z" fill="#09434C"/>
<path d="M8.37277 233.275L3.79931 236.627L3.70739 239.232L6.42001 240.05C6.42001 240.05 6.96335 239.085 7.53937 238.378C8.1154 237.671 12.4192 236.06 12.4192 236.06L8.37277 233.275Z" fill="#E76A53"/>
<path d="M4.47746 235.736C4.47746 235.736 3.34175 235.875 2.06511 236.814C0.790501 237.753 0 239.081 0 239.081C0 239.081 4.83288 245.003 7.25749 246.834C9.6821 248.664 10.2459 248.506 10.8178 247.879C11.3897 247.252 8.46673 244.43 8.39728 242.845C8.32579 241.261 8.79151 238.537 8.04595 238.248C7.30039 237.959 6.3955 238.984 5.67649 238.326C4.95952 237.668 5.14949 235.705 4.47746 235.736Z" fill="#09434C"/>
<path d="M18.9516 188.745C18.9516 188.745 22.3301 211.876 22.3301 214.744C22.3301 217.611 6.21574 232.809 6.21574 232.809C6.21574 232.809 6.75909 237.98 10.6278 238.505C11.5715 238.634 29.5896 222.47 30.6253 220.054C31.8141 217.285 35.0721 197.67 35.0721 197.67C35.0721 197.67 42.3827 208.698 42.0599 210.973C41.5554 214.541 30.6253 233.678 30.6253 233.678C30.6253 233.678 32.1164 236.99 37.4211 234.703C37.4211 234.703 52.0158 216.035 54.183 213.86C56.3502 211.686 38.4874 182.291 38.4874 182.291L18.9516 188.745Z" fill="#0099A0"/>
<path d="M28.311 189.962C28.1904 188.724 27.9494 187.353 27.6083 185.886L18.9495 188.747C18.9495 188.747 19.401 191.833 19.9729 195.889C21.7398 196.832 23.4495 197.453 24.4197 197.26C26.1008 196.926 28.315 194.364 28.315 189.96C28.3171 189.96 28.313 189.96 28.311 189.962Z" fill="#0D5965"/>
<path d="M18.9516 188.745C20.7409 196.662 22.8735 209.925 23.1186 214.606C23.6721 217.76 9.19595 230.393 6.21574 232.809C11.6246 226.784 21.0923 216.943 21.5192 214.828C21.3946 213.879 21.9114 217.342 20.8124 207.638C20.5857 205.544 20.3242 203.453 20.1098 201.357C19.6522 197.166 19.2294 192.966 18.9516 188.745Z" fill="#007378"/>
<path d="M38.4588 183.777C38.4159 183.777 38.373 183.775 38.3301 183.775C38.373 183.777 38.4159 183.777 38.4588 183.777Z" fill="#0099A0"/>
<path d="M38.134 183.775C38.0952 183.775 38.0543 183.775 38.0135 183.775C38.0543 183.775 38.0931 183.775 38.134 183.775Z" fill="#0099A0"/>
<path d="M39.9029 183.881C39.8621 183.875 39.8192 183.871 39.7763 183.865C39.8192 183.871 39.86 183.877 39.9029 183.881Z" fill="#0099A0"/>
<path d="M38.6365 183.783C38.5895 183.781 38.5425 183.781 38.4935 183.779C38.5405 183.779 38.5895 183.781 38.6365 183.783Z" fill="#0099A0"/>
<path d="M37.9788 183.775C37.9318 183.775 37.8868 183.777 37.8399 183.777C37.8868 183.777 37.9318 183.777 37.9788 183.775Z" fill="#0099A0"/>
<path d="M15.6936 146.344C15.7283 146.352 15.761 146.36 15.7957 146.369C15.763 146.36 15.7283 146.352 15.6936 146.344Z" fill="#0099A0"/>
<path d="M37.6519 183.783C37.6029 183.785 37.5539 183.787 37.5049 183.789C37.5559 183.787 37.6029 183.785 37.6519 183.783Z" fill="#0099A0"/>
<path d="M37.4865 183.789C37.4456 183.791 37.4027 183.793 37.3619 183.795C37.4048 183.793 37.4456 183.791 37.4865 183.789Z" fill="#0099A0"/>
<path d="M37.799 183.779C37.7622 183.779 37.7234 183.781 37.6867 183.783C37.7255 183.781 37.7622 183.779 37.799 183.779Z" fill="#0099A0"/>
<path d="M16.1348 146.455C16.1634 146.463 16.194 146.469 16.2226 146.477C16.194 146.469 16.1654 146.461 16.1348 146.455Z" fill="#0099A0"/>
<path d="M39.5781 183.844C39.5414 183.84 39.5046 183.836 39.4658 183.834C39.5046 183.838 39.5414 183.842 39.5781 183.844Z" fill="#0099A0"/>
<path d="M16.6659 146.596C16.6924 146.604 16.719 146.61 16.7435 146.619C16.719 146.61 16.6924 146.602 16.6659 146.596Z" fill="#0099A0"/>
<path d="M39.1083 183.805C39.0614 183.801 39.0123 183.799 38.9653 183.797C39.0144 183.799 39.0614 183.801 39.1083 183.805Z" fill="#0099A0"/>
<path d="M38.9429 183.795C38.902 183.793 38.8591 183.791 38.8183 183.789C38.8612 183.791 38.902 183.793 38.9429 183.795Z" fill="#0099A0"/>
<path d="M16.2369 146.481C16.2716 146.489 16.3043 146.5 16.3391 146.508C16.3064 146.498 16.2716 146.489 16.2369 146.481Z" fill="#0099A0"/>
<path d="M15.9203 146.399C15.9877 146.416 16.0531 146.432 16.1205 146.451C16.0551 146.434 15.9877 146.416 15.9203 146.399Z" fill="#0099A0"/>
<path d="M35.8483 183.943C35.8013 183.949 35.7543 183.957 35.7073 183.963C35.7523 183.957 35.7993 183.949 35.8483 183.943Z" fill="#0099A0"/>
<path d="M35.691 183.965C35.6481 183.971 35.6032 183.978 35.5603 183.986C35.6052 183.98 35.6481 183.971 35.691 183.965Z" fill="#0099A0"/>
<path d="M14.4537 146.076C14.4884 146.082 14.5231 146.09 14.5579 146.096C14.5231 146.088 14.4884 146.082 14.4537 146.076Z" fill="#0099A0"/>
<path d="M36.1812 183.9C36.1343 183.906 36.0852 183.912 36.0382 183.918C36.0852 183.91 36.1322 183.906 36.1812 183.9Z" fill="#0099A0"/>
<path d="M35.1844 184.047C35.1477 184.053 35.1088 184.06 35.0721 184.068C35.1109 184.062 35.1477 184.053 35.1844 184.047Z" fill="#0099A0"/>
<path d="M35.5174 183.992C35.4765 183.998 35.4357 184.004 35.3948 184.012C35.4357 184.006 35.4765 183.998 35.5174 183.992Z" fill="#0099A0"/>
<path d="M14.2229 146.03C14.2576 146.037 14.2923 146.043 14.3291 146.049C14.2923 146.045 14.2576 146.039 14.2229 146.03Z" fill="#0099A0"/>
<path d="M35.3703 184.017C35.3233 184.025 35.2763 184.033 35.2314 184.041C35.2763 184.031 35.3233 184.025 35.3703 184.017Z" fill="#0099A0"/>
<path d="M15.5874 146.319C15.618 146.328 15.6507 146.334 15.6813 146.342C15.6486 146.334 15.618 146.326 15.5874 146.319Z" fill="#0099A0"/>
<path d="M36.9901 183.82C36.9493 183.822 36.9105 183.826 36.8696 183.83C36.9084 183.826 36.9493 183.822 36.9901 183.82Z" fill="#0099A0"/>
<path d="M36.3324 183.881C36.2956 183.885 36.2568 183.889 36.22 183.894C36.2568 183.889 36.2936 183.885 36.3324 183.881Z" fill="#0099A0"/>
<path d="M37.174 183.805C37.127 183.807 37.08 183.812 37.033 183.816C37.08 183.812 37.127 183.81 37.174 183.805Z" fill="#0099A0"/>
<path d="M37.319 183.797C37.272 183.799 37.225 183.803 37.176 183.805C37.223 183.803 37.27 183.801 37.319 183.797Z" fill="#0099A0"/>
<path d="M36.843 183.83C36.794 183.834 36.745 183.838 36.698 183.842C36.747 183.838 36.794 183.834 36.843 183.83Z" fill="#0099A0"/>
<path d="M36.5101 183.861C36.4631 183.865 36.4161 183.871 36.3692 183.875C36.4182 183.871 36.4631 183.867 36.5101 183.861Z" fill="#0099A0"/>
<path d="M14.7928 146.143C14.9031 146.166 15.0113 146.188 15.1196 146.213C15.0134 146.188 14.9031 146.166 14.7928 146.143Z" fill="#0099A0"/>
<path d="M36.6653 183.846C36.6265 183.851 36.5857 183.855 36.5469 183.859C36.5857 183.855 36.6245 183.851 36.6653 183.846Z" fill="#0099A0"/>
<path d="M15.14 146.217C15.2095 146.233 15.281 146.248 15.3504 146.264C15.2789 146.248 15.2095 146.231 15.14 146.217Z" fill="#0099A0"/>
<path d="M40.5423 183.982C40.4973 183.973 40.4503 183.965 40.4054 183.957C40.4503 183.965 40.4953 183.973 40.5423 183.982Z" fill="#0099A0"/>
<path d="M20.6266 147.945C20.6347 147.949 20.6449 147.953 20.6531 147.955C20.6449 147.951 20.6368 147.947 20.6266 147.945Z" fill="#0099A0"/>
<path d="M20.265 147.797C20.2813 147.803 20.2977 147.809 20.314 147.818C20.2977 147.811 20.2813 147.805 20.265 147.797Z" fill="#0099A0"/>
<path d="M18.1366 147.037C18.1652 147.045 18.1917 147.055 18.2203 147.063C18.1938 147.055 18.1652 147.045 18.1366 147.037Z" fill="#0099A0"/>
<path d="M20.551 147.912C20.5775 147.922 20.602 147.932 20.6266 147.943C20.6041 147.934 20.5775 147.924 20.551 147.912Z" fill="#0099A0"/>
<path d="M17.8608 146.949C17.8874 146.957 17.9139 146.965 17.9425 146.975C17.916 146.965 17.8894 146.957 17.8608 146.949Z" fill="#0099A0"/>
<path d="M40.2236 183.928C40.1296 183.914 40.0336 183.9 39.9376 183.887C40.0336 183.9 40.1296 183.912 40.2236 183.928Z" fill="#0099A0"/>
<path d="M20.3712 147.84C20.3978 147.85 20.4223 147.861 20.4468 147.871C20.4223 147.861 20.3957 147.85 20.3712 147.84Z" fill="#0099A0"/>
<path d="M19.307 147.436C19.3254 147.442 19.3458 147.451 19.3642 147.457C19.3458 147.451 19.3274 147.445 19.307 147.436Z" fill="#0099A0"/>
<path d="M19.1579 147.383C19.1804 147.391 19.2049 147.399 19.2273 147.408C19.2028 147.399 19.1804 147.391 19.1579 147.383Z" fill="#0099A0"/>
<path d="M18.6779 147.217C18.7535 147.244 18.827 147.268 18.8985 147.293C18.827 147.268 18.7535 147.242 18.6779 147.217Z" fill="#0099A0"/>
<path d="M19.8728 147.645C19.8871 147.652 19.9014 147.656 19.9157 147.662C19.9014 147.658 19.8871 147.652 19.8728 147.645Z" fill="#0099A0"/>
<path d="M19.3867 147.465C19.5011 147.506 19.6114 147.547 19.7176 147.586C19.6134 147.549 19.5031 147.508 19.3867 147.465Z" fill="#0099A0"/>
<path d="M19.7441 147.598C19.7584 147.604 19.7727 147.608 19.787 147.615C19.7748 147.608 19.7605 147.604 19.7441 147.598Z" fill="#0099A0"/>
<path d="M17.9507 146.977C18.0099 146.996 18.0712 147.016 18.1304 147.035C18.0712 147.014 18.012 146.996 17.9507 146.977Z" fill="#0099A0"/>
<path d="M16.9723 146.682C17.005 146.692 17.0376 146.701 17.0703 146.711C17.0376 146.701 17.005 146.69 16.9723 146.682Z" fill="#0099A0"/>
<path d="M40.6934 184.01C40.6546 184.002 40.6138 183.996 40.5749 183.988C40.6158 183.994 40.6546 184.002 40.6934 184.01Z" fill="#0099A0"/>
<path d="M40.8609 184.043C40.8139 184.033 40.769 184.025 40.722 184.014C40.767 184.025 40.8139 184.033 40.8609 184.043Z" fill="#0099A0"/>
<path d="M17.0724 146.711C17.101 146.719 17.1296 146.727 17.1582 146.735C17.1316 146.727 17.103 146.719 17.0724 146.711Z" fill="#0099A0"/>
<path d="M41.1775 184.115C41.1305 184.105 41.0856 184.092 41.0386 184.082C41.0856 184.092 41.1326 184.103 41.1775 184.115Z" fill="#0099A0"/>
<path d="M41.0039 184.074C40.9651 184.066 40.9263 184.058 40.8875 184.049C40.9283 184.058 40.9671 184.066 41.0039 184.074Z" fill="#0099A0"/>
<path d="M40.3768 183.953C40.336 183.947 40.2971 183.941 40.2563 183.933C40.2971 183.939 40.336 183.945 40.3768 183.953Z" fill="#0099A0"/>
<path d="M16.7701 146.625C16.7986 146.633 16.8293 146.641 16.8579 146.649C16.8293 146.641 16.8007 146.633 16.7701 146.625Z" fill="#0099A0"/>
<path d="M35.0374 184.074C34.9904 184.082 34.9434 184.092 34.8944 184.101C34.9414 184.092 34.9904 184.082 35.0374 184.074Z" fill="#0099A0"/>
<path d="M20.8083 148.018C20.8431 148.033 20.8737 148.045 20.8982 148.057C20.8737 148.047 20.8431 148.033 20.8083 148.018Z" fill="#0099A0"/>
<path d="M41.3164 184.148C41.2756 184.137 41.2368 184.127 41.1959 184.117C41.2347 184.127 41.2756 184.137 41.3164 184.148Z" fill="#0099A0"/>
<path d="M20.9003 148.057C20.9146 148.063 20.9268 148.068 20.937 148.074C20.9268 148.07 20.9146 148.063 20.9003 148.057Z" fill="#0099A0"/>
<path d="M20.9554 148.082C20.9677 148.088 20.9779 148.092 20.9861 148.096C20.9779 148.092 20.9677 148.086 20.9554 148.082Z" fill="#0099A0"/>
<path d="M20.7001 147.973C20.7287 147.986 20.7532 147.996 20.7777 148.006C20.7552 147.996 20.7287 147.986 20.7001 147.973Z" fill="#0099A0"/>
<path d="M17.1786 146.742C17.2419 146.76 17.3052 146.778 17.3685 146.799C17.3073 146.778 17.2439 146.76 17.1786 146.742Z" fill="#0099A0"/>
<path d="M20.9901 148.096C20.9963 148.098 21.0024 148.1 21.0044 148.102C21.0004 148.1 20.9963 148.098 20.9901 148.096Z" fill="#0099A0"/>
<path d="M12.599 145.799C12.6725 145.807 12.7461 145.815 12.8196 145.823C12.7461 145.813 12.6725 145.805 12.599 145.799Z" fill="#0099A0"/>
<path d="M30.8132 185.267C30.7887 185.277 30.7621 185.285 30.7376 185.295C30.7642 185.285 30.7887 185.277 30.8132 185.267Z" fill="#0099A0"/>
<path d="M11.6716 145.729C11.7023 145.731 11.735 145.731 11.7656 145.733C11.7329 145.731 11.7023 145.729 11.6716 145.729Z" fill="#0099A0"/>
<path d="M30.6743 185.32C30.6355 185.334 30.5946 185.351 30.5558 185.365C30.5967 185.349 30.6355 185.334 30.6743 185.32Z" fill="#0099A0"/>
<path d="M30.1534 185.521C30.1432 185.525 30.1309 185.529 30.1207 185.533C30.133 185.529 30.1432 185.525 30.1534 185.521Z" fill="#0099A0"/>
<path d="M30.9827 185.205C30.948 185.218 30.9133 185.232 30.8785 185.244C30.9133 185.23 30.948 185.218 30.9827 185.205Z" fill="#0099A0"/>
<path d="M30.3515 185.443C30.3352 185.449 30.3168 185.457 30.3005 185.463C30.3168 185.457 30.3332 185.451 30.3515 185.443Z" fill="#0099A0"/>
<path d="M11.4347 145.719C11.5082 145.721 11.5818 145.723 11.6553 145.727C11.5818 145.725 11.5082 145.721 11.4347 145.719Z" fill="#0099A0"/>
<path d="M30.4864 185.39C30.468 185.396 30.4496 185.404 30.4312 185.41C30.4516 185.404 30.47 185.398 30.4864 185.39Z" fill="#0099A0"/>
<path d="M31.1257 185.152C31.1053 185.16 31.0849 185.166 31.0644 185.174C31.0849 185.168 31.1053 185.16 31.1257 185.152Z" fill="#0099A0"/>
<path d="M31.2666 185.103C31.2442 185.111 31.2238 185.119 31.2013 185.125C31.2238 185.117 31.2442 185.109 31.2666 185.103Z" fill="#0099A0"/>
<path d="M32.1041 184.82C32.0633 184.832 32.0245 184.847 31.9836 184.859C32.0245 184.845 32.0633 184.832 32.1041 184.82Z" fill="#0099A0"/>
<path d="M31.7834 184.924C31.7487 184.937 31.714 184.949 31.6772 184.959C31.714 184.947 31.7487 184.935 31.7834 184.924Z" fill="#0099A0"/>
<path d="M12.0209 145.748C12.0924 145.752 12.1639 145.758 12.2354 145.764C12.1639 145.758 12.0924 145.754 12.0209 145.748Z" fill="#0099A0"/>
<path d="M31.4505 185.037C31.4321 185.043 31.4137 185.049 31.3933 185.058C31.4137 185.051 31.4321 185.043 31.4505 185.037Z" fill="#0099A0"/>
<path d="M31.5914 184.988C31.569 184.996 31.5465 185.002 31.524 185.011C31.5465 185.004 31.569 184.996 31.5914 184.988Z" fill="#0099A0"/>
<path d="M28.4662 186.246C28.456 186.25 28.4458 186.257 28.4356 186.261C28.4437 186.257 28.456 186.25 28.4662 186.246Z" fill="#0099A0"/>
<path d="M28.3538 186.298C28.3416 186.304 28.3273 186.31 28.315 186.316C28.3293 186.31 28.3416 186.304 28.3538 186.298Z" fill="#0099A0"/>
<path d="M32.4391 184.715C32.3942 184.73 32.3492 184.742 32.3064 184.756C32.3513 184.742 32.3942 184.728 32.4391 184.715Z" fill="#0099A0"/>
<path d="M27.4265 186.742C26.3051 175.636 14.3332 153.234 10.1825 145.741C8.22366 145.879 6.49559 146.53 5.52125 148.102C2.18562 153.48 6.23617 176.307 9.92926 182.998C11.3407 185.556 12.9912 187.492 14.4946 188.911C16.6679 190.962 21.7296 193.882 23.6803 193.507C25.3001 193.198 27.4326 190.823 27.4326 186.738C27.4326 186.742 27.4285 186.742 27.4265 186.742Z" fill="#0099A0"/>
<path d="M28.0372 186.447C28.0332 186.449 28.0291 186.451 28.025 186.453C28.0311 186.449 28.0352 186.447 28.0372 186.447Z" fill="#0099A0"/>
<path d="M38.1646 183.775C38.2137 183.775 38.2627 183.775 38.3097 183.775C38.2606 183.775 38.2137 183.775 38.1646 183.775Z" fill="#0099A0"/>
<path d="M29.5284 185.777C29.512 185.783 29.4957 185.791 29.4793 185.797C29.4957 185.791 29.512 185.785 29.5284 185.777Z" fill="#0099A0"/>
<path d="M29.7163 185.699C29.704 185.705 29.6918 185.709 29.6795 185.713C29.6938 185.709 29.704 185.703 29.7163 185.699Z" fill="#0099A0"/>
<path d="M10.9751 145.713C11.0119 145.713 11.0486 145.713 11.0833 145.713C11.0466 145.713 11.0098 145.713 10.9751 145.713Z" fill="#0099A0"/>
<path d="M10.8668 145.715C10.8995 145.715 10.9322 145.715 10.9628 145.715C10.9322 145.713 10.8995 145.713 10.8668 145.715Z" fill="#0099A0"/>
<path d="M30.0349 185.57C30.0125 185.578 29.99 185.588 29.9675 185.597C29.99 185.586 30.0125 185.578 30.0349 185.57Z" fill="#0099A0"/>
<path d="M28.9666 186.021C28.9564 186.025 28.9442 186.031 28.934 186.035C28.9462 186.029 28.9564 186.025 28.9666 186.021Z" fill="#0099A0"/>
<path d="M33.2358 184.486C33.1908 184.498 33.1459 184.51 33.1009 184.523C33.1459 184.508 33.1908 184.496 33.2358 184.486Z" fill="#0099A0"/>
<path d="M34.3715 184.207C34.3265 184.217 34.2795 184.228 34.2346 184.238C34.2816 184.228 34.3265 184.217 34.3715 184.207Z" fill="#0099A0"/>
<path d="M33.3808 184.447C33.3481 184.455 33.3154 184.463 33.2827 184.474C33.3175 184.463 33.3501 184.455 33.3808 184.447Z" fill="#0099A0"/>
<path d="M33.056 184.535C33.0254 184.543 32.9927 184.553 32.962 184.562C32.9947 184.551 33.0254 184.543 33.056 184.535Z" fill="#0099A0"/>
<path d="M13.7592 145.953C13.8368 145.965 13.9124 145.977 13.99 145.991C13.9124 145.977 13.8348 145.965 13.7592 145.953Z" fill="#0099A0"/>
<path d="M33.8955 184.316C33.8506 184.326 33.8077 184.338 33.7627 184.349C33.8056 184.338 33.8506 184.328 33.8955 184.316Z" fill="#0099A0"/>
<path d="M13.412 145.899C13.4855 145.91 13.5611 145.922 13.6346 145.932C13.5611 145.92 13.4875 145.91 13.412 145.899Z" fill="#0099A0"/>
<path d="M13.2935 145.883C13.3303 145.889 13.367 145.893 13.4038 145.899C13.367 145.893 13.3303 145.887 13.2935 145.883Z" fill="#0099A0"/>
<path d="M34.2162 184.242C34.1754 184.252 34.1345 184.26 34.0937 184.271C34.1325 184.26 34.1733 184.252 34.2162 184.242Z" fill="#0099A0"/>
<path d="M33.7117 184.361C33.6749 184.369 33.6381 184.379 33.6014 184.387C33.6402 184.379 33.677 184.371 33.7117 184.361Z" fill="#0099A0"/>
<path d="M12.8298 145.823C12.9033 145.832 12.9789 145.84 13.0525 145.85C12.9789 145.84 12.9054 145.832 12.8298 145.823Z" fill="#0099A0"/>
<path d="M34.7003 184.14C34.6554 184.148 34.6104 184.158 34.5655 184.166C34.6125 184.158 34.6554 184.148 34.7003 184.14Z" fill="#0099A0"/>
<path d="M13.99 145.989C14.0676 146.002 14.1432 146.016 14.2188 146.03C14.1432 146.016 14.0656 146.004 13.99 145.989Z" fill="#0099A0"/>
<path d="M32.7394 184.625C32.7047 184.635 32.6679 184.646 32.6332 184.656C32.6679 184.646 32.7026 184.635 32.7394 184.625Z" fill="#0099A0"/>
<path d="M34.8596 184.109C34.8229 184.115 34.7882 184.123 34.7514 184.129C34.7882 184.121 34.8229 184.115 34.8596 184.109Z" fill="#0099A0"/>
<path d="M17.9425 146.973C17.9446 146.973 17.9487 146.975 17.9507 146.975C17.9487 146.975 17.9446 146.975 17.9425 146.973Z" fill="#A5375C"/>
<path d="M13.6346 145.932C13.6407 145.932 13.6448 145.934 13.6509 145.934C13.6448 145.934 13.6407 145.934 13.6346 145.932Z" fill="#A5375C"/>
<path d="M18.9005 147.293C18.9087 147.295 18.9148 147.299 18.923 147.301C18.9148 147.297 18.9066 147.295 18.9005 147.293Z" fill="#A5375C"/>
<path d="M10.8505 145.715C10.8566 145.715 10.8607 145.715 10.8668 145.715C10.8627 145.715 10.8566 145.715 10.8505 145.715Z" fill="#A5375C"/>
<path d="M10.9628 145.713C10.9669 145.713 10.969 145.713 10.973 145.713C10.971 145.713 10.9669 145.713 10.9628 145.713Z" fill="#A5375C"/>
<path d="M18.6554 147.209C18.6636 147.211 18.6717 147.215 18.6779 147.217C18.6697 147.213 18.6636 147.211 18.6554 147.209Z" fill="#A5375C"/>
<path d="M18.5635 147.178C18.5696 147.18 18.5757 147.182 18.5839 147.184C18.5778 147.182 18.5696 147.18 18.5635 147.178Z" fill="#A5375C"/>
<path d="M14.2188 146.03H14.2208C14.2208 146.03 14.2208 146.03 14.2188 146.03Z" fill="#A5375C"/>
<path d="M10.3991 145.729C10.4032 145.729 10.4052 145.729 10.4093 145.729C10.4052 145.727 10.4032 145.727 10.3991 145.729Z" fill="#A5375C"/>
<path d="M16.1205 146.451C16.1246 146.453 16.1307 146.453 16.1348 146.455C16.1307 146.453 16.1266 146.451 16.1205 146.451Z" fill="#A5375C"/>
<path d="M10.6217 145.719C10.6278 145.719 10.6319 145.719 10.6381 145.719C10.634 145.719 10.6278 145.719 10.6217 145.719Z" fill="#A5375C"/>
<path d="M13.7531 145.95C13.7551 145.95 13.7572 145.95 13.7592 145.95C13.7572 145.953 13.7551 145.95 13.7531 145.95Z" fill="#A5375C"/>
<path d="M16.6495 146.592C16.6557 146.594 16.6597 146.594 16.6659 146.596C16.6597 146.594 16.6557 146.592 16.6495 146.592Z" fill="#A5375C"/>
<path d="M12.2354 145.764C12.2415 145.764 12.2456 145.764 12.2517 145.766C12.2456 145.766 12.2395 145.766 12.2354 145.764Z" fill="#A5375C"/>
<path d="M16.7435 146.617C16.7517 146.619 16.7619 146.621 16.7701 146.625C16.7619 146.623 16.7537 146.619 16.7435 146.617Z" fill="#A5375C"/>
<path d="M13.1668 145.864C13.1709 145.864 13.1771 145.866 13.1811 145.866C13.175 145.866 13.1709 145.864 13.1668 145.864Z" fill="#A5375C"/>
<path d="M11.9985 145.748C12.0046 145.748 12.0127 145.748 12.0189 145.75C12.0127 145.748 12.0066 145.748 11.9985 145.748Z" fill="#A5375C"/>
<path d="M19.1436 147.379C19.1477 147.381 19.1518 147.383 19.1579 147.383C19.1518 147.381 19.1477 147.379 19.1436 147.379Z" fill="#A5375C"/>
<path d="M12.8196 145.821C12.8237 145.821 12.8278 145.821 12.8318 145.823C12.8278 145.823 12.8237 145.821 12.8196 145.821Z" fill="#A5375C"/>
<path d="M16.2226 146.477C16.2267 146.479 16.2328 146.479 16.2369 146.481C16.2328 146.479 16.2267 146.477 16.2226 146.477Z" fill="#A5375C"/>
<path d="M12.5826 145.797C12.5888 145.797 12.5949 145.799 12.599 145.799C12.5929 145.797 12.5867 145.797 12.5826 145.797Z" fill="#A5375C"/>
<path d="M13.4038 145.897C13.4058 145.897 13.4099 145.897 13.412 145.899C13.4099 145.899 13.4058 145.897 13.4038 145.897Z" fill="#A5375C"/>
<path d="M11.1937 145.715C11.1957 145.715 11.1998 145.715 11.2018 145.715C11.1998 145.715 11.1977 145.715 11.1937 145.715Z" fill="#A5375C"/>
<path d="M15.6793 146.34C15.6834 146.34 15.6895 146.342 15.6936 146.344C15.6895 146.344 15.6854 146.342 15.6793 146.34Z" fill="#A5375C"/>
<path d="M17.3685 146.797C17.3706 146.797 17.3726 146.797 17.3747 146.799C17.3726 146.799 17.3706 146.799 17.3685 146.797Z" fill="#A5375C"/>
<path d="M15.1216 146.213C15.1278 146.215 15.1339 146.215 15.14 146.217C15.1339 146.215 15.1278 146.213 15.1216 146.213Z" fill="#A5375C"/>
<path d="M11.6553 145.727C11.6594 145.727 11.6655 145.727 11.6696 145.727C11.6655 145.729 11.6614 145.727 11.6553 145.727Z" fill="#A5375C"/>
<path d="M13.2914 145.881H13.2935C13.2914 145.881 13.2914 145.881 13.2914 145.881Z" fill="#A5375C"/>
<path d="M17.0703 146.709C17.0724 146.709 17.0724 146.709 17.0744 146.709C17.0724 146.711 17.0703 146.709 17.0703 146.709Z" fill="#A5375C"/>
<path d="M15.5751 146.315C15.5792 146.315 15.5833 146.317 15.5874 146.317C15.5833 146.317 15.5792 146.317 15.5751 146.315Z" fill="#A5375C"/>
<path d="M33.103 184.521C33.0887 184.525 33.0723 184.529 33.058 184.533C33.0723 184.529 33.0866 184.525 33.103 184.521Z" fill="#A5375C"/>
<path d="M32.1674 184.799C32.147 184.806 32.1246 184.812 32.1041 184.82C32.1246 184.814 32.147 184.806 32.1674 184.799Z" fill="#A5375C"/>
<path d="M32.3064 184.756C32.288 184.763 32.2696 184.769 32.2512 184.773C32.2696 184.767 32.288 184.763 32.3064 184.756Z" fill="#A5375C"/>
<path d="M35.2294 184.039C35.2151 184.041 35.2008 184.045 35.1844 184.047C35.2008 184.045 35.2151 184.043 35.2294 184.039Z" fill="#A5375C"/>
<path d="M31.8345 184.908C31.8182 184.914 31.7998 184.92 31.7834 184.924C31.8018 184.918 31.8182 184.912 31.8345 184.908Z" fill="#A5375C"/>
<path d="M35.3948 184.012C35.3866 184.014 35.3785 184.014 35.3703 184.017C35.3785 184.014 35.3866 184.012 35.3948 184.012Z" fill="#A5375C"/>
<path d="M34.8944 184.101C34.8821 184.103 34.8699 184.105 34.8596 184.107C34.8719 184.105 34.8821 184.103 34.8944 184.101Z" fill="#A5375C"/>
<path d="M35.7053 183.963C35.7012 183.963 35.6971 183.965 35.691 183.965L35.7053 183.963Z" fill="#A5375C"/>
<path d="M34.2346 184.238C34.2285 184.24 34.2203 184.242 34.2142 184.242C34.2223 184.24 34.2285 184.24 34.2346 184.238Z" fill="#A5375C"/>
<path d="M33.9323 184.308C33.92 184.31 33.9078 184.314 33.8955 184.316C33.9078 184.314 33.92 184.312 33.9323 184.308Z" fill="#A5375C"/>
<path d="M34.7514 184.129C34.735 184.133 34.7167 184.135 34.7003 184.14C34.7187 184.135 34.735 184.131 34.7514 184.129Z" fill="#A5375C"/>
<path d="M30.5558 185.363C30.5333 185.371 30.5088 185.381 30.4864 185.39C30.5109 185.381 30.5333 185.373 30.5558 185.363Z" fill="#A5375C"/>
<path d="M29.3629 185.849C29.273 185.888 29.1832 185.927 29.0953 185.963C29.1852 185.925 29.273 185.886 29.3629 185.849Z" fill="#A5375C"/>
<path d="M29.7939 185.668C29.7694 185.679 29.7428 185.689 29.7183 185.699C29.7428 185.689 29.7674 185.679 29.7939 185.668Z" fill="#A5375C"/>
<path d="M28.936 186.035C28.8849 186.058 28.8359 186.08 28.7848 186.103C28.8339 186.078 28.8849 186.056 28.936 186.035Z" fill="#A5375C"/>
<path d="M31.6793 184.959C31.6507 184.97 31.6221 184.98 31.5935 184.988C31.62 184.98 31.6486 184.97 31.6793 184.959Z" fill="#A5375C"/>
<path d="M29.4793 185.797C29.4548 185.808 29.4303 185.818 29.4038 185.83C29.4303 185.82 29.4548 185.808 29.4793 185.797Z" fill="#A5375C"/>
<path d="M29.0443 185.986C29.0197 185.996 28.9932 186.009 28.9687 186.019C28.9932 186.009 29.0177 185.998 29.0443 185.986Z" fill="#A5375C"/>
<path d="M28.027 186.451C27.8268 186.546 27.6287 186.642 27.4326 186.74C27.6287 186.644 27.8268 186.548 28.027 186.451Z" fill="#A5375C"/>
<path d="M28.6296 186.17C28.5745 186.195 28.5193 186.22 28.4662 186.246C28.5193 186.222 28.5745 186.197 28.6296 186.17Z" fill="#A5375C"/>
<path d="M19.2273 147.408C19.2294 147.408 19.2314 147.41 19.2335 147.41C19.2294 147.41 19.2273 147.408 19.2273 147.408Z" fill="#A5375C"/>
<path d="M30.8765 185.242C30.8561 185.25 30.8336 185.258 30.8132 185.267C30.8357 185.258 30.8561 185.25 30.8765 185.242Z" fill="#A5375C"/>
<path d="M31.3953 185.058C31.3524 185.072 31.3095 185.088 31.2666 185.103C31.3095 185.086 31.3524 185.072 31.3953 185.058Z" fill="#A5375C"/>
<path d="M31.0644 185.174C31.0379 185.185 31.0093 185.195 30.9827 185.203C31.0093 185.195 31.0358 185.185 31.0644 185.174Z" fill="#A5375C"/>
<path d="M30.2984 185.463C30.2494 185.482 30.2024 185.502 30.1534 185.521C30.2024 185.502 30.2515 185.482 30.2984 185.463Z" fill="#A5375C"/>
<path d="M30.1207 185.533C30.0921 185.545 30.0615 185.556 30.0329 185.568C30.0635 185.558 30.0921 185.545 30.1207 185.533Z" fill="#A5375C"/>
<path d="M30.7376 185.295C30.7172 185.304 30.6947 185.312 30.6743 185.32C30.6968 185.312 30.7172 185.304 30.7376 185.295Z" fill="#A5375C"/>
<path d="M30.4333 185.412C30.4067 185.422 30.3781 185.433 30.3515 185.445C30.3781 185.433 30.4047 185.422 30.4333 185.412Z" fill="#A5375C"/>
<path d="M35.8871 183.937C35.8728 183.939 35.8605 183.941 35.8462 183.943C35.8605 183.941 35.8748 183.939 35.8871 183.937Z" fill="#A5375C"/>
<path d="M29.6816 185.713C29.6305 185.734 29.5794 185.756 29.5304 185.777C29.5794 185.756 29.6305 185.736 29.6816 185.713Z" fill="#A5375C"/>
<path d="M20.9513 148.08C20.9534 148.08 20.9534 148.082 20.9554 148.082C20.9534 148.08 20.9534 148.08 20.9513 148.08Z" fill="#A5375C"/>
<path d="M20.9861 148.094C20.9861 148.094 20.9881 148.094 20.9881 148.096C20.9881 148.096 20.9881 148.096 20.9861 148.094Z" fill="#A5375C"/>
<path d="M41.3573 184.158C41.343 184.154 41.3287 184.152 41.3164 184.148C41.3287 184.152 41.343 184.156 41.3573 184.158Z" fill="#A5375C"/>
<path d="M20.937 148.074C20.9411 148.076 20.9452 148.078 20.9493 148.08C20.9472 148.078 20.9432 148.076 20.937 148.074Z" fill="#A5375C"/>
<path d="M40.722 184.014C40.7138 184.012 40.7036 184.01 40.6955 184.008C40.7036 184.012 40.7118 184.012 40.722 184.014Z" fill="#A5375C"/>
<path d="M40.5749 183.988C40.5627 183.986 40.5525 183.984 40.5402 183.982C40.5525 183.984 40.5647 183.986 40.5749 183.988Z" fill="#A5375C"/>
<path d="M41.1939 184.119C41.1877 184.117 41.1836 184.117 41.1775 184.115C41.1836 184.115 41.1898 184.117 41.1939 184.119Z" fill="#A5375C"/>
<path d="M40.8895 184.049C40.8793 184.047 40.8711 184.045 40.8609 184.043C40.8691 184.045 40.8793 184.047 40.8895 184.049Z" fill="#A5375C"/>
<path d="M41.0407 184.082C41.0284 184.08 41.0162 184.076 41.0059 184.074C41.0162 184.078 41.0284 184.08 41.0407 184.082Z" fill="#A5375C"/>
<path d="M20.5367 147.908C20.5408 147.91 20.5469 147.912 20.551 147.914C20.5469 147.91 20.5408 147.91 20.5367 147.908Z" fill="#A5375C"/>
<path d="M19.9137 147.662C19.9178 147.664 19.9218 147.664 19.9239 147.666C19.9218 147.666 19.9178 147.664 19.9137 147.662Z" fill="#A5375C"/>
<path d="M40.4054 183.957C40.3972 183.955 40.387 183.955 40.3789 183.953C40.387 183.953 40.3952 183.955 40.4054 183.957Z" fill="#A5375C"/>
<path d="M19.3642 147.457C19.3724 147.459 19.3785 147.463 19.3867 147.465C19.3805 147.463 19.3724 147.461 19.3642 147.457Z" fill="#A5375C"/>
<path d="M19.2927 147.432C19.2968 147.434 19.3009 147.436 19.307 147.436C19.3029 147.434 19.2988 147.434 19.2927 147.432Z" fill="#A5375C"/>
<path d="M19.8463 147.635C19.8544 147.639 19.8646 147.641 19.8728 147.645C19.8626 147.643 19.8544 147.639 19.8463 147.635Z" fill="#A5375C"/>
<path d="M20.4468 147.871C20.455 147.875 20.4611 147.877 20.4693 147.879C20.4611 147.875 20.4529 147.873 20.4468 147.871Z" fill="#A5375C"/>
<path d="M20.3508 147.832C20.3569 147.834 20.3651 147.838 20.3712 147.84C20.3631 147.838 20.3569 147.834 20.3508 147.832Z" fill="#A5375C"/>
<path d="M20.2609 147.797H20.263C20.263 147.797 20.263 147.797 20.2609 147.797Z" fill="#A5375C"/>
<path d="M36.218 183.894C36.2057 183.896 36.1935 183.896 36.1792 183.898C36.1935 183.898 36.2057 183.896 36.218 183.894Z" fill="#A5375C"/>
<path d="M37.3619 183.795C37.3476 183.795 37.3312 183.797 37.3169 183.797C37.3333 183.797 37.3476 183.797 37.3619 183.795Z" fill="#A5375C"/>
<path d="M37.5069 183.789C37.5008 183.789 37.4946 183.789 37.4885 183.789C37.4926 183.789 37.5008 183.789 37.5069 183.789Z" fill="#A5375C"/>
<path d="M37.033 183.816C37.0187 183.816 37.0044 183.818 36.9901 183.82C37.0044 183.818 37.0187 183.818 37.033 183.816Z" fill="#A5375C"/>
<path d="M37.6867 183.783C37.6744 183.783 37.6621 183.783 37.6519 183.783C37.6642 183.783 37.6764 183.783 37.6867 183.783Z" fill="#A5375C"/>
<path d="M37.8399 183.779C37.8256 183.779 37.8133 183.779 37.799 183.779C37.8133 183.779 37.8276 183.779 37.8399 183.779Z" fill="#A5375C"/>
<path d="M36.3712 183.877C36.3589 183.879 36.3446 183.879 36.3324 183.881C36.3446 183.879 36.3569 183.879 36.3712 183.877Z" fill="#A5375C"/>
<path d="M36.698 183.844C36.6878 183.844 36.6756 183.846 36.6653 183.846C36.6756 183.846 36.6858 183.844 36.698 183.844Z" fill="#A5375C"/>
<path d="M36.5469 183.859C36.5346 183.861 36.5224 183.861 36.5121 183.863C36.5224 183.861 36.5346 183.859 36.5469 183.859Z" fill="#A5375C"/>
<path d="M36.8696 183.828C36.8614 183.828 36.8533 183.83 36.8451 183.83C36.8512 183.83 36.8594 183.83 36.8696 183.828Z" fill="#A5375C"/>
<path d="M38.4935 183.779C38.4812 183.779 38.469 183.779 38.4567 183.779C38.469 183.777 38.4812 183.779 38.4935 183.779Z" fill="#A5375C"/>
<path d="M39.6169 183.848C39.6047 183.846 39.5904 183.846 39.5781 183.844C39.5924 183.846 39.6047 183.848 39.6169 183.848Z" fill="#A5375C"/>
<path d="M39.2901 183.818C39.282 183.818 39.2717 183.816 39.2636 183.816C39.2717 183.818 39.282 183.818 39.2901 183.818Z" fill="#A5375C"/>
<path d="M38.3301 183.775C38.324 183.775 38.3178 183.775 38.3117 183.775C38.3158 183.775 38.3219 183.775 38.3301 183.775Z" fill="#A5375C"/>
<path d="M38.8183 183.789C38.806 183.789 38.7938 183.787 38.7815 183.787C38.7958 183.789 38.8081 183.789 38.8183 183.789Z" fill="#A5375C"/>
<path d="M38.9653 183.797C38.9572 183.797 38.951 183.797 38.9429 183.795C38.951 183.795 38.9592 183.795 38.9653 183.797Z" fill="#A5375C"/>
<path d="M27.4326 186.74C27.6287 186.644 27.8268 186.548 28.027 186.451C28.0311 186.449 28.0352 186.447 28.0393 186.445C28.1312 186.402 28.2252 186.357 28.3171 186.314C28.3293 186.308 28.3416 186.302 28.3559 186.296C28.3824 186.283 28.409 186.271 28.4356 186.259C28.4458 186.255 28.456 186.248 28.4662 186.244C28.5213 186.22 28.5745 186.195 28.6296 186.168C28.6398 186.164 28.648 186.16 28.6582 186.156C28.6848 186.144 28.7113 186.132 28.7379 186.121C28.7542 186.113 28.7705 186.107 28.7869 186.099C28.8359 186.076 28.887 186.054 28.938 186.031C28.9483 186.027 28.9605 186.021 28.9707 186.017C28.9952 186.004 29.0218 185.994 29.0463 185.984C29.0626 185.976 29.081 185.97 29.0974 185.961C29.1872 185.923 29.2751 185.884 29.365 185.847C29.3792 185.841 29.3935 185.834 29.4078 185.828C29.4324 185.818 29.4569 185.808 29.4834 185.795C29.4998 185.789 29.5161 185.781 29.5324 185.775C29.5835 185.754 29.6346 185.732 29.6836 185.711C29.6959 185.707 29.7081 185.701 29.7204 185.697C29.7449 185.687 29.7714 185.677 29.7959 185.666C29.8205 185.656 29.847 185.646 29.8715 185.636C29.9042 185.623 29.9369 185.609 29.9696 185.597C29.992 185.588 30.0145 185.578 30.037 185.57C30.0656 185.558 30.0962 185.545 30.1248 185.535C30.135 185.531 30.1473 185.527 30.1575 185.523C30.2065 185.504 30.2535 185.484 30.3025 185.465C30.3189 185.459 30.3372 185.451 30.3536 185.445C30.3801 185.435 30.4087 185.424 30.4353 185.412C30.4537 185.406 30.4721 185.398 30.4904 185.392C30.5129 185.384 30.5374 185.373 30.5599 185.365C30.5987 185.351 30.6375 185.334 30.6784 185.32C30.6988 185.312 30.7213 185.304 30.7417 185.295C30.7662 185.285 30.7928 185.277 30.8173 185.267C30.8377 185.258 30.8602 185.25 30.8806 185.242C30.9153 185.23 30.95 185.215 30.9848 185.203C31.0113 185.193 31.0399 185.183 31.0665 185.174C31.0869 185.166 31.1073 185.16 31.1277 185.152C31.1523 185.144 31.1788 185.133 31.2033 185.125C31.2258 185.117 31.2462 185.109 31.2687 185.103C31.3116 185.088 31.3545 185.072 31.3974 185.058C31.4158 185.051 31.4341 185.045 31.4546 185.037C31.4791 185.029 31.5036 185.021 31.5281 185.013C31.5506 185.004 31.573 184.996 31.5955 184.99C31.6241 184.98 31.6527 184.97 31.6813 184.961C31.716 184.949 31.7508 184.937 31.7875 184.926C31.8039 184.92 31.8222 184.916 31.8386 184.91C31.8692 184.9 31.8999 184.89 31.9305 184.879C31.9489 184.873 31.9693 184.867 31.9877 184.861C32.0265 184.849 32.0674 184.834 32.1082 184.822C32.1286 184.816 32.1511 184.808 32.1715 184.801C32.2001 184.793 32.2267 184.783 32.2553 184.775C32.2737 184.769 32.292 184.763 32.3104 184.758C32.3554 184.744 32.3983 184.732 32.4432 184.717C32.4534 184.715 32.4636 184.711 32.4738 184.707C32.5106 184.697 32.5453 184.685 32.5821 184.674C32.6005 184.668 32.6189 184.664 32.6373 184.658C32.672 184.648 32.7087 184.638 32.7435 184.627C32.7619 184.621 32.7802 184.617 32.7986 184.611C32.8334 184.601 32.8701 184.59 32.9048 184.58C32.9253 184.574 32.9457 184.568 32.9661 184.564C32.9968 184.556 33.0294 184.545 33.0601 184.537C33.0744 184.533 33.0907 184.529 33.105 184.525C33.15 184.512 33.1949 184.5 33.2398 184.488C33.2562 184.484 33.2725 184.48 33.2889 184.476C33.3215 184.467 33.3542 184.457 33.3869 184.449C33.4032 184.445 33.4196 184.441 33.4359 184.437C33.4809 184.424 33.5258 184.412 33.5707 184.402C33.583 184.4 33.5953 184.396 33.6055 184.394C33.6422 184.385 33.679 184.375 33.7158 184.367C33.7321 184.363 33.7485 184.359 33.7648 184.355C33.8097 184.344 33.8526 184.332 33.8976 184.322C33.9098 184.32 33.9221 184.316 33.9343 184.314C33.9711 184.306 34.0079 184.297 34.0446 184.287C34.061 184.283 34.0773 184.279 34.0937 184.275C34.1345 184.265 34.1754 184.256 34.2162 184.246C34.2223 184.244 34.2305 184.244 34.2366 184.242C34.2816 184.232 34.3286 184.221 34.3735 184.211C34.3898 184.207 34.4062 184.205 34.4225 184.201C34.4572 184.193 34.494 184.187 34.5287 184.178C34.543 184.176 34.5553 184.172 34.5696 184.17C34.6145 184.162 34.6595 184.152 34.7044 184.144C34.7207 184.14 34.7391 184.137 34.7555 184.133C34.7922 184.127 34.827 184.119 34.8637 184.113C34.876 184.111 34.8882 184.109 34.8985 184.107C34.9454 184.099 34.9924 184.088 35.0414 184.08C35.0537 184.078 35.066 184.076 35.0782 184.074C35.115 184.068 35.1517 184.06 35.1906 184.053C35.2049 184.051 35.2192 184.047 35.2355 184.045C35.2825 184.037 35.3295 184.029 35.3744 184.021C35.3826 184.019 35.3907 184.019 35.3989 184.017C35.4398 184.01 35.4806 184.002 35.5215 183.996C35.5358 183.994 35.5501 183.992 35.5664 183.99C35.6093 183.984 35.6542 183.976 35.6971 183.969C35.7012 183.969 35.7053 183.967 35.7114 183.967C35.7584 183.961 35.8054 183.953 35.8524 183.947C35.8667 183.945 35.8789 183.943 35.8932 183.941C35.9341 183.935 35.9749 183.928 36.0158 183.924C36.024 183.922 36.0321 183.922 36.0423 183.92C36.0893 183.914 36.1383 183.908 36.1853 183.902C36.1976 183.9 36.2098 183.9 36.2241 183.898C36.2609 183.894 36.2997 183.889 36.3365 183.885C36.3487 183.883 36.363 183.883 36.3753 183.881C36.4223 183.875 36.4692 183.871 36.5162 183.867C36.5285 183.865 36.5407 183.865 36.551 183.863C36.5898 183.859 36.6306 183.855 36.6694 183.851C36.6796 183.851 36.6919 183.848 36.7021 183.848C36.7511 183.844 36.8002 183.84 36.8471 183.836C36.8553 183.836 36.8635 183.834 36.8716 183.834C36.9125 183.83 36.9513 183.828 36.9922 183.824C37.0065 183.822 37.0208 183.822 37.0351 183.82C37.082 183.816 37.129 183.814 37.176 183.81H37.178C37.225 183.807 37.272 183.803 37.321 183.801C37.3353 183.801 37.3517 183.799 37.366 183.799C37.4068 183.797 37.4497 183.795 37.4906 183.793C37.4967 183.793 37.5028 183.793 37.5089 183.793C37.558 183.791 37.607 183.789 37.656 183.787C37.6683 183.787 37.6805 183.787 37.6907 183.787C37.7275 183.785 37.7663 183.785 37.8031 183.783C37.8174 183.783 37.8296 183.783 37.8439 183.783C37.8909 183.783 37.9359 183.781 37.9828 183.781C37.9951 183.781 38.0053 183.781 38.0176 183.781C38.0584 183.781 38.0972 183.781 38.1381 183.781C38.1483 183.781 38.1585 183.781 38.1687 183.781C38.2177 183.781 38.2668 183.781 38.3137 183.781C38.3199 183.781 38.326 183.781 38.3321 183.781C38.375 183.781 38.4179 183.783 38.4608 183.783C38.4731 183.783 38.4853 183.783 38.4976 183.783C38.5446 183.785 38.5915 183.785 38.6406 183.787H38.6426C38.6916 183.789 38.7386 183.791 38.7876 183.793C38.7999 183.793 38.8122 183.793 38.8244 183.795C38.8653 183.797 38.9082 183.799 38.949 183.801C38.9572 183.801 38.9633 183.801 38.9715 183.803C39.0185 183.805 39.0675 183.81 39.1145 183.812C39.1247 183.812 39.1369 183.814 39.1492 183.814C39.19 183.816 39.2288 183.82 39.2697 183.822C39.2779 183.822 39.2881 183.824 39.2963 183.824C39.3432 183.828 39.3902 183.832 39.4372 183.836C39.4495 183.836 39.4617 183.838 39.4719 183.84C39.5087 183.844 39.5455 183.848 39.5843 183.851C39.5965 183.853 39.6108 183.853 39.6231 183.855C39.6701 183.859 39.717 183.865 39.764 183.871C39.7701 183.871 39.7763 183.873 39.7824 183.873C39.8253 183.877 39.8662 183.883 39.909 183.889C39.9213 183.892 39.9336 183.894 39.9458 183.894C40.0418 183.906 40.1358 183.92 40.2318 183.935C40.242 183.937 40.2542 183.939 40.2645 183.939C40.3053 183.945 40.3441 183.951 40.385 183.959C40.3932 183.961 40.4034 183.961 40.4115 183.963C40.4565 183.971 40.5035 183.98 40.5484 183.988C40.5606 183.99 40.5709 183.992 40.5831 183.994C40.6219 184.002 40.6628 184.008 40.7016 184.017C40.7098 184.019 40.72 184.021 40.7281 184.023C40.7751 184.031 40.8201 184.041 40.867 184.051C40.8773 184.053 40.8854 184.055 40.8956 184.058C40.9345 184.066 40.9733 184.074 41.0121 184.082C41.0243 184.084 41.0366 184.088 41.0468 184.09C41.0938 184.101 41.1387 184.111 41.1857 184.123C41.1918 184.125 41.1959 184.125 41.202 184.127C41.2429 184.137 41.2817 184.148 41.3226 184.158C41.3368 184.162 41.3511 184.164 41.3634 184.168C41.4083 184.18 41.4533 184.191 41.4982 184.203C41.4982 184.203 24.4953 149.371 21.0106 148.113C21.0106 148.113 21.0106 148.113 21.0085 148.113C21.0065 148.113 21.0024 148.109 20.9942 148.106C20.9942 148.106 20.9922 148.106 20.9922 148.104C20.984 148.1 20.9738 148.096 20.9615 148.09C20.9595 148.09 20.9595 148.088 20.9575 148.088C20.9534 148.086 20.9493 148.084 20.9452 148.082C20.935 148.078 20.9207 148.072 20.9084 148.065C20.8819 148.055 20.8533 148.041 20.8186 148.027C20.8083 148.022 20.7981 148.018 20.7879 148.014C20.7634 148.004 20.7389 147.994 20.7103 147.981C20.696 147.975 20.6797 147.969 20.6633 147.963C20.6551 147.959 20.647 147.957 20.6368 147.953C20.6123 147.943 20.5877 147.932 20.5612 147.922C20.5571 147.92 20.551 147.918 20.5469 147.916C20.5244 147.908 20.5019 147.897 20.4774 147.887C20.4693 147.885 20.4631 147.881 20.455 147.879C20.4305 147.869 20.4059 147.859 20.3794 147.848C20.3733 147.846 20.3651 147.842 20.359 147.84C20.3488 147.836 20.3385 147.832 20.3283 147.828C20.3263 147.828 20.3242 147.826 20.3222 147.826C20.3059 147.82 20.2895 147.813 20.2732 147.805H20.2711C20.2242 147.787 20.1772 147.768 20.1261 147.748C20.1159 147.744 20.1057 147.74 20.0934 147.736C20.0424 147.715 19.9892 147.695 19.9341 147.674C19.93 147.672 19.9259 147.672 19.9239 147.67C19.9096 147.664 19.8953 147.66 19.881 147.654C19.8728 147.649 19.8626 147.647 19.8544 147.643C19.8381 147.637 19.8218 147.631 19.8054 147.625C19.8034 147.625 19.8013 147.623 19.7972 147.623C19.7829 147.617 19.7686 147.613 19.7543 147.606C19.7462 147.602 19.736 147.6 19.7278 147.596C19.6236 147.557 19.5133 147.516 19.3969 147.475C19.3887 147.473 19.3826 147.469 19.3744 147.467C19.356 147.461 19.3356 147.453 19.3172 147.447C19.3131 147.445 19.309 147.442 19.3029 147.442C19.2825 147.434 19.2621 147.428 19.2416 147.42C19.2396 147.42 19.2376 147.418 19.2355 147.418C19.213 147.41 19.1885 147.401 19.1661 147.393C19.162 147.391 19.1579 147.389 19.1518 147.389C19.0803 147.363 19.0067 147.338 18.9312 147.311C18.923 147.309 18.9148 147.305 18.9087 147.303C18.8372 147.279 18.7616 147.252 18.6881 147.227C18.6799 147.225 18.6717 147.221 18.6656 147.219C18.6411 147.211 18.6186 147.203 18.5941 147.194C18.588 147.192 18.5819 147.19 18.5737 147.188C18.4675 147.154 18.3572 147.117 18.2469 147.08C18.2408 147.078 18.2367 147.076 18.2305 147.074C18.2019 147.065 18.1754 147.055 18.1468 147.047C18.1447 147.047 18.1427 147.045 18.1386 147.045C18.0794 147.026 18.0201 147.006 17.9589 146.988C17.9568 146.988 17.9527 146.985 17.9507 146.985C17.9241 146.977 17.8976 146.969 17.869 146.959C17.8649 146.959 17.8608 146.957 17.8588 146.955C17.7342 146.916 17.6075 146.877 17.4788 146.838C17.4482 146.828 17.4155 146.819 17.3849 146.809C17.3828 146.809 17.3808 146.807 17.3788 146.807C17.3154 146.789 17.2521 146.77 17.1888 146.75C17.1827 146.748 17.1765 146.746 17.1684 146.744C17.1398 146.735 17.1112 146.727 17.0826 146.719C17.0805 146.719 17.0805 146.719 17.0785 146.719C17.0458 146.709 17.0131 146.701 16.9804 146.69C16.9764 146.69 16.9743 146.688 16.9702 146.688C16.9416 146.68 16.911 146.672 16.8824 146.664C16.8783 146.662 16.8722 146.662 16.8661 146.66C16.8375 146.651 16.8068 146.643 16.7782 146.635C16.7701 146.633 16.7619 146.631 16.7517 146.627C16.7251 146.619 16.7006 146.612 16.674 146.604C16.6679 146.602 16.6638 146.602 16.6577 146.6C16.5556 146.571 16.4534 146.545 16.3513 146.518C16.3493 146.518 16.3493 146.518 16.3472 146.518C16.3125 146.51 16.2798 146.5 16.2451 146.492C16.241 146.489 16.2349 146.489 16.2308 146.487C16.2022 146.479 16.1736 146.473 16.143 146.465C16.1389 146.463 16.1327 146.463 16.1287 146.461C16.0633 146.444 15.9959 146.428 15.9285 146.41C15.9183 146.408 15.9081 146.405 15.8978 146.401C15.8713 146.395 15.8447 146.389 15.8182 146.383C15.8121 146.381 15.808 146.381 15.8018 146.379C15.7671 146.371 15.7344 146.362 15.6997 146.354C15.6956 146.354 15.6895 146.352 15.6854 146.35C15.6548 146.342 15.6221 146.336 15.5914 146.328C15.5874 146.328 15.5833 146.326 15.5792 146.326C15.5097 146.309 15.4383 146.293 15.3668 146.276C15.3627 146.276 15.3586 146.274 15.3545 146.274C15.2851 146.258 15.2136 146.242 15.1441 146.227C15.138 146.225 15.1319 146.225 15.1257 146.223C15.0175 146.198 14.9072 146.176 14.7989 146.153H14.7969C14.7233 146.137 14.6478 146.123 14.5742 146.108L14.564 146.106C14.5293 146.1 14.4946 146.092 14.4598 146.086C14.4578 146.086 14.4557 146.086 14.4537 146.084C14.4169 146.078 14.3802 146.069 14.3434 146.063C14.3393 146.063 14.3352 146.061 14.3332 146.061C14.2985 146.055 14.2637 146.049 14.227 146.043H14.2249C14.1493 146.028 14.0717 146.016 13.9961 146.002C13.9206 145.989 13.843 145.975 13.7653 145.963C13.7633 145.963 13.7612 145.963 13.7592 145.963C13.7245 145.957 13.6918 145.953 13.6571 145.946C13.6509 145.946 13.6469 145.944 13.6407 145.944C13.5672 145.932 13.4916 145.922 13.4181 145.912C13.416 145.912 13.412 145.912 13.4099 145.91C13.3731 145.903 13.3364 145.899 13.2996 145.893H13.2976C13.2608 145.887 13.224 145.883 13.1873 145.879C13.1832 145.879 13.1771 145.877 13.173 145.877C13.1403 145.873 13.1076 145.869 13.0729 145.864C13.0688 145.864 13.0647 145.864 13.0606 145.862C12.9871 145.852 12.9115 145.844 12.838 145.836C12.8339 145.836 12.8298 145.836 12.8257 145.834C12.7522 145.825 12.6786 145.817 12.6051 145.809C12.599 145.809 12.5929 145.807 12.5888 145.807C12.4785 145.797 12.3682 145.787 12.2579 145.776C12.2517 145.776 12.2477 145.776 12.2415 145.774C12.17 145.768 12.0985 145.764 12.027 145.758C12.0209 145.758 12.0127 145.758 12.0066 145.756C11.9351 145.752 11.8636 145.748 11.7921 145.744C11.786 145.744 11.7799 145.744 11.7738 145.744C11.7431 145.741 11.7104 145.739 11.6798 145.739C11.6757 145.739 11.6696 145.739 11.6655 145.739C11.592 145.735 11.5184 145.733 11.4449 145.731C11.4408 145.731 11.4388 145.731 11.4347 145.731C11.3611 145.729 11.2876 145.727 11.2141 145.727C11.212 145.727 11.208 145.727 11.2059 145.727C11.1712 145.727 11.1365 145.727 11.1017 145.727C11.0997 145.727 11.0976 145.727 11.0956 145.727C11.0588 145.727 11.0221 145.727 10.9873 145.727C10.9833 145.727 10.9812 145.727 10.9771 145.727C10.9445 145.727 10.9118 145.727 10.8811 145.727C10.875 145.727 10.8709 145.727 10.8648 145.727C10.7933 145.727 10.7218 145.729 10.6524 145.731C10.6462 145.731 10.6421 145.731 10.636 145.731C10.5645 145.733 10.493 145.735 10.4236 145.739C10.4195 145.739 10.4174 145.739 10.4134 145.739C10.3807 145.741 10.35 145.744 10.3174 145.746C10.3133 145.746 10.3092 145.746 10.3051 145.746C10.2704 145.748 10.2336 145.75 10.1989 145.752H10.1968C14.3475 153.244 26.3194 175.647 27.4408 186.753C27.4285 186.742 27.4306 186.74 27.4326 186.74Z" fill="#A5375C"/>
<path d="M20.2854 165.641C22.9082 171.394 25.296 177.329 26.5604 182.207C31.0583 182.309 36.7287 182.086 40.3605 181.904C38.6569 178.467 37.4395 176.079 36.9697 175.153L20.2854 165.641Z" fill="#531C2E"/>
<path d="M20.8002 181.697C22.036 182 24.1276 182.152 26.5604 182.207C25.294 177.331 22.9082 171.396 20.2854 165.641L4.29771 156.53C4.29975 156.571 4.30179 156.61 4.30588 156.651C4.73483 163.555 7.62721 170.074 12.4437 175.026C15.7018 178.374 18.923 181.233 20.8002 181.697Z" fill="#0D5965"/>
<path d="M56.293 180.965H24.432C23.1472 180.965 22.1054 179.92 22.1054 178.631V146.664C22.1054 145.375 23.1472 144.329 24.432 144.329H56.293C57.5779 144.329 58.6196 145.375 58.6196 146.664V178.631C58.6196 179.92 57.5779 180.965 56.293 180.965Z" fill="#FF5136"/>
<path d="M38.4465 167.14C39.7068 171.124 43.0547 171.837 46.6804 170.761C47.8549 170.412 49.0294 171.322 49.0294 172.554V172.689C49.0294 173.493 48.5126 174.204 47.7548 174.466C41.6249 176.575 34.9414 174.774 33.3501 167.144H32.2389C31.4505 167.144 30.8111 166.502 30.8111 165.711C30.8111 164.92 31.4505 164.279 32.2389 164.279H33.0172C32.9355 163.516 32.9886 162.061 33.054 161.247H32.2389C31.4505 161.247 30.8111 160.606 30.8111 159.815C30.8111 159.024 31.4505 158.382 32.2389 158.382H33.536C35.2988 151.238 41.3307 148.846 47.6363 150.525C48.4554 150.742 49.0315 151.486 49.0315 152.337V152.712C49.0315 153.935 47.8672 154.849 46.6967 154.507C43.0649 153.447 39.7558 154.29 38.4486 158.38H43.7308C44.5193 158.38 45.1586 159.022 45.1586 159.813C45.1586 160.604 44.5193 161.245 43.7308 161.245H37.8358C37.7765 161.84 37.7867 163.676 37.8358 164.276H43.7308C44.5193 164.276 45.1586 164.918 45.1586 165.709C45.1586 166.5 44.5193 167.142 43.7308 167.142H38.4465V167.14Z" fill="#FFEA84"/>
<path d="M43.2202 174.513C43.4796 174.532 48.1102 176.286 51.26 174.575C52.6898 173.798 54.3709 174.251 53.7152 175.745C53.0595 177.239 50.0691 176.604 49.6524 177.022C49.2357 177.44 54.8203 180.504 56.3461 180.764C57.872 181.024 55.3698 182.34 54.7754 182.34C54.1789 182.34 54.6569 182.58 54.0604 183.176C53.464 183.775 52.0219 183.631 51.3213 183.775C49.0315 184.238 42.9464 180.018 42.0313 179.098C41.1122 178.182 43.2202 174.513 43.2202 174.513Z" fill="#FFA283"/>
<path d="M10.4093 145.727C10.4093 145.727 12.8298 148.459 14.2168 151.33C15.6139 154.226 23.38 168.461 24.2379 168.461C25.0958 168.461 44.2619 174.724 44.2619 174.724C44.2619 174.724 42.9219 177.503 42.9219 180.61C42.9219 180.61 22.3158 177.264 20.7675 177.264C19.2192 177.264 17.4319 174.515 15.8835 172.962C14.3352 171.408 6.63653 164.379 4.4121 158.87C2.18766 153.361 3.38261 144.532 10.4093 145.727Z" fill="#00989A"/>
<path d="M17.6361 138.15L20.1159 149.187L10.4093 145.727L12.3089 138.187L17.6361 138.15Z" fill="#FFA283"/>
<path d="M17.6361 138.15L12.3089 138.187L11.8677 139.94C13.3915 141.489 15.2217 142.737 16.7129 143.087C17.3052 143.227 18.014 143.233 18.7575 143.145L17.6361 138.15Z" fill="#FF7F4C"/>
<path d="M13.6734 127.543C13.6734 127.543 15.3361 127.557 17.3645 128.891C19.3908 130.223 21.2434 133.939 21.2434 133.939C21.2434 133.939 22.1728 136.298 22.2933 137.685C22.4139 139.071 17.5299 141.313 15.1053 140.997C12.6807 140.683 9.50439 137.931 8.69551 135.421C7.88662 132.906 12.5929 127.401 13.6734 127.543Z" fill="#FFA283"/>
<path d="M18.0814 129.461C17.8465 129.244 17.6055 129.049 17.3645 128.891C15.3382 127.559 13.6734 127.543 13.6734 127.543C13.1607 127.477 11.835 128.678 10.6667 130.227L11.5021 130.172C11.5021 130.172 14.2964 130.94 17.056 129.94C17.4278 129.805 17.7689 129.641 18.0814 129.461Z" fill="#FF7F4C"/>
<path d="M11.5041 130.17C11.5041 130.17 12.4397 132.225 13.0545 135.095C13.6693 137.962 13.3548 140.866 13.3548 140.866C11.3264 141.911 8.06433 141.813 5.2843 138.195C2.50427 134.578 5.65198 131.619 6.35669 131.074C7.0614 130.529 5.9645 130.33 6.45678 128.899C6.95109 127.469 7.81921 128.368 8.767 127.374C9.71274 126.381 7.23094 124.302 8.99169 122.677C10.7524 121.054 13.0484 124.194 13.0484 124.194C13.0484 124.194 14.0207 121.083 15.7957 122.856C17.5708 124.628 17.6443 125.878 16.194 127.807C14.7417 129.733 11.5041 130.17 11.5041 130.17Z" fill="#0D074B"/>
<path d="M13.0668 133.775C13.0668 133.775 10.8668 132.707 10.8668 134.576C10.8668 136.445 11.6206 137.445 12.7093 136.978C13.798 136.511 13.0668 133.775 13.0668 133.775Z" fill="#FFA283"/>
<path d="M352.32 241.913H149.264C144.512 241.913 140.66 238.048 140.66 233.281V71.5624C140.66 66.7955 144.512 62.9303 149.264 62.9303H352.32C357.071 62.9303 360.924 66.7955 360.924 71.5624V233.281C360.924 238.048 357.071 241.913 352.32 241.913Z" fill="#6090FE"/>
<path d="M144.647 233.438V71.4046C144.647 68.7568 146.788 66.609 149.427 66.609H352.155C354.794 66.609 356.935 68.7568 356.935 71.4046V233.441C356.935 236.088 354.794 238.236 352.155 238.236H149.429C146.788 238.236 144.647 236.088 144.647 233.438Z" fill="#DEDAF9"/>
<path d="M351.948 66.6069H149.635C146.886 66.6069 144.649 68.6687 144.649 71.2038V88.3063H356.937V71.2038C356.935 68.6707 354.698 66.6069 351.948 66.6069Z" fill="#2D6163"/>
<path d="M151.317 75.0403L160.394 79.8729V70.2098L151.317 75.0403Z" fill="#E34830"/>
<path d="M356.935 83.2811H144.647V91.862H356.935V83.2811Z" fill="#F2F1FD"/>
<path d="M356.935 93.4565H144.647V232.961H356.935V93.4565Z" fill="#BCBBE8"/>
<path d="M211.672 176.821H176.964V190.796H211.672V176.821Z" fill="#F2F1FD"/>
<path d="M211.672 160.639H176.964V174.614H211.672V160.639Z" fill="#F2F1FD"/>
<path d="M211.672 209.188H176.964V223.163H211.672V209.188Z" fill="#F2F1FD"/>
<path d="M211.672 193.005H176.964V206.982H211.672V193.005Z" fill="#F2F1FD"/>
<path d="M211.672 116.933H176.964V128.028H211.672V116.933Z" fill="#F2F1FD"/>
<path d="M211.672 130.235H176.964V142.249H211.672V130.235Z" fill="#F2F1FD"/>
<path d="M210.475 131.338H178.161V141.147H210.475V131.338Z" fill="#F2F1FD"/>
<path d="M211.672 144.456H176.964V158.434H211.672V144.456Z" fill="#F2F1FD"/>
<path d="M322.98 193.005H288.271V206.982H322.98V193.005Z" fill="#F2F1FD"/>
<path d="M248.775 209.188H214.066V223.163H248.775V209.188Z" fill="#F2F1FD"/>
<path d="M322.98 176.821H288.271V190.796H322.98V176.821Z" fill="#F2F1FD"/>
<path d="M322.98 144.456H288.271V158.434H322.98V144.456Z" fill="#F2F1FD"/>
<path d="M322.98 160.639H288.271V174.614H322.98V160.639Z" fill="#F2F1FD"/>
<path d="M285.877 209.188H251.169V223.163H285.877V209.188Z" fill="#F2F1FD"/>
<path d="M322.98 209.188H288.271V223.163H322.98V209.188Z" fill="#F2F1FD"/>
<path d="M211.672 103.632H176.964V114.727H211.672V103.632Z" fill="#F2F1FD"/>
<path d="M248.775 193.005H214.066V206.982H248.775V193.005Z" fill="#F2F1FD"/>
<path d="M248.775 176.821H214.066V190.796H248.775V176.821Z" fill="#F2F1FD"/>
<path d="M322.98 130.235H288.271V142.249H322.98V130.235Z" fill="#F2F1FD"/>
<path d="M248.775 103.632H214.066V114.727H248.775V103.632Z" fill="#F2F1FD"/>
<path d="M248.775 116.933H214.066V128.028H248.775V116.933Z" fill="#F2F1FD"/>
<path d="M248.775 144.456H214.066V158.434H248.775V144.456Z" fill="#F2F1FD"/>
<path d="M285.877 193.005H251.169V206.982H285.877V193.005Z" fill="#F2F1FD"/>
<path d="M248.775 130.235H214.066V142.249H248.775V130.235Z" fill="#F2F1FD"/>
<path d="M248.775 160.639H214.066V174.614H248.775V160.639Z" fill="#F2F1FD"/>
<path d="M285.877 116.933H251.169V128.028H285.877V116.933Z" fill="#F2F1FD"/>
<path d="M285.877 130.235H251.169V142.249H285.877V130.235Z" fill="#F2F1FD"/>
<path d="M285.877 176.821H251.169V190.796H285.877V176.821Z" fill="#F2F1FD"/>
<path d="M285.877 103.632H251.169V114.727H285.877V103.632Z" fill="#F2F1FD"/>
<path d="M285.877 144.456H251.169V158.434H285.877V144.456Z" fill="#F2F1FD"/>
<path d="M285.877 160.639H251.169V174.614H285.877V160.639Z" fill="#F2F1FD"/>
<path d="M355.74 209.188H325.374V223.163H355.74V209.188Z" fill="#F2F1FD"/>
<path d="M248.775 225.37H214.066V231.856H248.775V225.37Z" fill="#F2F1FD"/>
<path d="M285.877 225.37H251.169V231.856H285.877V225.37Z" fill="#F2F1FD"/>
<path d="M322.98 225.37H288.271V231.856H322.98V225.37Z" fill="#F2F1FD"/>
<path d="M174.57 225.37H145.844V231.856H174.57V225.37Z" fill="#F2F1FD"/>
<path d="M174.57 209.188H145.844V223.163H174.57V209.188Z" fill="#F2F1FD"/>
<path d="M211.672 225.37H176.964V231.856H211.672V225.37Z" fill="#F2F1FD"/>
<path d="M355.74 225.37H325.374V231.856H355.74V225.37Z" fill="#F2F1FD"/>
<path d="M355.74 193.005H325.374V206.982H355.74V193.005Z" fill="#F2F1FD"/>
<path d="M355.74 130.235H325.374V142.249H355.74V130.235Z" fill="#F2F1FD"/>
<path d="M322.98 116.933H288.271V128.028H322.98V116.933Z" fill="#6F6D7D"/>
<path d="M321.783 118.037H289.468V126.926H321.783V118.037Z" fill="#F2F1FD"/>
<path d="M355.74 144.456H325.374V158.434H355.74V144.456Z" fill="#F2F1FD"/>
<path d="M355.74 116.933H325.374V128.028H355.74V116.933Z" fill="#F2F1FD"/>
<path d="M355.74 160.639H325.374V174.614H355.74V160.639Z" fill="#F2F1FD"/>
<path d="M355.74 176.821H325.374V190.796H355.74V176.821Z" fill="#F2F1FD"/>
<path d="M174.57 193.005H145.844V206.982H174.57V193.005Z" fill="#F2F1FD"/>
<path d="M355.74 103.632H325.374V114.727H355.74V103.632Z" fill="#F2F1FD"/>
<path d="M322.98 103.632H288.271V114.727H322.98V103.632Z" fill="#F2F1FD"/>
<path d="M174.57 130.235H145.844V142.249H174.57V130.235Z" fill="#F2F1FD"/>
<path d="M356.935 94.5591H145.844V101.425H356.935V94.5591Z" fill="#F2F1FD"/>
<path d="M174.57 176.821H145.844V190.796H174.57V176.821Z" fill="#F2F1FD"/>
<path d="M174.57 160.639H145.844V174.614H174.57V160.639Z" fill="#F2F1FD"/>
<path d="M174.57 144.456H145.844V158.434H174.57V144.456Z" fill="#F2F1FD"/>
<path d="M174.57 103.632H145.844V114.727H174.57V103.632Z" fill="#F2F1FD"/>
<path d="M174.57 116.933H145.844V128.028H174.57V116.933Z" fill="#F2F1FD"/>
<path d="M325.172 80.7726H318.333C317.887 80.7726 317.526 80.4098 317.526 79.963C317.526 79.5163 317.887 79.1535 318.333 79.1535H325.172C325.617 79.1535 325.978 79.5163 325.978 79.963C325.978 80.4098 325.617 80.7726 325.172 80.7726Z" fill="#F2F1FD"/>
<path d="M347.833 73.616H340.009V79.6823H347.833V73.616Z" fill="#F2F1FD"/>
<path d="M347.089 78.9353V74.3631H340.755V78.9353H347.089Z" fill="#6F6D7D"/>
<path d="M347.765 66.0023C347.741 65.9614 345.653 62.3605 345.631 62.3175H345.604C345.443 62.6495 343.621 65.9614 343.598 66.0023H342.295L344.977 61.5469L342.399 57.196H343.715C345.124 59.7065 345.377 60.141 345.682 60.7497H345.72C346.178 59.7823 346.525 59.2597 347.712 57.196H349.013L346.343 61.4813L349.076 66.0023H347.765Z" fill="#F2F1FD"/>
<path d="M372.908 204.347H342.203C340.965 204.347 339.96 203.341 339.96 202.097V171.288C339.96 170.046 340.965 169.037 342.203 169.037H372.91C374.148 169.037 375.153 170.046 375.153 171.288V202.097C375.151 203.339 374.146 204.347 372.908 204.347Z" fill="#FF5136"/>
<path d="M410.756 204.347H380.049C378.811 204.347 377.806 203.341 377.806 202.097V171.288C377.806 170.046 378.809 169.037 380.049 169.037H410.756C411.994 169.037 412.999 170.046 412.999 171.288V202.097C412.999 203.339 411.996 204.347 410.756 204.347Z" fill="#FF5136"/>
<path d="M372.908 242.577H342.203C340.965 242.577 339.96 241.569 339.96 240.327V209.518C339.96 208.276 340.965 207.267 342.203 207.267H372.91C374.148 207.267 375.153 208.276 375.153 209.518V240.327C375.151 241.569 374.146 242.577 372.908 242.577Z" fill="#FF5136"/>
<path d="M410.756 242.577H380.049C378.811 242.577 377.806 241.569 377.806 240.327V209.518C377.806 208.276 378.809 207.267 380.049 207.267H410.756C411.994 207.267 412.999 208.276 412.999 209.518V240.327C412.999 241.569 411.996 242.577 410.756 242.577Z" fill="#FF5136"/>
<path d="M350.163 176.95L357.555 184.367L364.948 176.95C365.587 176.309 366.623 176.307 367.266 176.944L367.268 176.946C367.916 177.587 367.918 178.635 367.276 179.282L359.892 186.712L367.262 194.106C367.901 194.747 367.903 195.786 367.268 196.432C366.627 197.082 365.583 197.084 364.938 196.438L357.558 189.034L350.177 196.438C349.534 197.084 348.488 197.082 347.847 196.432C347.212 195.786 347.214 194.747 347.853 194.106L355.221 186.712L347.837 179.282C347.193 178.637 347.197 177.59 347.845 176.946L347.847 176.944C348.488 176.305 349.524 176.309 350.163 176.95Z" fill="#FFEA84"/>
<path d="M359.19 212.793V223.281H369.644C370.549 223.281 371.282 224.015 371.286 224.921V224.923C371.29 225.835 370.555 226.579 369.646 226.579L359.19 226.593V237.05C359.19 237.957 358.458 238.693 357.555 238.697C356.644 238.701 355.905 237.962 355.905 237.05V226.577H345.467C344.556 226.577 343.819 225.833 343.825 224.919C343.829 224.011 344.564 223.279 345.467 223.279H355.889L355.903 212.788C355.905 211.876 356.644 211.137 357.555 211.143H357.558C358.46 211.149 359.19 211.885 359.19 212.793Z" fill="#FFEA84"/>
<path d="M385.856 223.398H404.949C405.852 223.398 406.585 224.134 406.585 225.04C406.585 225.946 405.852 226.681 404.949 226.681H385.856C384.953 226.681 384.22 225.948 384.22 225.04C384.222 224.134 384.953 223.398 385.856 223.398ZM398.233 217.254C398.233 220.019 394.989 220.914 393.373 219.291C392.331 218.246 392.327 216.264 393.373 215.229C394.903 213.717 398.233 214.377 398.233 217.254ZM398.233 232.57C398.233 236.345 392.595 236.349 392.595 232.57C392.595 231.731 392.854 231.057 393.371 230.545C394.854 229.079 398.233 229.639 398.233 232.57Z" fill="#FFEA84"/>
<path d="M385.836 185.072H404.971C405.864 185.072 406.585 185.797 406.585 186.691C406.585 187.585 405.862 188.31 404.971 188.31H385.836C384.943 188.31 384.222 187.585 384.222 186.691C384.222 185.797 384.945 185.072 385.836 185.072Z" fill="#FFEA84"/>
<path d="M372.589 156.472L374.095 162.961L372.189 165.344L369.156 163.987C369.156 163.987 370.222 162.616 370.25 161.547C370.279 160.477 369.256 156.847 369.256 156.847L372.589 156.472Z" fill="#E76A53"/>
<path d="M407.353 79.1289L410.123 73.0729L413.085 72.3576L414.655 75.2945C414.655 75.2945 412.974 75.7228 412.3 76.5528C411.626 77.3828 410.219 80.8791 410.219 80.8791L407.353 79.1289Z" fill="#E76A53"/>
<path d="M352.198 36.2098L353.595 47.5637L362.397 42.6963L357.66 34.183L352.198 36.2098Z" fill="#FFA283"/>
<path d="M358.73 36.1094L357.658 34.185L352.196 36.2119L352.966 42.4626C353.672 42.2618 354.314 41.9892 354.814 41.6429C356.279 40.6325 357.752 38.454 358.73 36.1094Z" fill="#FF7F4C"/>
<path d="M370.028 82.8814L380.588 86.8102C380.588 86.8102 393.169 100.113 396.876 95.8891C400.586 91.6653 407.645 77.1943 407.645 77.1943L412.39 80.1885C412.39 80.1885 408.458 101.378 403.09 105.749C388.887 117.318 362.397 97.004 362.397 97.004L370.028 82.8814Z" fill="#006A6B"/>
<path d="M352.68 22.1733C352.68 22.1733 352.408 22.0606 350.847 24.2104C349.736 25.7414 349.064 27.5715 348.37 29.3176C347.336 31.9183 346.474 34.7506 347.252 37.5358C347.661 38.9991 353.519 39.3987 355.878 38.1384C358.236 36.878 360.425 32.8324 360.286 29.9509C360.15 27.0714 353.732 21.6118 352.68 22.1733Z" fill="#FFA283"/>
<path d="M356.536 36.1955C356.898 36.9661 357.502 37.1792 359.335 37.212C361.692 37.2551 364.031 35.4638 364.625 32.1889C366.443 22.1733 356.984 19.7284 354.553 18.7713C353.642 18.4126 352.927 18.7077 352.392 19.2201C351.53 20.044 350.369 20.4477 349.195 20.2571C348.682 20.1731 347.32 20.1423 346.95 20.9273C345.894 23.1755 345.865 25.5118 349.851 25.5118C358.887 25.5139 355.84 34.7097 356.536 36.1955Z" fill="#160C80"/>
<path d="M368.337 82.8814C369.501 82.9122 376.246 85.5149 377.104 89.8864C377.961 94.2578 373.316 158.106 373.316 158.106L368.968 158.706C368.968 158.706 356.201 95.633 358.295 90.7184C360.387 85.8019 368.337 82.8814 368.337 82.8814Z" fill="#0099A0"/>
<path d="M377.101 89.8864C376.244 85.5149 369.499 82.9122 368.334 82.8814C368.334 82.8814 360.385 85.8039 358.291 90.7205C358.095 91.1796 358.029 92.1428 358.07 93.5159C360.987 92.4441 364.127 91.5546 365.268 92.1694C367.609 93.4339 369.452 95.9096 373.915 97.0061C374.781 97.2192 375.886 97.0737 377.11 96.7028C377.234 93.1081 377.249 90.6324 377.101 89.8864Z" fill="#007378"/>
<path d="M374.436 161.973C374.436 161.973 375.281 163.018 375.598 164.85C375.915 166.685 375.504 168.451 375.504 168.451C375.504 168.451 366.623 169.511 363.091 169.078C359.561 168.646 359.212 168.054 359.239 167.055C359.265 166.057 364.018 166.059 365.362 164.781C366.706 163.502 368.52 160.823 369.384 161.186C370.248 161.549 370.183 163.153 371.323 163.184C372.463 163.211 373.892 161.399 374.436 161.973Z" fill="#09434C"/>
<path d="M409.248 73.6467C409.248 73.6467 409.216 72.3002 410.086 70.6566C410.956 69.013 412.357 67.8673 412.357 67.8673C412.357 67.8673 420.025 72.4867 422.552 74.9993C425.079 77.5099 424.993 78.1944 424.364 78.967C423.735 79.7397 419.976 76.8172 418.134 77.0016C416.292 77.1881 413.221 78.1903 412.76 77.3726C412.298 76.5549 413.33 75.3272 412.447 74.6038C411.565 73.8804 409.328 74.4337 409.248 73.6467Z" fill="#09434C"/>
<path d="M350.713 52.7897L350.545 53.5992C348.505 63.4344 351.771 76.1634 355.578 85.4535C356.779 88.3821 356.747 89.2961 358.293 90.7164L365.271 86.8553L350.713 52.7897Z" fill="#A5375C"/>
<path d="M350.713 52.7897L350.545 53.5992C349.438 58.9339 349.891 65.1191 351.148 71.1464C352.845 70.0397 354.818 68.6297 356.771 66.9635L350.713 52.7897Z" fill="#531C2E"/>
<path d="M361.479 40.6387C361.479 40.6387 367.571 47.9695 370.718 55.5503C373.866 63.1311 384.59 88.0071 384.59 88.0071C384.59 88.0071 374.505 94.7066 368.206 92.7802C361.906 90.8537 351.667 70.589 348.948 61.1247C346.229 51.6605 352.908 44.7805 354.107 44.1411C355.304 43.4976 361.479 40.6387 361.479 40.6387Z" fill="#0099A0"/>
<path d="M348.946 61.1227C349.659 63.6066 350.892 66.8365 352.435 70.2836C359.204 65.6109 368.812 56.8906 365.761 46.498C364.648 44.8133 347.634 56.5525 348.946 61.1227Z" fill="#007378"/>
<path d="M307.413 36.507C305.581 36.507 304.096 34.847 304.096 32.7975C304.096 30.7481 305.581 29.0881 307.413 29.0881C309.245 29.0881 310.73 30.7481 310.73 32.7975C310.73 34.8449 309.245 36.507 307.413 36.507Z" fill="#192DA4"/>
<path d="M331.365 36.2734V29.4795H333.961C335.135 29.4795 336.089 30.4346 336.089 31.615V34.1379C336.089 35.3163 335.138 36.2734 333.961 36.2734H331.365Z" fill="#13227B"/>
<path d="M324.761 45.5839L328.303 34.5969L331.669 35.6012L328.748 45.5245L324.761 45.5839Z" fill="#213DDB"/>
<path d="M313.974 40.7186C317.103 38.497 320.841 37.3042 324.673 37.3042H332.603L333.217 34.974C333.591 33.5558 333.591 32.0659 333.217 30.6477L332.603 28.3175H324.673C320.841 28.3175 317.103 27.1247 313.974 24.9032L308.375 20.9273V44.6945L313.974 40.7186Z" fill="#FF5136"/>
<path d="M315.52 35.0704C313.602 35.6483 310.413 39.8435 308.375 42.7783V44.6945L313.974 40.7186C317.103 38.497 320.841 37.3042 324.673 37.3042H332.603L333.217 34.974C333.591 33.5558 333.591 32.0659 333.217 30.6477L332.603 28.3175C332.603 28.3175 332.225 31.9183 330.48 33.6686C328.736 35.4208 318.513 34.1707 315.52 35.0704Z" fill="#FF5136"/>
<path d="M306.453 45.6679V20.085C306.453 19.5521 306.884 19.1197 307.415 19.1197C307.946 19.1197 308.377 19.5521 308.377 20.085V45.6679C308.377 46.2008 307.946 46.6332 307.415 46.6332C306.884 46.6332 306.453 46.2008 306.453 45.6679Z" fill="#FFEA84"/>
<path d="M355.464 31.1887C355.464 31.1887 355.642 28.6557 356.971 29.0881C358.301 29.5205 358.81 32.2381 357.592 32.8119C356.375 33.3857 355.464 31.1887 355.464 31.1887Z" fill="#FFA283"/>
<path d="M335.242 48.367C334.631 48.367 331.898 43.5632 331.898 43.5632C331.898 43.5632 327.206 39.4192 326.579 39.4192C325.952 39.4192 325.919 40.7944 325.586 41.4953C325.253 42.1962 324.759 43.0631 324.759 43.5632C324.759 44.0632 324.205 45.0285 324.759 45.5839C325.312 46.1393 327.014 48.201 328.045 48.367C329.077 48.533 331.238 50.4882 331.238 50.4882L335.242 48.367Z" fill="#FFA283"/>
<path d="M364.656 52.7897C361.392 58.2207 350.778 67.937 345.537 68.4801C340.297 69.0232 329.878 50.4861 329.878 50.4861L333.499 45.0777C333.499 45.0777 343.414 55.2675 345.931 54.5153C348.447 53.7632 353.568 41.4748 360.626 42.0384C367.679 42.6041 365.842 50.8141 364.656 52.7897Z" fill="#0099A0"/>
<path d="M196.573 53.716C196.573 53.716 217.831 55.4417 217.831 61.76C217.831 66.9615 208.263 87.9702 206.494 96.0531C206.165 97.5574 208.155 99.7626 208.059 100.008C207.597 101.168 205.115 99.5166 205.115 99.5166L203.206 93.7106C203.206 93.7106 210.514 66.4491 208.29 64.2173C206.065 61.9855 184.599 57.3722 184.599 57.3722L196.573 53.716Z" fill="#E76A53"/>
<path d="M211.819 61.9015C210.071 56.6365 194.055 55.5113 194.055 55.5113L187.208 56.575L184.595 57.3722C184.595 57.3722 206.061 61.9834 208.286 64.2173C209.679 65.615 207.334 76.8295 205.385 85.0169C208.539 75.8334 212.808 64.8772 211.819 61.9015Z" fill="#FF7F4C"/>
<path d="M177.088 57.5526C177.088 57.5526 176.445 60.4996 178.224 62.2847C180.003 64.0697 199.813 63.1229 200.787 65.7769C202.517 70.4906 197.958 93.6204 197.958 93.6204L199.927 99.3896C199.927 99.3896 202.615 101.209 202.867 100.527C202.987 100.201 200.977 97.6209 201.212 95.5571C202.088 87.8615 212.181 65.8937 210.716 61.4813C208.968 56.2163 192.952 55.0912 192.952 55.0912L177.088 57.5526Z" fill="#FFA283"/>
<path d="M177.088 58.5322C177.088 58.5322 176.461 61.4813 177.636 62.6597C178.81 63.8382 200.787 65.7769 200.787 65.7769C200.787 65.7769 200.054 62.1556 204.335 60.555C208.617 58.9544 213.045 58.4174 216.415 59.1081C216.415 59.1081 215.754 56.9562 209.374 55.0912C202.993 53.2262 195.971 53.1422 195.971 53.1422L177.088 58.5322Z" fill="#006A6B"/>
<path d="M203.332 93.6204C203.332 93.6204 202.877 93.3233 202.242 94.2783C201.606 95.2313 201.88 100.605 201.88 100.605L202.883 100.828C202.883 100.828 202.914 96.8872 203.146 96.9323C203.379 96.9753 203.773 101.068 204.313 101.33C204.852 101.593 208.539 102.548 209.231 102.074C209.922 101.601 208.055 100.008 208.055 100.008C208.055 100.008 206.131 99.904 205.933 99.6109C205.734 99.3178 203.332 93.6204 203.332 93.6204Z" fill="#09434C"/>
<path d="M184.16 1.94343C184.83 2.08484 190.878 2.15247 190.878 6.56693C190.878 10.9814 190.79 12.7357 191.928 14.6663C193.066 16.5968 191.172 21.2798 189.753 21.2962C188.335 21.3126 188.217 26.4238 188.217 26.4238C188.217 26.4238 180.034 30.1087 177.758 29.1434C177.191 28.9016 176.545 28.8585 175.898 28.9282C171.88 29.3627 169.063 24.8109 171.635 21.6835C171.743 21.5523 171.859 21.4212 171.986 21.2962C175.465 17.806 175.048 18.0888 175.048 14.1396C175.048 10.1903 175.749 11.3319 177.409 8.96271C179.072 6.59563 180.05 1.07857 184.16 1.94343Z" fill="#160862"/>
<path d="M191.509 33.0742C191.509 33.0742 195.331 43.516 199.803 45.0654C204.274 46.6148 206.306 51.5109 206.306 51.5109L203.659 53.8472L194.974 49.9615L191.509 33.0742Z" fill="#A5375C"/>
<path d="M194.31 39.0852L192.625 38.4991L194.978 49.9594L199.306 51.8962C198.951 49.5557 198.044 45.9856 197.325 43.3254C196.203 42.1675 195.178 40.6243 194.31 39.0852Z" fill="#1A3140"/>
<path d="M189.23 21.3556C190.453 22.5832 197.789 29.1127 196.308 33.1459C193.021 42.0999 198.745 52.2835 198.745 53.6873C198.745 55.0912 181.274 59.8295 177.426 59.8295C173.577 59.8295 182.054 47.4981 180.479 43.2865C178.904 39.0749 176.813 22.1856 178.126 20.8699C178.998 19.9907 188.985 21.1097 189.23 21.3556Z" fill="#A5375C"/>
<path d="M183.829 42.3335C183.255 38.9376 180.161 32.1007 177.873 27.3584C178.3 33.0045 179.491 40.6428 180.479 43.2865C182.054 47.4981 173.577 59.8295 177.426 59.8295C177.722 59.8295 178.1 59.8008 178.543 59.7496L179.16 59.6676C179.162 59.6676 179.162 59.6676 179.164 59.6676C179.166 59.6614 184.761 47.8383 183.829 42.3335Z" fill="#531C2E"/>
<path d="M186.331 13.3792L187.001 21.3679C187.001 21.3679 191.503 30.8916 189.35 31.6827C187.197 32.4717 182.275 21.7347 182.275 21.7347V11.5081L186.331 13.3792Z" fill="#FFA283"/>
<path d="M182.275 11.5081V16.6809C183.615 18.7159 185.508 20.1423 186.901 20.1772L186.331 13.3792L182.275 11.5081Z" fill="#FF7F4C"/>
<path d="M186.331 4.13836C186.331 4.13836 188.693 3.08496 189.479 7.82323C190.266 12.5615 189.604 17.599 187.271 17.9515C184.938 18.302 180.645 14.5392 180.645 10.633C180.647 7.27194 184.464 3.6383 186.331 4.13836Z" fill="#FFA283"/>
<path d="M197.96 93.6204C197.96 93.6204 197.505 93.3233 196.869 94.2783C196.234 95.2313 196.51 100.605 196.51 100.605L197.513 100.828C197.513 100.828 197.543 96.8872 197.776 96.9323C198.009 96.9753 198.403 101.068 198.943 101.33C199.482 101.593 203.169 102.548 203.861 102.074C204.552 101.601 202.685 100.008 202.685 100.008C202.685 100.008 200.761 99.904 200.562 99.6109C200.36 99.3178 197.96 93.6204 197.96 93.6204Z" fill="#09434C"/>
<path d="M209.374 55.0912C202.993 53.2262 195.971 53.1422 195.971 53.1422L187.984 55.4232C188.744 55.6712 190.386 56.1733 191.166 56.1733C192.204 56.1733 197.57 57.569 199.216 57.569C200.289 57.569 207.849 56.8947 212.998 56.4254C212.063 55.9848 210.878 55.5298 209.374 55.0912Z" fill="#1A3140"/>
<path d="M189.234 54.8207V53.4681L196.583 55.4929H199.803L199.792 56.243L196.669 56.1733L189.234 54.8207Z" fill="#686476"/>
<path d="M189.234 53.4681L207.893 53.9579L220.727 56.1733L196.583 55.4929L189.234 53.4681Z" fill="#1A3140"/>
<path d="M192.506 51.5109C192.506 51.5109 195.245 52.472 196.669 52.0622C198.093 51.6502 199.082 51.4494 200.489 52.429C201.896 53.4086 202.364 54.4415 202.364 54.4415C202.364 54.4415 203.226 55.3925 202.364 55.5113C201.502 55.6323 195.566 55.4519 195.403 55.2879C195.237 55.1219 190.525 54.2345 190.525 54.2345L192.506 51.5109Z" fill="#FFA283"/>
<path d="M174.272 48.8446C177.805 53.8534 188.648 55.9786 192.954 55.0892C192.954 55.0892 193.078 53.6791 194.966 51.7855C195.403 51.3469 182.015 46.1291 180.477 45.2396C178.939 44.3502 178.402 21.3228 178.402 21.3228C178.402 21.3228 176.086 22.3004 175.013 25.6983C172.858 32.5311 171.473 44.8789 174.272 48.8446Z" fill="#C25076"/>
<path d="M173.984 28.7766C173.02 28.4917 172.158 27.8646 171.559 27.0592C170.311 25.3786 170.303 23.0115 171.988 21.3208C175.467 17.8306 175.05 18.1134 175.05 14.1642C175.05 10.2149 174.654 9.28652 176.316 6.91739C177.977 4.54825 180.052 1.10316 184.16 1.96802C184.213 1.97827 184.299 1.99057 184.413 2.00286C184.493 2.02336 188.891 2.03975 188.088 4.538C188.088 4.538 187.022 4.0113 186.286 5.17332C184.918 7.33752 184.887 8.02408 183.312 8.72703C181.738 9.42793 182.346 12.1496 182.346 13.9469C182.346 15.3262 182.152 16.6993 182.189 18.0786C182.23 19.6484 185.22 30.5678 176.41 28.9549C175.603 28.8032 174.793 29.0164 173.984 28.7766Z" fill="#003C8E"/>
<path d="M201.318 31.9245L196.369 54.1628C196.136 55.206 196.918 56.1999 197.985 56.2163L221.273 56.5606C222.029 56.5709 222.699 56.0749 222.909 55.3474L229.49 32.7648C229.805 31.6847 228.998 30.6067 227.879 30.6067H202.958C202.172 30.6067 201.49 31.1539 201.318 31.9245Z" fill="#686476"/>
<path d="M200.934 33.6481L196.369 54.1628C196.136 55.206 196.918 56.1999 197.985 56.2163L213.358 56.4438C215.662 52.2364 219.469 44.6596 219.469 40.5382C219.469 36.5255 208.186 34.5211 200.934 33.6481Z" fill="#686476"/>
<path d="M209.454 220.81C208.498 222.285 210.586 224.884 212.34 224.884C213.086 224.884 213.782 224.505 214.191 223.878L240.919 182.781C241.889 181.291 240.181 178.434 238.406 178.434L209.454 220.81Z" fill="#192DA4"/>
<path d="M225.568 216.252C225.568 220.148 226.88 223.72 230.534 225.153C233.653 226.378 237.879 225.921 240.435 222.96C243.086 219.886 243.329 215.166 242.234 211.899C239.401 203.457 225.568 204.718 225.568 216.252ZM234.182 221.669C231.22 221.669 230.293 219.117 230.293 216.123C230.293 209.962 235.15 209.456 237.058 211.93C238.862 214.268 238.666 221.669 234.182 221.669Z" fill="#192DA4"/>
<path d="M236.282 179.438L209.595 220.562C208.637 222.037 209.693 223.989 211.446 223.989C212.191 223.989 212.888 223.611 213.296 222.982L240.024 181.885C240.994 180.395 239.928 178.42 238.153 178.42C237.397 178.42 236.695 178.803 236.282 179.438Z" fill="#213DDB"/>
<path d="M224.504 214.926C224.504 218.822 225.816 222.394 229.47 223.827C232.589 225.052 236.815 224.595 239.371 221.634C242.022 218.56 242.265 213.84 241.17 210.573C238.337 202.131 224.504 203.392 224.504 214.926ZM233.118 220.343C230.156 220.343 229.229 217.791 229.229 214.797C229.229 208.636 234.086 208.13 235.994 210.604C237.798 212.942 237.602 220.343 233.118 220.343Z" fill="#213DDB"/>
<path d="M207.226 186.433C207.226 190.329 208.537 193.901 212.191 195.333C215.31 196.559 219.537 196.102 222.092 193.141C224.743 190.066 224.986 185.347 223.891 182.08C221.058 173.638 207.226 174.899 207.226 186.433ZM215.839 191.849C212.878 191.849 211.95 189.298 211.95 186.304C211.95 180.143 216.808 179.637 218.715 182.111C220.519 184.449 220.323 191.849 215.839 191.849Z" fill="#192DA4"/>
<path d="M206.161 185.107C206.161 189.003 207.473 192.575 211.127 194.007C214.246 195.233 218.472 194.776 221.028 191.815C223.679 188.74 223.922 184.021 222.827 180.754C219.994 172.312 206.161 173.573 206.161 185.107ZM214.775 190.523C211.813 190.523 210.886 187.972 210.886 184.978C210.886 178.817 215.743 178.311 217.651 180.785C219.455 183.123 219.259 190.523 214.775 190.523Z" fill="#213DDB"/>
<path d="M204.488 251.894C204.488 254.914 202.047 257.366 199.035 257.366C196.024 257.366 193.581 254.916 193.581 251.894C193.581 248.873 196.022 246.422 199.035 246.422C202.047 246.422 204.488 248.873 204.488 251.894Z" fill="#1F3050"/>
<path d="M249.67 251.894C249.67 254.914 247.229 257.366 244.216 257.366C241.205 257.366 238.762 254.916 238.762 251.894C238.762 248.873 241.203 246.422 244.216 246.422C247.226 246.422 249.67 248.873 249.67 251.894Z" fill="#1F3050"/>
<path d="M196.359 251.785L195.918 251.863C194.812 252.057 193.758 251.316 193.564 250.207L192.498 244.098L197.078 244.089L198.009 249.424C198.203 250.535 197.466 251.59 196.359 251.785Z" fill="#FFAB00"/>
<path d="M241.54 251.785L241.099 251.863C239.994 252.057 238.94 251.316 238.745 250.207L237.679 244.098L242.259 244.089L243.19 249.424C243.384 250.535 242.645 251.59 241.54 251.785Z" fill="#FFAB00"/>
<path d="M242.97 244.448H190.77C190.386 244.448 190.074 244.134 190.074 243.749C190.074 243.364 190.386 243.05 190.77 243.05H242.97C246.82 243.05 248.777 238.343 246.044 235.603C243.074 232.623 239.132 230.789 234.946 230.438L220.813 229.256C220.429 229.223 220.145 228.887 220.178 228.501C220.211 228.116 220.576 227.864 220.962 227.897L235.063 229.047C239.577 229.424 243.826 231.401 247.028 234.615C248.113 235.703 248.709 237.148 248.709 238.687C248.709 241.864 246.136 244.448 242.97 244.448Z" fill="#FFAB00"/>
<path d="M244.187 229.26C243.803 229.26 243.491 228.946 243.491 228.561V196.467C243.491 190.306 248.293 185.203 254.423 184.851L264.33 184.279C264.718 184.254 265.042 184.551 265.065 184.937C265.087 185.322 264.793 185.652 264.409 185.675L254.502 186.246C249.108 186.558 244.884 191.048 244.884 196.469V228.563C244.882 228.946 244.571 229.26 244.187 229.26Z" fill="#FFAB00"/>
<path d="M245.01 199.902L244.884 199.758H197.631C197.037 199.758 196.59 200.297 196.696 200.883L201.741 228.665C201.804 229.01 202.103 229.26 202.452 229.26H244.884L245.01 229.116V199.902ZM200.867 216.065H206.909L207.726 221.455H201.847L200.867 216.065ZM243.491 207.191H238.815V201.154H243.491V207.191ZM238.815 221.455V216.065H243.491V221.455H238.815ZM243.491 222.445V227.862H238.815V222.445H243.491ZM238.815 215.076V208.179H243.491V215.076H238.815ZM237.828 207.191H229.791V201.154H237.828V207.191ZM237.828 208.179V215.076H229.791V208.179H237.828ZM237.828 216.065V221.455H229.791V216.065H237.828ZM237.828 222.445V227.862H229.791V222.445H237.828ZM229.041 207.191H216.26L215.57 201.154H229.041V207.191ZM229.041 208.179V215.076H217.163L216.375 208.179H229.041ZM229.041 216.065V221.455H217.892L217.275 216.065H229.041ZM229.041 222.445V227.862H218.626L218.007 222.445H229.041ZM214.459 201.154L215.149 207.191H206.85L205.935 201.154H214.459ZM215.261 208.179L216.05 215.076H208.043L206.997 208.179H215.261ZM206.758 215.076H200.687L199.435 208.179H205.714L206.758 215.076ZM208.194 216.065H216.164L216.781 221.455H209.011L208.194 216.065ZM216.893 222.445L217.512 227.862H209.983L209.162 222.445H216.893ZM204.648 201.154L205.563 207.191H199.255L198.158 201.154H204.648ZM202.025 222.445H207.875L208.696 227.862H203.01L202.025 222.445Z" fill="#FFAB00"/>
<path d="M288.369 249.569L286.919 253.615L283.508 251.771C283.508 251.771 283.679 251.186 284.031 250.945C284.38 250.703 285.367 245.522 285.367 245.522L288.369 249.569Z" fill="#E76A53"/>
<path d="M319.509 245.096L322.761 242.606C322.761 242.606 313.257 221.564 313.257 216.572C313.257 211.579 315.998 185.443 312.691 182.127C309.384 178.809 309.457 175.138 309.457 175.138L297.449 181.129C297.449 181.129 298.76 209.335 302.243 219.818C305.726 230.299 319.509 245.096 319.509 245.096Z" fill="#0A4F59"/>
<path d="M312.691 182.125C310.152 179.577 309.607 176.823 309.488 175.682C309.368 175.54 309.253 175.409 309.147 175.29L297.447 181.127C297.447 181.127 298.38 201.205 300.764 213.778C305.493 205.929 314.887 198.047 314.192 188.503C313.996 185.361 313.545 182.982 312.691 182.125Z" fill="#073B43"/>
<path d="M300.037 181.877C300.037 181.877 282.838 208.835 281.843 214.075C280.848 219.318 284.255 247.991 284.255 247.991L289.023 249.569C289.023 249.569 291.981 220.252 295.527 216.695C299.073 213.137 311.841 196.299 313.257 193.108C315.577 187.874 311.447 178.131 311.447 178.131L300.037 181.877Z" fill="#0D5965"/>
<path d="M311.447 178.133L300.037 181.877C300.037 181.877 297.951 185.146 295.192 189.628C295.555 189.896 295.931 190.126 296.321 190.31C300.836 192.462 309.457 187.537 312.693 184.123C312.877 183.928 313.014 183.611 313.108 183.189C312.376 180.323 311.447 178.133 311.447 178.133Z" fill="#073B43"/>
<path d="M286.627 132.412C286.627 132.412 283.655 132.789 282.942 134.049C282.231 135.31 282.021 143.963 283.737 144.762C285.452 145.559 290.101 142.62 290.394 139.048C290.688 135.48 286.627 132.412 286.627 132.412Z" fill="#FFA283"/>
<path d="M282.942 134.052C283.653 132.791 286.627 132.414 286.627 132.414C286.627 132.414 288.535 133.855 289.64 135.91C289.221 136.218 288.892 136.355 288.737 136.201C288.185 135.648 284.38 135.904 282.591 135.541C282.683 134.834 282.803 134.3 282.942 134.052Z" fill="#FF7F4C"/>
<path d="M297.177 144.895L290.396 139.05L286.041 142.999L289.683 148.543L297.177 144.895Z" fill="#FFA283"/>
<path d="M286.041 142.999L290.396 139.05L291.415 139.927L291.207 140.032C290.765 140.251 290.547 140.755 290.69 141.227C291.176 142.829 291.891 146.397 289.217 147.83L286.041 142.999Z" fill="#FF7F4C"/>
<path d="M284.868 141.444C285.769 142.348 288.778 137.982 288.778 136.429C288.778 134.875 284.09 135.173 282.415 134.373C280.74 133.576 279.67 130.311 282.415 129.135C285.16 127.959 286.711 129.262 286.711 129.262C286.711 129.262 289.307 128.506 291.609 129.346C293.911 130.186 294.162 131.992 294.162 131.992C294.162 131.992 295.543 132.035 295.878 134.597C296.213 137.158 293.97 142.13 293.97 142.13L290.41 139.384L290.342 139.425C289.748 139.784 289.511 140.53 289.789 141.169C290.091 141.86 290.41 142.753 290.41 143.458C290.41 144.282 289.636 146.049 287.967 147.151C286.006 148.447 283.332 147.529 282.501 145.325C282.045 144.118 281.696 142.85 281.98 142.323C282.591 141.192 283.969 140.54 284.868 141.444Z" fill="#03257D"/>
<path d="M288.737 136.199C288.737 136.199 290.077 135.041 290.99 135.957C291.903 136.874 291.76 137.743 290.778 138.435C289.793 139.126 288.326 137.958 288.326 137.958L288.737 136.199Z" fill="#FFA283"/>
<path d="M293.037 144.684C293.037 144.684 286.817 155.667 286.817 163.155C286.817 170.644 289.826 185.062 296.319 188.003C300.833 190.048 309.455 185.369 312.691 182.125C315.924 178.881 304.731 139.942 293.037 144.684Z" fill="#912A4D"/>
<path d="M291.243 182.453C293.948 181.615 296.521 179.6 297.81 175.29C301.228 163.862 297.802 146.061 297.802 146.061L296.834 144.604L287.236 168.72C287.855 173.28 289.174 178.51 291.243 182.453Z" fill="#7C2A45"/>
<path d="M322.665 242.339L325.106 244.815L322.861 247.352C322.861 247.352 322.189 246.477 322.022 246.085C321.854 245.694 319.814 244.21 319.814 244.21L322.665 242.339Z" fill="#E76A53"/>
<path d="M328.724 245.719C328.724 245.719 328.44 244.729 327.324 244.28C326.209 243.831 324.8 243.556 324.604 243.64C324.408 243.725 323.776 245.71 323.092 246.003C322.408 246.297 320.798 245.874 320.798 245.874C320.798 245.874 320.206 246.87 320.578 248.934C320.949 251 319.089 254.439 318.776 255.222C318.463 256.005 319.622 256.667 319.622 256.667C319.622 256.667 323.684 256.222 328.724 245.719Z" fill="#09434C"/>
<path d="M323.719 242.536L319.43 245.257L318.141 244.512L322.677 241.175L323.719 242.536Z" fill="#0099A0"/>
<path d="M286.257 257.218C286.257 257.218 287.17 256.745 287.389 255.56C287.607 254.375 287.599 252.933 287.481 252.758C287.36 252.582 285.295 252.351 284.874 251.738C284.454 251.123 284.548 249.455 284.548 249.455C284.548 249.455 283.459 249.067 281.514 249.84C279.57 250.611 275.842 249.457 275.017 249.303C274.189 249.149 273.771 250.42 273.771 250.42C273.771 250.42 275.002 254.324 286.257 257.218Z" fill="#09434C"/>
<path d="M289.103 250.947L283.508 248.401L283.7 246.297L290.202 249.119L289.103 250.947Z" fill="#0099A0"/>
<path d="M266.607 182.012C266.188 182.432 261.345 182.453 260.189 182.453C259.035 182.453 256.915 184.4 257.203 184.691C257.491 184.98 260.154 184.521 260.154 184.521C260.154 184.521 261.541 185.437 260.224 185.916C258.906 186.396 260.675 186.621 261.378 186.621C262.083 186.621 267.408 185.365 267.408 185.365L266.607 182.012Z" fill="#FFA283"/>
<path d="M297.802 146.061C297.802 146.061 298.137 168.771 294.407 175.136C290.675 181.502 267.41 185.884 267.41 185.884L265.067 180.604C265.067 180.604 283.461 174.886 284.705 171.517C285.949 168.148 288.39 151.539 289.685 148.543C291.207 145.024 296.93 141.444 297.802 146.061Z" fill="#912A4D"/>
<path d="M149.787 139.642C149.787 139.642 154.887 154.497 158.02 154.831C161.152 155.165 171.843 149.974 171.843 149.974L172.691 153.253C172.691 153.253 161.289 161.467 156.795 159.956C152.301 158.446 147.901 153.931 147.901 153.931L149.787 139.642Z" fill="#E76A53"/>
<path d="M145.046 118.097L145.303 118.144L149.433 118.914C149.433 118.914 149.202 119.812 150.087 120.697C150.969 121.583 155.741 138.45 153.104 141.095C150.467 143.741 139.829 142.77 139.512 142.77C139.196 142.77 137.519 130.512 137.519 130.512L145.046 118.097Z" fill="#001E47"/>
<path d="M150.397 199.297C150.397 199.297 147.464 229.901 148.941 233.699C150.418 237.494 152.828 244.02 152.828 244.02H150.115L144.574 236.631C144.574 236.631 144.707 236.291 144.245 234.81C143.783 233.328 140.462 217.404 141.661 209.905C142.002 207.778 142.423 197.528 143.467 195.793C146.104 191.409 150.397 197.084 150.397 199.297Z" fill="#E76A53"/>
<path d="M144.363 235.209C144.363 235.209 143.679 234.928 143.07 236.363C142.462 237.8 144.18 244.911 144.18 244.911L145.577 244.954C145.577 244.954 144.627 239.679 144.948 239.679C145.27 239.679 146.825 245.048 147.613 245.264C148.4 245.479 153.57 245.819 154.374 245.012C155.179 244.204 152.283 242.548 152.283 242.548C152.283 242.548 149.684 242.897 149.345 242.554C149.008 242.218 144.363 235.209 144.363 235.209Z" fill="#09434C"/>
<path d="M142.552 199.297C142.552 199.297 139.62 229.901 141.095 233.699C142.572 237.494 144.982 244.02 144.982 244.02H142.27L136.728 236.631C136.728 236.631 136.861 236.291 136.399 234.81C135.938 233.328 132.616 217.404 133.815 209.905C134.156 207.778 134.577 197.528 135.621 195.793C138.258 191.409 142.552 197.084 142.552 199.297Z" fill="#FFA283"/>
<path d="M134.475 202.504C135.933 202.246 138.971 201.713 142.382 201.135C142.245 202.648 142.039 204.988 141.816 207.739C140.203 207.98 136.593 208.419 134.019 207.968C134.146 206.482 134.291 204.474 134.475 202.504Z" fill="#FF7F4C"/>
<path d="M142.507 200.658C145.305 200.195 148.132 199.742 150.387 199.418C150.326 200.068 150.021 203.314 149.676 207.579C148.904 207.798 147.926 208.019 146.714 208.198C144.766 208.483 143.066 208.331 141.855 208.112C142.023 206.152 142.225 203.205 142.507 200.658Z" fill="#FF7F4C"/>
<path d="M131.787 205.665C131.787 199.359 131.787 190.097 131.787 187.378C131.787 182.563 133.631 169.908 136.585 163.612C139.539 157.317 151.719 163.612 151.719 163.612C151.719 163.612 154.499 169.736 155.238 178.622L155.947 206.173C147.17 207.542 140.303 207.651 131.787 205.665Z" fill="#912A4D"/>
<path d="M155.277 180.186L155.236 178.625C155.108 177.065 154.914 175.591 154.685 174.22L141.12 170.814C141.12 170.814 147.699 177.141 155.277 180.186Z" fill="#7C2A45"/>
<path d="M148.741 137.505C149.159 137.925 154.869 143.688 154.411 148.332C153.727 155.271 151.811 162.303 152.475 165.076C153.582 169.705 136.961 170.4 136.187 164.549C135.911 162.467 136.45 157.261 135.962 152.552C135.186 145.071 133.413 137.708 133.742 137.505C141.018 133.027 147.595 136.353 148.741 137.505Z" fill="#0099A0"/>
<path d="M152.479 160.477C150.148 160.374 146.29 159.876 145.791 159.376C145.101 158.684 143.358 153.005 143.358 153.005L144.617 152.423C144.617 152.423 141.777 142.02 138.775 139.007C136.996 137.222 135.897 136.736 135.296 136.634C135.006 136.781 134.716 136.935 134.426 137.101C134.395 137.833 134.32 139.501 134.216 141.052C134.598 143.186 135.125 146.088 135.556 149.203C136.648 151.748 137.913 154.38 138.186 154.829C138.709 155.683 142.907 162.245 142.907 162.245L152.401 164.576C152.315 163.557 152.125 162.284 152.479 160.477Z" fill="#0D5965"/>
<path d="M144.394 170.999L146.676 166.162L167.705 154.806L163.319 132.496L165.652 127.553L188.627 138.468L186.105 143.815L171.083 136.679L175.236 158.024L154.546 169.144L171.334 177.12L168.761 182.574L144.394 170.999Z" fill="#213DDB"/>
<path d="M165.631 182.254L168.761 182.576L144.394 170.999L146.676 166.162L167.705 154.808L163.319 132.496L165.652 127.553L162.98 127.278L160.784 131.852L164.504 154.124L143.554 165.191L141.12 170.814L165.631 182.254Z" fill="#192DA4"/>
<path d="M183.476 144.188L186.105 143.815L171.081 136.677L171.473 138.687L183.476 144.188Z" fill="#192DA4"/>
<path d="M131.276 142.432C132.545 137.435 133.742 137.505 133.742 137.505C133.742 137.505 134.779 142.626 135.629 147.262C135.102 147.117 134.583 146.899 134.079 146.598C132.532 145.672 131.711 143.973 131.276 142.432Z" fill="#6ADAF4"/>
<path d="M136.518 235.209C136.518 235.209 135.833 234.928 135.225 236.363C134.616 237.8 136.334 244.911 136.334 244.911L137.731 244.954C137.731 244.954 136.781 239.679 137.102 239.679C137.425 239.679 138.979 245.048 139.767 245.264C140.554 245.479 145.724 245.819 146.529 245.012C147.333 244.204 144.437 242.548 144.437 242.548C144.437 242.548 141.839 242.897 141.5 242.554C141.163 242.218 136.518 235.209 136.518 235.209Z" fill="#09434C"/>
<path d="M147.511 127.543L148.144 135.082C148.144 135.082 150.675 144.032 148.643 144.778C146.61 145.524 143.681 135.427 143.681 135.427V125.776L147.511 127.543Z" fill="#FFA283"/>
<path d="M147.901 132.201C146.512 132.1 144.905 130.84 143.681 129.09V125.776L147.511 127.543L147.901 132.201Z" fill="#FF7F4C"/>
<path d="M147.511 118.818C147.511 118.818 149.74 117.824 150.483 122.296C151.227 126.768 150.661 130.949 148.459 131.281C146.257 131.613 143.217 127.928 142.145 124.946C141.073 121.966 145.748 118.347 147.511 118.818Z" fill="#FFA283"/>
<path d="M166.299 162.825C166.191 162.883 166.081 162.75 166.16 162.655C166.769 161.922 167.786 160.559 166.941 160.559C166.087 160.559 165.221 161.641 164.234 162.01C163.885 162.141 145.897 162.743 144.394 159.669C143.869 158.598 142.321 154.97 141.587 151.174C138.215 151.275 136.418 151.695 133.452 153.308C134.542 158.973 136.121 163.799 138.201 165.885C140.813 168.506 155.898 166.51 159.456 165.996C159.979 165.92 160.506 165.873 161.035 165.852C162.584 165.795 165.827 165.678 166.512 165.678C167.419 165.678 169.561 161.067 169.561 161.067L166.299 162.825Z" fill="#FFA283"/>
<path d="M141.589 151.179C138.217 151.279 136.42 151.699 133.454 153.312C133.552 153.824 133.656 154.331 133.762 154.829C135.758 154.829 139.819 153.927 142.055 153.197C141.88 152.539 141.72 151.861 141.589 151.179Z" fill="#FF7F4C"/>
<path d="M134.706 136.677C134.706 136.677 132.155 136.357 132.155 145.93C132.155 148.791 132.43 151.455 132.896 153.869C134.44 154.001 140.517 154.134 142.625 151.492C142.625 151.492 139.122 135.628 134.706 136.677Z" fill="#0099A0"/>
<path d="M145.34 115.955C145.716 116.099 146.106 116.205 146.504 116.269C147.362 116.406 148.792 116.912 149.664 118.724C150.971 121.441 141.252 130.418 143.681 133.64C146.11 136.861 143.381 140.911 139.816 143.167C136.252 145.424 141.03 144.758 136.716 146.899C132.402 149.039 126.929 141.095 130.255 135.3C133.58 129.504 136.526 118.355 140.615 116.664C143.318 115.545 144.707 115.711 145.34 115.955Z" fill="#003C8E"/>
<path d="M173.324 148.199C173.324 148.199 171.39 149.07 171.39 149.889C171.39 150.709 173.53 149.496 173.138 149.889C172.746 150.283 171.13 150.767 171.3 151.336C171.62 152.416 173.275 150.789 173.661 151.177C174.047 151.564 172.321 151.955 172.321 152.421C172.321 152.886 173.745 152.515 174.225 152.421C174.703 152.328 173.914 149.018 173.324 148.199Z" fill="#E76A53"/>
<defs>
<linearGradient id="paint0_linear_820_974" x1="-0.00335694" y1="134.002" x2="427.004" y2="134.002" gradientUnits="userSpaceOnUse">
<stop stop-color="#F5B800"/>
<stop offset="1" stop-color="#FFC800"/>
</linearGradient>
<linearGradient id="paint1_linear_820_974" x1="124.927" y1="128.42" x2="257.641" y2="252.096" gradientUnits="userSpaceOnUse">
<stop stop-color="#F5B800"/>
<stop offset="1" stop-color="#FFC800"/>
</linearGradient>
</defs>
</svg>
